<svg version="1.1" xmlns="http://www.w3.org/2000/svg" style="display: block;" viewBox="0 0 2048 2048" width="512" height="512">
<defs>
	<linearGradient id="Gradient1" gradientUnits="userSpaceOnUse" x1="455.801" y1="1079.03" x2="511.734" y2="1126.58">
		<stop class="stop0" offset="0" stop-opacity="1" stop-color="rgb(248,134,148)"/>
		<stop class="stop1" offset="1" stop-opacity="1" stop-color="rgb(239,212,201)"/>
	</linearGradient>
	<linearGradient id="Gradient2" gradientUnits="userSpaceOnUse" x1="1255.22" y1="1284.35" x2="902.666" y2="541.181">
		<stop class="stop0" offset="0" stop-opacity="1" stop-color="rgb(250,30,67)"/>
		<stop class="stop1" offset="1" stop-opacity="1" stop-color="rgb(252,95,97)"/>
	</linearGradient>
	<linearGradient id="Gradient3" gradientUnits="userSpaceOnUse" x1="1582.12" y1="250.106" x2="1566.94" y2="221.822">
		<stop class="stop0" offset="0" stop-opacity="1" stop-color="rgb(254,185,186)"/>
		<stop class="stop1" offset="1" stop-opacity="1" stop-color="rgb(244,228,226)"/>
	</linearGradient>
	<linearGradient id="Gradient4" gradientUnits="userSpaceOnUse" x1="574.66" y1="1269.67" x2="536.356" y2="1172.62">
		<stop class="stop0" offset="0" stop-opacity="1" stop-color="rgb(77,0,13)"/>
		<stop class="stop1" offset="1" stop-opacity="1" stop-color="rgb(128,3,22)"/>
	</linearGradient>
	<linearGradient id="Gradient5" gradientUnits="userSpaceOnUse" x1="830.938" y1="490.145" x2="1331.83" y2="2042.48">
		<stop class="stop0" offset="0" stop-opacity="1" stop-color="rgb(80,11,25)"/>
		<stop class="stop1" offset="1" stop-opacity="1" stop-color="rgb(18,39,53)"/>
	</linearGradient>
</defs>
<path transform="translate(0,0)" fill="rgb(30,16,32)" d="M 1032.18 959.767 L 1034.77 965.063 C 1031.68 972.39 1025.93 978.341 1020.39 983.902 L 1017.48 978.955 C 1021.76 972.258 1027.27 966.027 1032.18 959.767 z"/>
<path transform="translate(0,0)" fill="rgb(18,5,20)" d="M 278.656 1166.05 C 279.538 1168.6 279.967 1169.38 278.938 1172.02 C 278.594 1172.91 277.738 1174.41 277.26 1175.28 C 269.832 1184.62 261.59 1194.02 252.305 1201.57 L 251.759 1200.1 C 249.534 1201.9 247.593 1204.62 244.588 1204.04 C 244.09 1203.95 243.608 1203.78 243.118 1203.65 C 254.844 1191.02 266.434 1178.21 278.656 1166.05 z"/>
<path transform="translate(0,0)" fill="rgb(18,5,20)" d="M 1032.18 959.767 A 1631.61 1631.61 0 0 0 1061.89 923.197 C 1067.24 916.494 1072.66 908.129 1079.17 902.587 C 1080.87 903.162 1081.72 903.194 1083.49 902.848 L 1084.86 903.404 C 1076.66 914.488 1068.39 926.315 1059.48 936.813 C 1051.26 946.506 1041.02 953.725 1034.77 965.063 L 1032.18 959.767 z"/>
<path transform="translate(0,0)" fill="rgb(18,5,20)" d="M 906.296 1031.79 L 910.842 1036.23 C 919.147 1044.3 930.119 1057.19 942.762 1056.61 C 949.67 1056.29 955.986 1052.69 961.109 1048.26 C 971.911 1038.92 980.182 1025.5 988.879 1014.14 A 816.038 816.038 0 0 1 1017.48 978.955 L 1020.39 983.902 L 1019.25 985.085 C 1000.32 1004.93 971.254 1060.69 942.385 1061.1 C 928.163 1061.31 913.556 1045.26 903.63 1036.34 L 906.296 1031.79 z"/>
<path transform="translate(0,0)" fill="rgb(30,16,32)" d="M 765.249 895.728 C 792.841 920.487 818.778 947.799 845.596 973.486 C 865.296 992.354 888.491 1011.29 906.296 1031.79 L 903.63 1036.34 C 896.506 1031.67 890.95 1023.51 884.536 1017.72 C 878.241 1012.05 871.184 1007.27 864.972 1001.49 C 857.517 994.551 851.409 986.212 844.183 979.022 L 764.889 900.509 L 765.249 895.728 z"/>
<path transform="translate(0,0)" fill="rgb(0,0,0)" d="M 243.118 1203.65 C 243.608 1203.78 244.09 1203.95 244.588 1204.04 C 247.593 1204.62 249.534 1201.9 251.759 1200.1 L 252.305 1201.57 C 239.446 1215.23 226.314 1228.84 213.684 1242.69 C 206.096 1251.01 199.427 1259.65 191 1267.18 C 190.246 1267.85 189.522 1268.56 188.786 1269.25 C 175.721 1279.35 157.059 1302.07 144.67 1314.99 C 136.248 1323.76 127.34 1332.16 119.049 1341.03 C 113.507 1346.97 108.454 1353.41 102.751 1359.18 C 96.4514 1365.56 89.3918 1371.22 83.5207 1378 L 82.7613 1377.28 C 83.4315 1376.1 84.1355 1374.96 84.8661 1373.82 L 81.2018 1376 L 79.4346 1375.68 C 85.1489 1368.12 92.7057 1361.61 99.345 1354.86 L 136.746 1316.5 C 172.591 1279.36 207.863 1241.37 243.118 1203.65 z"/>
<path transform="translate(0,0)" fill="rgb(250,250,248)" d="M 1843.59 0 L 1907.71 0 C 1916.79 5.62695 1924.49 12.7325 1932.43 19.82 C 1956.36 41.1986 1975.36 64.2543 1982.89 96.3407 C 1986.74 112.761 1986.29 130.782 1984.61 147.461 C 1981.4 179.119 1975.01 210.451 1970.04 241.861 L 1935.46 451.737 L 1903.89 645.484 C 1895.33 700.762 1887.58 756.36 1877.54 811.391 C 1875.69 821.537 1873.15 831.596 1869.12 841.113 C 1864.7 851.562 1857.19 862.289 1855.76 873.58 C 1853.44 891.99 1855.66 911.802 1856.09 930.374 A 8621.96 8621.96 0 0 1 1857.87 1031.2 L 1862.06 1433.82 C 1862.18 1458.21 1863.31 1482.52 1863.7 1506.9 L 1866.12 1701.12 C 1866.39 1739.29 1869.55 1779.47 1864.68 1817.39 C 1862.07 1837.79 1857.16 1856.19 1846.13 1873.64 C 1826.74 1904.33 1798.4 1927.94 1762.52 1935.89 C 1745.53 1939.66 1727.45 1938.51 1710.14 1938.46 L 1652.91 1938.38 L 1590.81 1938.51 C 1575.03 1938.53 1558.56 1939.3 1542.95 1936.69 C 1527.52 1934.11 1513.15 1927.89 1500.07 1919.42 C 1488.49 1911.92 1479.66 1902.54 1470.9 1891.97 C 1466.08 1886.16 1461.53 1879.7 1455.38 1875.24 C 1441.55 1873.44 1427.14 1874.1 1413.2 1874.09 L 1351.94 1874.06 L 1277.32 1874.08 C 1258.72 1874.1 1239.08 1873.42 1220.65 1876.11 C 1220.35 1876.39 1220.04 1876.66 1219.75 1876.94 C 1200.81 1894.85 1192.9 1912.59 1168.08 1925.68 C 1156.89 1931.58 1143.07 1935.81 1130.54 1937.39 C 1105.38 1940.57 1068.61 1938.43 1042.26 1938.38 C 996.755 1938.31 951.135 1939.29 905.653 1938.38 C 872.621 1937.72 845.773 1929.56 822.339 1905.26 C 812.965 1895.54 805.378 1883.53 794.999 1874.9 C 776.969 1873.43 758.507 1874.15 740.409 1874.17 L 651.379 1874.27 L 556.311 1874.18 C 531.106 1874.16 505.918 1873.69 480.789 1876.01 C 455.086 1906.42 429.889 1934.44 387.749 1938.05 C 359.283 1940.49 329.321 1938.63 300.67 1938.58 L 234.877 1938.56 C 212.572 1938.57 189.421 1939.71 167.589 1934.48 C 149.736 1930.2 132.86 1920.62 118.949 1908.77 C 84.9963 1879.83 73.2797 1846.88 70.0006 1803.17 C 66.5696 1757.44 70.2491 1710.61 71.0452 1664.8 C 71.6035 1632.68 69.5406 1599.82 72.5055 1567.85 C 72.3466 1567.47 72.1936 1567.09 72.0289 1566.71 C 67.8689 1557.14 58.8843 1549.23 51.9563 1541.54 C 39.7434 1527.97 26.0851 1509.48 30.1113 1490.02 C 31.6796 1482.44 35.5012 1475.4 37.6601 1467.97 C 40.7611 1457.29 41.5783 1445.73 45.5072 1435.33 C 47.2258 1430.78 49.5684 1426.73 52.3231 1422.74 C 53.1963 1428.27 51.6685 1435.33 51.2151 1440.94 C 49.852 1457.79 50.834 1475.16 56.2722 1491.29 A 105.765 105.765 0 0 0 71.2878 1519.87 C 78.3852 1529.38 99.1548 1545.45 100.796 1556.41 C 103.27 1572.95 101.197 1594.38 100.889 1611.39 L 98.1991 1744.88 C 97.729 1770.25 94.8026 1797.89 99.3029 1822.85 A 113.874 113.874 0 0 0 119.467 1869.3 C 134.442 1889.27 159.429 1905.75 184.425 1909.18 C 195.86 1910.75 207.832 1910.08 219.365 1910.07 L 276 1910.01 L 344.885 1910.08 C 358.057 1910.09 371.615 1910.73 384.719 1909.43 C 394.738 1908.44 404.216 1906.21 413.16 1901.5 C 439.62 1887.6 444.352 1866.87 464.178 1852.52 C 469.254 1848.84 475.119 1846.44 481.367 1845.83 C 495.085 1844.5 509.851 1845.54 523.666 1845.58 L 600.542 1845.67 L 730.039 1845.68 C 750.129 1845.67 770.403 1844.97 790.468 1845.52 C 795.383 1845.66 800.591 1846.06 805.269 1847.62 C 830.941 1856.21 834.747 1899.92 887.301 1908.87 C 900.884 1911.18 915.368 1910.08 929.122 1910.04 L 993.114 1910 L 1077.62 1910.05 C 1093.31 1910.05 1109.62 1910.97 1125.22 1909.49 C 1134.49 1908.61 1144.38 1905.11 1152.75 1901.07 C 1181.67 1887.12 1184.17 1865.1 1205.98 1850.43 C 1211.4 1846.78 1220.85 1846.16 1227.29 1845.79 C 1246.78 1844.68 1458.6 1844.59 1464.53 1846.66 C 1490.6 1855.75 1494.99 1899.18 1545.11 1908.18 C 1561.37 1911.1 1578.38 1910.08 1594.84 1910.07 L 1661.47 1910.02 L 1715.33 1909.98 C 1727.53 1909.97 1740.16 1910.69 1752.22 1908.68 C 1766.59 1906.29 1780.67 1900.24 1792.52 1891.81 C 1816.55 1874.73 1831.05 1849.14 1836.16 1820.38 C 1840.78 1794.35 1837.65 1764.79 1837.12 1738.34 L 1835.04 1609.66 L 1830.03 1085.77 L 1828.48 936.398 C 1828.24 912.424 1826.3 887.319 1828.32 863.515 C 1829.33 851.632 1838.23 842.549 1842.69 831.919 C 1846.65 822.454 1848.33 811.934 1849.96 801.861 L 1920.14 368.148 C 1929.48 319.852 1936.05 270.678 1944.09 222.123 C 1948.94 192.812 1957.57 157.954 1958.44 128.625 A 123.481 123.481 0 0 0 1951.13 82.4644 C 1936.03 41.4077 1898.56 10.8867 1854.39 8.26035 C 1848.7 7.92157 1832.72 9.97483 1829.04 8.01208 C 1828.65 7.80587 1828.28 7.5688 1827.9 7.34716 C 1833.44 5.71036 1839.17 3.81656 1843.59 0 z"/>
<path transform="translate(0,0)" fill="rgb(89,43,62)" d="M 1565.21 138.603 C 1620.54 111.022 1674.67 81.1967 1729.53 52.7084 C 1758.84 37.4898 1796.35 13.5332 1827.9 7.34716 C 1828.28 7.5688 1828.65 7.80587 1829.04 8.01208 C 1832.72 9.97483 1848.7 7.92157 1854.39 8.26035 C 1898.56 10.8867 1936.03 41.4077 1951.13 82.4644 A 123.481 123.481 0 0 1 1958.44 128.625 C 1957.57 157.954 1948.94 192.812 1944.09 222.123 C 1936.05 270.678 1929.48 319.852 1920.14 368.148 C 1919.29 364.761 1917.06 362.442 1916.83 358.886 C 1918.1 358.367 1919.24 357.848 1920.45 357.227 L 1920.76 354.151 C 1917.58 349.243 1916.79 346.772 1916.18 341.045 C 1916.13 340.586 1916.09 340.126 1916.05 339.667 L 1914.45 338.966 L 1913.74 341.962 L 1912.64 341.463 L 1912.44 338.586 C 1910.48 341.77 1911.45 345.189 1908.98 347.999 C 1906.93 343.941 1910.92 338.559 1908.74 334.195 L 1907.82 334.406 C 1905.28 337.611 1905.91 342.422 1903.7 345.941 C 1903.26 340.425 1905.29 334.927 1903.77 329.591 C 1901.29 326.933 1900.08 327.098 1896.6 326.361 C 1895.45 320.434 1898.88 313.779 1898.67 307.722 C 1898.52 303.551 1897.31 299.161 1896.58 295.052 C 1894 280.525 1892.71 269.042 1895.7 254.444 C 1896.77 253.241 1898.1 251.951 1898.96 250.591 C 1899.04 250.454 1900.17 248.4 1900.2 247.928 C 1900.51 241.863 1897.15 226.439 1896.33 219.601 C 1894.94 208.065 1894.76 196.122 1892.76 184.719 C 1891.37 176.771 1889.02 168.863 1886.87 161.085 C 1885.37 155.682 1885.25 152.762 1880.15 149.88 C 1880.57 145.098 1881.06 140.269 1881.11 135.467 C 1881.25 121.781 1876.98 114.362 1867.7 104.923 C 1857.42 95.553 1845.18 88.5686 1830.79 89.2089 C 1821.71 89.6131 1812.46 93.616 1804.37 97.4969 C 1786.28 106.166 1768.98 116.74 1751.2 126.047 L 1584.59 214.538 L 1362.2 332.223 C 1347.12 340.237 1331.19 346.741 1316.28 355.046 C 1310.41 358.314 1305.01 361.796 1300.56 366.932 C 1297.51 370.455 1295.17 374.514 1293.08 378.657 C 1289.73 387.899 1287.13 397.367 1287.45 407.306 C 1288.92 415.678 1291.7 421.664 1297.12 428.233 C 1311.15 445.24 1334.35 461.009 1351.88 474.778 L 1410.95 521.817 C 1424.87 532.823 1442.48 544.158 1451.29 559.888 C 1444.34 575.715 1414.22 608.836 1401.6 624.363 L 1317.48 728.84 L 1088.85 1015.56 L 1006.3 1118.34 C 993.615 1134.17 981.826 1151.67 968.075 1166.51 C 961.985 1170.6 955.963 1173.95 948.381 1172.42 C 946.774 1172.1 945.26 1171.63 943.764 1170.96 C 927.997 1158.06 914.314 1142.08 899.241 1128.3 L 748.795 989.262 C 729.719 971.677 703.868 944.577 683.091 930.571 C 678.63 935.519 675.083 935.543 668.588 936.509 C 657.129 931.683 644.439 932.238 632.997 936.875 C 626.235 939.615 620.308 943.917 615.003 948.871 C 594.961 967.588 577.412 989.637 558.244 1009.33 L 431.508 1141.3 C 401.621 1172.75 372.004 1204.65 341.242 1235.23 C 332.301 1244.12 315.329 1267.04 306.878 1272.13 C 279.073 1303.92 249.275 1334.31 220.467 1365.19 C 205.448 1381.29 189.18 1396.65 176.702 1414.86 C 176.15 1415.27 175.285 1415.9 174.844 1416.4 C 174.256 1417.07 173.937 1417.95 173.335 1418.6 C 171.98 1420.08 171.33 1420.36 169.389 1420.6 C 169.964 1414.38 170.168 1412.44 167.297 1406.73 C 164.033 1414.62 162.085 1421.72 161.527 1430.27 C 160.767 1437.83 161.859 1444.67 163.519 1451.99 L 161.651 1451.26 C 161.115 1449.98 161.054 1449.93 160.679 1448.72 C 157.717 1439.19 158.318 1422.57 162.274 1413.31 C 164.051 1409.16 166.684 1405.42 168.727 1401.39 C 169.789 1399.3 171.214 1396.82 170.508 1394.54 L 168.348 1395.18 C 167.04 1393.23 166.301 1391.4 165.525 1389.19 C 163.635 1383.81 167.886 1385.91 168.286 1381.71 C 168.699 1377.38 167.218 1372.19 167.156 1367.75 C 167.045 1359.85 172.238 1346.96 175.665 1339.85 C 182.008 1326.71 185.358 1312.05 191.872 1298.96 C 198.525 1285.59 208.222 1274.39 214.98 1261.29 C 219.19 1253.13 222.043 1243.13 227.195 1235.62 C 227.901 1234.6 228.791 1233.59 229.539 1232.58 L 228.892 1231.97 L 230.181 1231.1 C 221.761 1233.14 200.074 1262.16 190.2 1270.22 L 188.786 1269.25 C 189.522 1268.56 190.246 1267.85 191 1267.18 C 199.427 1259.65 206.096 1251.01 213.684 1242.69 C 226.314 1228.84 239.446 1215.23 252.305 1201.57 C 261.59 1194.02 269.832 1184.62 277.26 1175.28 C 277.738 1174.41 278.594 1172.91 278.938 1172.02 C 279.967 1169.38 279.538 1168.6 278.656 1166.05 C 288.519 1152.59 302.184 1140.54 313.968 1128.69 C 327.263 1113.32 341.627 1098.74 355.572 1083.95 C 372.714 1065.78 389.587 1047.43 407.148 1029.65 C 447.035 984.549 489.211 941.067 530.616 897.34 C 536.827 889.745 543.858 882.577 550.436 875.273 C 564.655 859.481 577.602 843.103 597.149 833.615 C 624.049 820.56 656.036 819.953 684.047 829.462 C 711.679 837.006 745.158 875.264 765.249 895.728 L 764.889 900.509 L 844.183 979.022 C 851.409 986.212 857.517 994.551 864.972 1001.49 C 871.184 1007.27 878.241 1012.05 884.536 1017.72 C 890.95 1023.51 896.506 1031.67 903.63 1036.34 C 913.556 1045.26 928.163 1061.31 942.385 1061.1 C 971.254 1060.69 1000.32 1004.93 1019.25 985.085 L 1020.39 983.902 C 1025.93 978.341 1031.68 972.39 1034.77 965.063 C 1041.02 953.725 1051.26 946.506 1059.48 936.813 C 1068.39 926.315 1076.66 914.488 1084.86 903.404 L 1083.49 902.848 C 1081.72 903.194 1080.87 903.162 1079.17 902.587 C 1091.73 885.488 1105.8 869.267 1119.19 852.8 C 1130.94 838.352 1142.17 823.459 1154.04 809.125 C 1163.85 794.285 1176.88 781.026 1187.54 766.69 C 1194.8 756.926 1199.71 746.244 1206.51 736.362 C 1206.68 736.108 1206.86 735.859 1207.04 735.607 C 1230.84 703.921 1242.69 665.664 1263.29 632.053 C 1273 616.208 1287.15 601.712 1299.37 587.769 C 1291.48 579.899 1282.5 573.212 1273.85 566.214 L 1236.55 535.528 C 1210.36 514.115 1184.8 493.891 1170.22 462.376 C 1157.53 434.946 1155.14 403.387 1165.82 374.757 C 1174.95 350.307 1197.14 334.783 1219.95 324.489 C 1228.91 313.669 1272.3 290.684 1286.8 285.318 C 1288.39 283.272 1445.76 202.054 1465.07 191.358 C 1480.38 180.963 1499.26 173.492 1515.73 164.982 C 1532.36 156.392 1548.24 146.545 1565.21 138.603 z"/>
<path transform="translate(0,0)" fill="rgb(102,69,81)" d="M 1332.2 564.973 C 1334.87 565.486 1336.07 565.263 1337.88 567.365 L 1338.68 571.701 C 1336.99 576.899 1335.56 582.34 1332.99 587.181 C 1330.56 583.128 1331.61 576.752 1329.46 572.014 C 1330.15 569.57 1331.21 567.304 1332.2 564.973 z"/>
<path transform="translate(0,0)" fill="rgb(84,59,76)" d="M 1219.95 324.489 C 1228.91 313.669 1272.3 290.684 1286.8 285.318 C 1280.11 299.276 1249.73 306.854 1236.75 315.027 C 1231.18 318.536 1227.61 324.345 1221.62 327.503 L 1219.95 324.489 z"/>
<path transform="translate(0,0)" fill="rgb(30,16,32)" d="M 684.047 829.462 C 711.679 837.006 745.158 875.264 765.249 895.728 L 764.889 900.509 C 759.293 895.006 752.687 890.541 746.935 885.174 C 732.993 872.167 720.497 858.333 705.833 845.94 C 701.12 841.956 694.737 840.329 688.992 838.241 C 690.606 837.564 701.188 840.508 703.459 840.99 C 697.374 838.625 692.582 834.176 686.172 832.089 C 685.835 831.98 685.494 831.883 685.155 831.779 L 684.047 829.462 z"/>
<path transform="translate(0,0)" fill="rgb(0,0,0)" d="M 1154.04 809.125 C 1154.21 813.647 1149.4 819.417 1146.22 822.728 C 1145.67 823.307 1144.72 824.091 1144.16 824.576 L 1144.92 825.738 C 1147.89 823.042 1153.32 816.773 1156.81 815.833 C 1152.05 821.968 1146.28 827.008 1141.36 832.965 C 1129.51 847.306 1118.34 862.33 1106.73 876.882 C 1099.59 885.83 1091.75 894.28 1084.86 903.404 L 1083.49 902.848 C 1081.72 903.194 1080.87 903.162 1079.17 902.587 C 1091.73 885.488 1105.8 869.267 1119.19 852.8 C 1130.94 838.352 1142.17 823.459 1154.04 809.125 z"/>
<path transform="translate(0,0)" fill="rgb(84,59,76)" d="M 1565.21 138.603 C 1563.64 142.686 1562 143.822 1558.51 146.314 C 1548.7 153.32 1498.55 178.067 1496.37 181.53 C 1498.6 181.733 1500.8 181.899 1503.04 181.952 C 1498.83 184.392 1494.85 182.726 1490.62 184.227 C 1480.61 187.785 1471.56 196.182 1461.57 200.484 L 1459.91 199.998 C 1461.11 197.185 1464.6 195.096 1467.44 193.955 C 1469.38 193.172 1471.48 192.554 1473.47 191.885 C 1473.2 191.036 1473.45 191.32 1472.87 190.921 C 1470.04 190.457 1467.85 190.836 1465.07 191.358 C 1480.38 180.963 1499.26 173.492 1515.73 164.982 C 1532.36 156.392 1548.24 146.545 1565.21 138.603 z"/>
<path transform="translate(0,0)" fill="rgb(18,5,20)" d="M 530.616 897.34 C 530.471 898.482 530.614 899.7 530.182 900.767 C 528.112 905.874 488.426 944.094 481.026 955.084 L 493.214 943.698 C 473.435 969.179 448.804 990.512 427.25 1014.41 C 422.76 1019.39 416.325 1024.95 412.768 1030.44 C 411.747 1030.92 410.695 1031.08 409.6 1031.32 L 407.148 1029.65 C 447.035 984.549 489.211 941.067 530.616 897.34 z"/>
<path transform="translate(0,0)" fill="rgb(30,16,32)" d="M 407.148 1029.65 L 409.6 1031.32 C 410.695 1031.08 411.747 1030.92 412.768 1030.44 C 400.691 1044.55 387.835 1057.49 375.036 1070.91 C 366.648 1079.7 358.776 1088.96 350.286 1097.67 C 338.96 1109.29 325.921 1120.33 316.369 1133.45 C 304.395 1148.11 291.669 1162.99 277.26 1175.28 C 277.738 1174.41 278.594 1172.91 278.938 1172.02 C 279.967 1169.38 279.538 1168.6 278.656 1166.05 C 288.519 1152.59 302.184 1140.54 313.968 1128.69 C 327.263 1113.32 341.627 1098.74 355.572 1083.95 C 372.714 1065.78 389.587 1047.43 407.148 1029.65 z"/>
<path transform="translate(0,0)" fill="rgb(248,153,155)" d="M 315.884 1244.33 C 314.155 1252.35 290.897 1269.71 292.067 1275.74 C 292.283 1276.86 293.17 1277.73 293.722 1278.73 C 294.602 1277.55 295.265 1275.8 296.792 1275.62 C 298.227 1275.46 299.549 1275.61 300.976 1275.75 C 301.334 1275.46 301.682 1275.15 302.05 1274.86 C 303.636 1273.64 305.075 1272.96 306.878 1272.13 C 279.073 1303.92 249.275 1334.31 220.467 1365.19 C 205.448 1381.29 189.18 1396.65 176.702 1414.86 C 176.15 1415.27 175.285 1415.9 174.844 1416.4 C 174.256 1417.07 173.937 1417.95 173.335 1418.6 C 171.98 1420.08 171.33 1420.36 169.389 1420.6 C 169.964 1414.38 170.168 1412.44 167.297 1406.73 C 179.33 1385.66 214.725 1351.93 232.345 1333.18 C 260.181 1303.55 287.227 1273.18 315.884 1244.33 z"/>
<path transform="translate(0,0)" fill="url(#Gradient1)" d="M 315.884 1244.33 C 320.908 1236.84 329.778 1229.26 336.005 1222.59 C 355.326 1201.91 375.154 1181.78 394.623 1161.25 L 539.474 1009.56 C 559.825 988.345 579.508 966.337 600.369 945.633 C 606.592 939.456 615.974 929.177 624.096 925.987 C 628.224 924.366 632.439 922.754 636.75 921.693 C 653.46 917.581 668.798 922.027 683.091 930.571 C 678.63 935.519 675.083 935.543 668.588 936.509 C 657.129 931.683 644.439 932.238 632.997 936.875 C 626.235 939.615 620.308 943.917 615.003 948.871 C 594.961 967.588 577.412 989.637 558.244 1009.33 L 431.508 1141.3 C 401.621 1172.75 372.004 1204.65 341.242 1235.23 C 332.301 1244.12 315.329 1267.04 306.878 1272.13 C 305.075 1272.96 303.636 1273.64 302.05 1274.86 C 301.682 1275.15 301.334 1275.46 300.976 1275.75 C 299.549 1275.61 298.227 1275.46 296.792 1275.62 C 295.265 1275.8 294.602 1277.55 293.722 1278.73 C 293.17 1277.73 292.283 1276.86 292.067 1275.74 C 290.897 1269.71 314.155 1252.35 315.884 1244.33 z"/>
<path transform="translate(0,0)" fill="rgb(250,250,248)" d="M 1219.95 324.489 L 1221.62 327.503 C 1201.19 344.292 1189.93 371.245 1187.39 397.125 C 1184.8 423.585 1191.89 452.452 1209.11 473.099 C 1218.03 483.799 1229.42 492.57 1240.03 501.532 A 5152.99 5152.99 0 0 1 1290.63 544.503 C 1301.58 553.856 1313.2 562.711 1322.88 573.426 L 1324.38 574.052 C 1326.96 573.598 1327.5 573.895 1329.46 572.014 C 1331.61 576.752 1330.56 583.128 1332.99 587.181 C 1331.38 589.435 1330.33 589.137 1327.82 589.563 C 1327.46 589.624 1327.1 589.672 1326.74 589.727 C 1324.2 595.907 1321.45 601.107 1317.47 606.482 C 1303.99 624.701 1288.52 641.881 1274.22 659.525 C 1254.61 683.733 1235.66 708.601 1215.98 732.7 C 1214.51 734.511 1212.75 736.726 1210.51 737.606 C 1210.23 737.718 1209.92 737.753 1209.62 737.827 C 1208.71 737.116 1207.79 736.488 1207.04 735.607 C 1230.84 703.921 1242.69 665.664 1263.29 632.053 C 1273 616.208 1287.15 601.712 1299.37 587.769 C 1291.48 579.899 1282.5 573.212 1273.85 566.214 L 1236.55 535.528 C 1210.36 514.115 1184.8 493.891 1170.22 462.376 C 1157.53 434.946 1155.14 403.387 1165.82 374.757 C 1174.95 350.307 1197.14 334.783 1219.95 324.489 z"/>
<path transform="translate(0,0)" fill="rgb(84,59,76)" d="M 1329.46 572.014 C 1331.61 576.752 1330.56 583.128 1332.99 587.181 C 1331.38 589.435 1330.33 589.137 1327.82 589.563 C 1327.46 589.624 1327.1 589.672 1326.74 589.727 C 1326.58 583.614 1326.08 578.754 1322.88 573.426 L 1324.38 574.052 C 1326.96 573.598 1327.5 573.895 1329.46 572.014 z"/>
<path transform="translate(0,0)" fill="url(#Gradient2)" d="M 1293.08 378.657 C 1295.17 374.514 1297.51 370.455 1300.56 366.932 C 1305.01 361.796 1310.41 358.314 1316.28 355.046 C 1331.19 346.741 1347.12 340.237 1362.2 332.223 L 1584.59 214.538 L 1751.2 126.047 C 1768.98 116.74 1786.28 106.166 1804.37 97.4969 C 1812.46 93.616 1821.71 89.6131 1830.79 89.2089 C 1845.18 88.5686 1857.42 95.553 1867.7 104.923 C 1876.98 114.362 1881.25 121.781 1881.11 135.467 C 1881.06 140.269 1880.57 145.098 1880.15 149.88 A 2184.29 2184.29 0 0 0 1869.37 213.077 C 1868.16 220.698 1865.74 229.993 1866.05 237.611 C 1860.61 259.021 1857.85 281.469 1854.21 303.265 L 1837.09 403.502 L 1793.73 654.543 L 1779.48 737.553 C 1777.22 750.189 1775.66 763.381 1772.34 775.777 C 1770.54 782.464 1766.17 792.799 1760.83 797.245 C 1754.49 806.164 1745.81 812.85 1735.99 817.553 C 1692.61 838.325 1665.9 812.599 1637.03 783.636 L 1597.51 743.954 C 1586.31 732.808 1575.41 721.35 1560.24 715.931 C 1540.43 725.823 1528.18 750.81 1514.31 767.47 L 1296.18 1045.82 C 1278.54 1068.16 1261.4 1090.87 1243.96 1113.36 C 1236.59 1122.87 1228.96 1134.74 1220.36 1143.02 C 1216.11 1150.63 1209.39 1157.83 1204.02 1164.73 L 1171.13 1206.86 L 1080.73 1322 C 1061.19 1347.11 1042.06 1376.38 1018.46 1397.74 C 1009.67 1405.7 994.766 1410.57 983.537 1413.7 C 964.923 1418.89 943.949 1421.81 926.304 1411.9 A 71.0439 71.0439 0 0 1 924.126 1410.61 C 906.621 1401.61 884.308 1375.9 869.482 1361.38 A 6423.26 6423.26 0 0 0 798.575 1292.8 C 786.499 1281.21 774.873 1268.89 762.136 1258.03 C 758.897 1258.16 757.863 1256.7 755.538 1254.54 C 736.477 1236.84 721.592 1217.7 698.124 1205.55 C 695.213 1204.04 691.87 1201.79 688.516 1201.87 C 678.463 1202.12 676.199 1207.4 666.366 1202.47 C 664.092 1204.62 663.131 1206.54 659.785 1206.36 C 653.909 1206.04 648.706 1201.25 642.676 1201.32 C 629.661 1201.45 581.182 1222.08 570.938 1230.7 C 565.367 1235.39 563.451 1241.37 562.986 1248.51 C 562.633 1253.94 563.613 1262.65 560.614 1267.21 C 553.04 1269.97 545.121 1268.05 537.456 1269.88 C 529.986 1271.67 522.687 1278.69 515.376 1281.56 C 512.051 1282.87 508.527 1282.42 505.079 1283.01 C 498.818 1284.07 492.627 1286.53 486.905 1289.23 C 473.323 1295.62 462.518 1307.31 450.516 1316.2 C 445.671 1319.78 438.884 1322.93 434.618 1326.9 C 422.356 1338.32 411.693 1351.99 400.172 1364.18 L 309.992 1460.13 L 308.521 1459.2 C 288.283 1477.74 276.193 1498.91 247.575 1505.79 C 229.246 1510.19 211.798 1507.43 195.758 1497.43 A 72.0486 72.0486 0 0 1 164.006 1452.68 L 163.519 1451.99 C 161.859 1444.67 160.767 1437.83 161.527 1430.27 C 162.085 1421.72 164.033 1414.62 167.297 1406.73 C 170.168 1412.44 169.964 1414.38 169.389 1420.6 C 171.33 1420.36 171.98 1420.08 173.335 1418.6 C 173.937 1417.95 174.256 1417.07 174.844 1416.4 C 175.285 1415.9 176.15 1415.27 176.702 1414.86 C 189.18 1396.65 205.448 1381.29 220.467 1365.19 C 249.275 1334.31 279.073 1303.92 306.878 1272.13 C 315.329 1267.04 332.301 1244.12 341.242 1235.23 C 372.004 1204.65 401.621 1172.75 431.508 1141.3 L 558.244 1009.33 C 577.412 989.637 594.961 967.588 615.003 948.871 C 620.308 943.917 626.235 939.615 632.997 936.875 C 644.439 932.238 657.129 931.683 668.588 936.509 C 675.083 935.543 678.63 935.519 683.091 930.571 C 703.868 944.577 729.719 971.677 748.795 989.262 L 899.241 1128.3 C 914.314 1142.08 927.997 1158.06 943.764 1170.96 C 945.26 1171.63 946.774 1172.1 948.381 1172.42 C 955.963 1173.95 961.985 1170.6 968.075 1166.51 C 981.826 1151.67 993.615 1134.17 1006.3 1118.34 L 1088.85 1015.56 L 1317.48 728.84 L 1401.6 624.363 C 1414.22 608.836 1444.34 575.715 1451.29 559.888 C 1442.48 544.158 1424.87 532.823 1410.95 521.817 L 1351.88 474.778 C 1334.35 461.009 1311.15 445.24 1297.12 428.233 C 1291.7 421.664 1288.92 415.678 1287.45 407.306 C 1287.13 397.367 1289.73 387.899 1293.08 378.657 z"/>
<path transform="translate(0,0)" fill="rgb(249,110,123)" d="M 161.527 1430.27 C 162.085 1421.72 164.033 1414.62 167.297 1406.73 C 170.168 1412.44 169.964 1414.38 169.389 1420.6 C 171.33 1420.36 171.98 1420.08 173.335 1418.6 C 173.937 1417.95 174.256 1417.07 174.844 1416.4 C 175.285 1415.9 176.15 1415.27 176.702 1414.86 C 174.801 1420.29 172.571 1428.46 167.074 1431.31 C 165.291 1432.23 163.888 1432.07 162.255 1430.98 C 161.973 1430.79 161.77 1430.51 161.527 1430.27 z"/>
<path transform="translate(0,0)" fill="rgb(190,1,38)" d="M 967.859 1398.56 C 988.17 1393.24 1000.3 1391.08 1017.49 1377.89 L 1018.58 1379.01 C 1018.19 1382.62 1015.53 1386.18 1012.74 1388.59 C 1004.26 1395.9 988.225 1397.72 977.863 1401.9 C 972.309 1403.23 965.578 1404.13 960.417 1406.44 C 957.019 1406.01 953.769 1405.52 950.448 1404.68 L 951.072 1403.7 C 950.143 1403.3 949.32 1402.78 948.453 1402.26 L 950.545 1401.65 C 947.656 1401.65 945.01 1401.58 942.155 1401.02 L 942.266 1399.9 C 950.962 1400.34 959.252 1399.82 967.859 1398.56 z"/>
<path transform="translate(0,0)" fill="rgb(232,187,192)" d="M 968.075 1166.51 C 972.591 1166.85 976.568 1166.59 979.821 1170.25 C 980.149 1170.62 980.439 1171.02 980.748 1171.4 C 973.68 1178.53 966.272 1185.01 955.571 1184.83 C 947.302 1184.69 940.542 1180.76 933.878 1176.3 C 934.351 1175.36 934.617 1174.73 935.275 1173.86 C 937.064 1171.49 941.038 1171.39 943.764 1170.96 C 945.26 1171.63 946.774 1172.1 948.381 1172.42 C 955.963 1173.95 961.985 1170.6 968.075 1166.51 z"/>
<path transform="translate(0,0)" fill="rgb(237,10,40)" d="M 960.417 1406.44 C 952.845 1408.67 937.84 1409.12 930.102 1406.84 C 916.838 1402.95 915.557 1388.63 907.854 1379.32 C 900.725 1370.7 891.895 1362.91 883.999 1354.94 C 870.059 1340.87 856.25 1326.66 842.148 1312.75 C 834.278 1304.99 821.54 1295.45 816.389 1285.75 L 818.066 1287.99 L 817.771 1287.6 L 818.816 1287.09 C 819.384 1288.21 819.056 1287.81 819.995 1288.66 C 827.769 1295.73 834.822 1303.63 842.257 1311.06 L 880.006 1348.53 C 899.315 1368.03 916.63 1388.5 942.266 1399.9 L 942.155 1401.02 C 945.01 1401.58 947.656 1401.65 950.545 1401.65 L 948.453 1402.26 C 949.32 1402.78 950.143 1403.3 951.072 1403.7 L 950.448 1404.68 C 953.769 1405.52 957.019 1406.01 960.417 1406.44 z"/>
<path transform="translate(0,0)" fill="rgb(237,10,40)" d="M 1220.36 1143.02 C 1220.44 1140.94 1220.6 1139.31 1221.74 1137.5 C 1228.04 1127.5 1236.81 1118.13 1244.08 1108.72 C 1260.1 1088 1275.86 1067.11 1292.14 1046.61 L 1397.69 911.634 A 2492.13 2492.13 0 0 1 1422.22 881.155 C 1425.96 876.623 1431.79 871.339 1434.59 866.302 C 1440.01 856.529 1447.86 847.746 1454.74 838.942 L 1498.43 784.168 C 1500.79 781.143 1500.37 779.887 1499.84 776.306 C 1502.55 773.609 1503.35 775.16 1506.56 773.726 C 1508.53 770.487 1510.09 767.773 1513.13 765.457 L 1514.31 767.47 L 1296.18 1045.82 C 1278.54 1068.16 1261.4 1090.87 1243.96 1113.36 C 1236.59 1122.87 1228.96 1134.74 1220.36 1143.02 z"/>
<path transform="translate(0,0)" fill="rgb(248,153,155)" d="M 1417.22 406.706 C 1418.59 403.19 1421.25 401.852 1424.32 399.959 C 1466.1 374.226 1509.63 351.126 1551.51 325.499 A 7097.76 7097.76 0 0 1 1647.14 267.3 C 1661.94 258.325 1676.73 248.007 1692.03 239.999 C 1700.61 235.511 1705.9 227.863 1712.07 220.597 C 1722.15 208.735 1740.66 195.623 1755.62 191.805 C 1761.25 190.37 1766.62 190.899 1772.27 188.897 C 1780.99 185.804 1788.57 180.849 1798 180.082 L 1798.32 181.751 C 1776.01 186.582 1736.81 215.503 1715.74 228.086 C 1643.2 271.42 1571.5 316.058 1498.64 358.881 A 4373.91 4373.91 0 0 1 1441.85 392.385 C 1433.74 397.12 1425.59 402.476 1417.22 406.706 z"/>
<path transform="translate(0,0)" fill="rgb(237,10,40)" d="M 406.425 1350.35 C 411.349 1343.5 418.334 1337.48 424.112 1331.25 C 441.552 1312.45 459.485 1294.34 477.207 1275.85 A 6441.23 6441.23 0 0 1 566.385 1183.53 C 577.226 1172.57 587.513 1160.78 598.954 1150.45 C 604.64 1145.32 613.805 1136.69 621.598 1135.45 C 630.24 1134.08 647.245 1142.86 653.606 1148.43 C 659.774 1153.84 663.559 1162.72 671.127 1166.36 C 673.189 1165.73 672.299 1166.34 673.662 1164.37 C 676.57 1165.63 678.284 1168.34 680.301 1170.73 L 682.008 1169.51 C 684.049 1170.88 683.285 1169.96 684.218 1172.15 C 686.255 1176.94 687.62 1179.31 691.973 1182.35 C 696.536 1185.55 701.788 1188.94 703.254 1194.67 C 703.331 1194.97 703.338 1195.29 703.38 1195.6 L 704.115 1193.33 L 703.551 1195.89 L 706.437 1194.94 C 708.602 1197.44 707.513 1198.94 708.844 1201.38 C 711.364 1206.02 713.709 1201.11 717.027 1210.19 C 719.121 1210.53 718.159 1210.74 719.918 1209.59 C 722.301 1211.04 725.184 1218.46 727.132 1218.04 C 727.753 1217.91 728.339 1217.65 728.942 1217.45 L 730.631 1218.81 C 730.688 1219.33 730.74 1219.85 730.803 1220.36 C 731.176 1223.45 731.171 1224.81 733.35 1226.98 C 735.005 1226.39 736.144 1225.72 737.553 1224.67 C 739.126 1226.31 739.819 1226.58 740.336 1228.86 L 738.437 1229.89 L 738.673 1229.44 L 739.026 1230.89 C 741.753 1231.37 744.54 1231.58 746.897 1233.13 C 748.38 1235.78 747.723 1238.35 747.388 1241.22 C 751.933 1245.35 757.901 1247.32 762.23 1251.37 C 768.916 1257.63 774.088 1265.99 780.701 1272.53 L 873.15 1362.4 L 909.177 1396.87 C 913.572 1401.04 921.255 1405.56 924.126 1410.61 C 906.621 1401.61 884.308 1375.9 869.482 1361.38 A 6423.26 6423.26 0 0 0 798.575 1292.8 C 786.499 1281.21 774.873 1268.89 762.136 1258.03 C 754.514 1249.72 745.735 1242.36 737.669 1234.46 L 681.089 1179.59 C 668.95 1168.05 657.197 1153.82 643.399 1144.37 C 638.142 1140.77 631.943 1137.93 625.502 1137.69 C 614.606 1137.29 603.855 1148.81 596.555 1155.99 C 546.087 1205.61 497.103 1257.41 448.379 1308.75 C 434.985 1322.86 422.111 1337.51 408.534 1351.44 L 406.425 1350.35 z"/>
<path transform="translate(0,0)" fill="rgb(237,10,40)" d="M 164.006 1452.68 C 165.393 1452.56 164.635 1452.44 166.171 1453.46 C 169.205 1462.05 173.396 1470.81 178.187 1478.54 L 180.486 1478.85 C 183.07 1477.37 188.295 1475.55 189.927 1473.26 C 190.495 1472.47 190.342 1472.6 190.083 1471.75 C 188.708 1470.68 187.427 1469.79 186.501 1468.27 C 181.94 1460.81 177.567 1452.98 172.236 1446.03 L 171.65 1445.28 C 179.41 1452.45 183.927 1461.38 190.45 1469.53 C 198.657 1479.79 212.265 1485.45 225.115 1486.67 C 236.894 1487.79 253.418 1486.24 263.227 1479.19 C 268.963 1475.07 274.021 1469.56 279.545 1465.05 C 274.814 1470.37 263.693 1479.43 261.381 1485.61 C 260.879 1486.95 260.467 1488.29 259.74 1489.53 C 257.775 1492.89 255.481 1494.12 251.863 1495.09 C 245.107 1496.9 247.348 1499.8 242.95 1503.93 L 243.033 1504.62 C 251.353 1503.84 266.138 1496.89 272.878 1491.78 C 286.052 1481.78 303.273 1460.78 314.963 1448.26 A 9447.24 9447.24 0 0 1 406.425 1350.35 L 408.534 1351.44 C 386.901 1375.34 364.84 1399.01 342.769 1422.52 C 331.456 1434.57 318.884 1446.36 308.521 1459.2 C 288.283 1477.74 276.193 1498.91 247.575 1505.79 C 229.246 1510.19 211.798 1507.43 195.758 1497.43 A 72.0486 72.0486 0 0 1 164.006 1452.68 z"/>
<path transform="translate(0,0)" fill="rgb(237,10,40)" d="M 1287.45 407.306 C 1289.75 404.971 1290.86 402.994 1294.13 402.415 C 1306.01 412.591 1317.55 423.263 1329.61 433.209 C 1343.64 444.784 1358.4 455.477 1372.62 466.814 C 1387.82 478.923 1402.42 491.766 1417.42 504.114 C 1428.34 513.104 1441.76 519.869 1451.84 529.753 C 1455.14 532.989 1458.9 537.604 1459.04 542.466 C 1459.12 545.269 1458.33 548.133 1457.54 550.794 C 1455.75 554.5 1454.32 557.081 1451.29 559.888 C 1442.48 544.158 1424.87 532.823 1410.95 521.817 L 1351.88 474.778 C 1334.35 461.009 1311.15 445.24 1297.12 428.233 C 1291.7 421.664 1288.92 415.678 1287.45 407.306 z"/>
<path transform="translate(0,0)" fill="rgb(249,110,123)" d="M 683.091 930.571 C 703.868 944.577 729.719 971.677 748.795 989.262 L 899.241 1128.3 C 914.314 1142.08 927.997 1158.06 943.764 1170.96 C 941.038 1171.39 937.064 1171.49 935.275 1173.86 C 934.617 1174.73 934.351 1175.36 933.878 1176.3 C 926.817 1173.56 901.657 1148.33 894.646 1141.84 L 777.312 1033.28 L 716.58 976.634 C 701.061 962.245 687.286 947.042 668.588 936.509 C 675.083 935.543 678.63 935.519 683.091 930.571 z"/>
<path transform="translate(0,0)" fill="rgb(237,10,40)" d="M 1513.13 765.457 C 1515.43 761.567 1517.11 760.373 1516.34 755.728 C 1515.33 749.648 1516.44 743.361 1519.81 738.269 L 1519.43 736.367 L 1519.45 736.375 C 1508.9 747.836 1497.9 759.363 1488.27 771.612 C 1474.72 788.845 1462.4 807.833 1447.41 823.851 L 1446.91 822.881 C 1454.05 812.734 1462.01 803.23 1469.58 793.41 C 1477.41 783.261 1484.87 772.681 1493.16 762.904 C 1500.4 754.35 1508.3 746.345 1515.48 737.739 C 1524.35 727.111 1532.26 713.886 1542.94 705.041 C 1547.51 701.252 1555.59 698.117 1561.35 697.273 C 1570.3 695.964 1578.73 702.115 1585.35 707.428 C 1612.65 729.345 1657.24 784.467 1684.23 797.359 C 1693.29 801.683 1702.87 803.045 1712.79 801.985 C 1723.1 800.883 1731.65 796.799 1740.76 792.108 C 1739.73 795.235 1736.38 796.676 1733.55 798.101 C 1731.66 799.048 1730.11 799.244 1728.1 799.645 C 1726.37 799.99 1725.44 800.827 1724.11 801.92 C 1721.85 805.642 1721.99 808.522 1722.94 812.661 C 1723.44 814.847 1723.88 816.071 1725.64 817.57 C 1730.55 818.76 1734.97 815.943 1739.04 813.446 C 1746.58 808.82 1753.15 801.001 1760.83 797.245 C 1754.49 806.164 1745.81 812.85 1735.99 817.553 C 1692.61 838.325 1665.9 812.599 1637.03 783.636 L 1597.51 743.954 C 1586.31 732.808 1575.41 721.35 1560.24 715.931 C 1540.43 725.823 1528.18 750.81 1514.31 767.47 L 1513.13 765.457 z"/>
<path transform="translate(0,0)" fill="url(#Gradient3)" d="M 1293.08 378.657 C 1295.17 374.514 1297.51 370.455 1300.56 366.932 C 1305.01 361.796 1310.41 358.314 1316.28 355.046 C 1331.19 346.741 1347.12 340.237 1362.2 332.223 L 1584.59 214.538 L 1751.2 126.047 C 1768.98 116.74 1786.28 106.166 1804.37 97.4969 C 1812.46 93.616 1821.71 89.6131 1830.79 89.2089 C 1845.18 88.5686 1857.42 95.553 1867.7 104.923 C 1866.69 106.233 1866.31 107.581 1864.54 107.757 C 1851.72 109.03 1841.45 97.1176 1822.66 103.633 C 1811.78 107.406 1800.98 113.986 1790.77 119.295 A 3616.32 3616.32 0 0 0 1741.03 145.336 L 1600.74 220.264 L 1400.3 326.071 C 1384.25 334.468 1368.28 343.066 1352.14 351.29 C 1342.83 356.03 1333.21 360.247 1324.09 365.32 C 1317.96 368.727 1313.03 372.679 1308.24 377.803 C 1303.94 382.392 1300.12 387.468 1295.72 391.932 C 1295.13 387.439 1294.85 382.865 1293.08 378.657 z"/>
<path transform="translate(0,0)" fill="rgb(248,153,155)" d="M 1457.54 550.794 C 1459.03 551.023 1460.72 550.785 1461.67 552.099 C 1464.04 555.367 1463.74 563.366 1462.59 566.985 C 1462.21 568.213 1461.5 569.306 1460.85 570.406 C 1449.27 590.232 1432.24 607.538 1417.98 625.529 L 1315.01 754.174 L 1115.89 1003.18 A 9883.25 9883.25 0 0 1 1026.92 1114.03 C 1011.62 1133.06 996.934 1153.15 980.748 1171.4 C 980.439 1171.02 980.149 1170.62 979.821 1170.25 C 976.568 1166.59 972.591 1166.85 968.075 1166.51 C 981.826 1151.67 993.615 1134.17 1006.3 1118.34 L 1088.85 1015.56 L 1317.48 728.84 L 1401.6 624.363 C 1414.22 608.836 1444.34 575.715 1451.29 559.888 C 1454.32 557.081 1455.75 554.5 1457.54 550.794 z"/>
<path transform="translate(0,0)" fill="url(#Gradient4)" d="M 408.534 1351.44 C 422.111 1337.51 434.985 1322.86 448.379 1308.75 C 497.103 1257.41 546.087 1205.61 596.555 1155.99 C 603.855 1148.81 614.606 1137.29 625.502 1137.69 C 631.943 1137.93 638.142 1140.77 643.399 1144.37 C 657.197 1153.82 668.95 1168.05 681.089 1179.59 L 737.669 1234.46 C 745.735 1242.36 754.514 1249.72 762.136 1258.03 C 758.897 1258.16 757.863 1256.7 755.538 1254.54 C 736.477 1236.84 721.592 1217.7 698.124 1205.55 C 695.213 1204.04 691.87 1201.79 688.516 1201.87 C 678.463 1202.12 676.199 1207.4 666.366 1202.47 C 664.092 1204.62 663.131 1206.54 659.785 1206.36 C 653.909 1206.04 648.706 1201.25 642.676 1201.32 C 629.661 1201.45 581.182 1222.08 570.938 1230.7 C 565.367 1235.39 563.451 1241.37 562.986 1248.51 C 562.633 1253.94 563.613 1262.65 560.614 1267.21 C 553.04 1269.97 545.121 1268.05 537.456 1269.88 C 529.986 1271.67 522.687 1278.69 515.376 1281.56 C 512.051 1282.87 508.527 1282.42 505.079 1283.01 C 498.818 1284.07 492.627 1286.53 486.905 1289.23 C 473.323 1295.62 462.518 1307.31 450.516 1316.2 C 445.671 1319.78 438.884 1322.93 434.618 1326.9 C 422.356 1338.32 411.693 1351.99 400.172 1364.18 L 309.992 1460.13 L 308.521 1459.2 C 318.884 1446.36 331.456 1434.57 342.769 1422.52 C 364.84 1399.01 386.901 1375.34 408.534 1351.44 z"/>
<path transform="translate(0,0)" fill="rgb(250,250,248)" d="M 1417.22 406.706 C 1425.59 402.476 1433.74 397.12 1441.85 392.385 A 4373.91 4373.91 0 0 0 1498.64 358.881 C 1571.5 316.058 1643.2 271.42 1715.74 228.086 C 1736.81 215.503 1776.01 186.582 1798.32 181.751 C 1805.85 185.425 1812.26 188.787 1815.1 197.325 C 1820.53 213.694 1799.37 250.422 1793.87 267.583 C 1789.67 280.687 1787.19 294.273 1784.83 307.803 L 1733.91 592.37 C 1730.1 613.548 1718.67 696.134 1711.1 709.892 C 1709.56 712.678 1706.68 714.517 1703.62 715.215 C 1698.76 716.329 1693.19 714.936 1689.2 712.006 C 1685.72 709.45 1683.96 706.2 1683.48 701.939 C 1682.08 689.718 1693.11 642.23 1695.95 626.517 L 1733.55 417.701 L 1743.03 363.473 C 1744.9 353.019 1747.38 342.301 1748.34 331.744 L 1747.1 330.371 C 1749.21 318.32 1755.97 291.652 1755.14 280.979 C 1753.74 281.107 1754.65 280.962 1752.5 281.747 C 1741.04 279.584 1731.59 265.81 1719.13 266.732 C 1711.33 267.308 1669.6 296.205 1659.87 302.165 A 10759.2 10759.2 0 0 1 1524.45 382.861 C 1502.24 396.019 1480.29 410.889 1457.46 422.809 C 1454.6 424.298 1452.34 425.477 1449.1 425.487 C 1440.03 428.727 1431.88 439.55 1422.2 440.32 C 1418.78 440.591 1415.8 439.098 1413.38 436.803 C 1409.84 433.451 1406.09 427.784 1406.27 422.696 C 1406.52 415.472 1412.2 410.985 1417.22 406.706 z"/>
<path transform="translate(0,0)" fill="rgb(250,158,87)" d="M 1783.33 218.547 C 1777.77 228.211 1769.95 236.886 1765.6 247.221 C 1757.4 266.716 1756.02 291.996 1752.3 312.912 C 1751.22 319.014 1750.55 325.973 1748.34 331.744 L 1747.1 330.371 C 1749.21 318.32 1755.97 291.652 1755.14 280.979 C 1753.74 281.107 1754.65 280.962 1752.5 281.747 C 1741.04 279.584 1731.59 265.81 1719.13 266.732 C 1711.33 267.308 1669.6 296.205 1659.87 302.165 A 10759.2 10759.2 0 0 1 1524.45 382.861 C 1502.24 396.019 1480.29 410.889 1457.46 422.809 C 1454.6 424.298 1452.34 425.477 1449.1 425.487 C 1457.56 418.954 1467.68 413.809 1476.9 408.355 L 1526.02 379.296 L 1667.24 294.23 L 1729.63 256.262 C 1739.59 250.111 1749.98 244.38 1759.54 237.615 C 1767.79 231.776 1775.5 224.944 1783.33 218.547 z"/>
<path transform="translate(0,0)" fill="rgb(250,250,248)" d="M 1473.06 702.03 A 33.497 33.497 0 0 1 1478.65 702.385 C 1483.83 703.119 1489.24 705.881 1492.24 710.297 C 1494.36 713.425 1495.09 717.56 1494.21 721.247 C 1492.76 727.328 1434.25 798.681 1424.85 810.654 L 1129.14 1183.09 L 1043.39 1291.51 C 1030.74 1307.51 1018.67 1324.28 1005.34 1339.72 C 999.031 1347.03 991.841 1354.01 983.479 1358.95 C 973.491 1364.85 959.553 1365.66 949.032 1360.68 C 931.908 1352.58 897.021 1314.59 881.284 1299.71 L 737.744 1164.9 C 719.955 1148 701.505 1131.7 683.854 1114.7 C 673.193 1104.42 663.183 1092.99 651.877 1083.46 C 647.276 1079.58 641.596 1075.22 635.646 1073.91 A 15.1505 15.1505 0 0 0 632.24 1073.56 C 626.557 1073.62 621.823 1078.42 617.791 1082.07 C 607.345 1091.54 597.958 1102.47 587.94 1112.44 L 503.108 1197.91 L 312.193 1390.08 C 293.394 1409.09 264.311 1444.98 243.669 1458.24 C 240.875 1458.59 238.69 1458.69 235.973 1457.81 C 230.847 1456.14 226.432 1451.65 224.103 1446.87 C 222.635 1443.85 222.468 1440.52 223.608 1437.36 C 224.943 1433.67 227.609 1430.68 230.298 1427.88 C 237.224 1420.65 244.815 1414.02 251.883 1406.92 L 316.761 1341.34 L 455.146 1202.31 L 554.133 1102.59 C 567.983 1088.66 581.292 1073.79 595.675 1060.47 C 601.393 1055.17 608.613 1049.1 615.893 1046.14 C 629.257 1040.7 644.357 1042.72 656.891 1049.27 C 674.746 1058.6 699.395 1086.24 715.033 1100.81 L 867.178 1243.74 C 895.29 1270.5 922.719 1298.76 951.835 1324.33 C 955.442 1327.5 959.518 1331.21 964.018 1332.96 C 968.88 1332.56 971.396 1330.48 974.66 1327 C 993.144 1307.27 1011.18 1282.23 1028.04 1260.85 L 1116.11 1149.65 L 1375.53 823.277 L 1433.01 749.639 C 1443.41 736.074 1453.09 721.41 1464.59 708.779 C 1467.13 705.987 1469.83 703.949 1473.06 702.03 z"/>
<path transform="translate(0,0)" fill="url(#Gradient5)" d="M 1880.15 149.88 C 1885.25 152.762 1885.37 155.682 1886.87 161.085 C 1889.02 168.863 1891.37 176.771 1892.76 184.719 C 1894.76 196.122 1894.94 208.065 1896.33 219.601 C 1897.15 226.439 1900.51 241.863 1900.2 247.928 C 1900.17 248.4 1899.04 250.454 1898.96 250.591 C 1898.1 251.951 1896.77 253.241 1895.7 254.444 C 1892.71 269.042 1894 280.525 1896.58 295.052 C 1897.31 299.161 1898.52 303.551 1898.67 307.722 C 1898.88 313.779 1895.45 320.434 1896.6 326.361 C 1900.08 327.098 1901.29 326.933 1903.77 329.591 C 1905.29 334.927 1903.26 340.425 1903.7 345.941 C 1905.91 342.422 1905.28 337.611 1907.82 334.406 L 1908.74 334.195 C 1910.92 338.559 1906.93 343.941 1908.98 347.999 C 1911.45 345.189 1910.48 341.77 1912.44 338.586 L 1912.64 341.463 L 1913.74 341.962 L 1914.45 338.966 L 1916.05 339.667 C 1916.09 340.126 1916.13 340.586 1916.18 341.045 C 1916.79 346.772 1917.58 349.243 1920.76 354.151 L 1920.45 357.227 C 1919.24 357.848 1918.1 358.367 1916.83 358.886 C 1917.06 362.442 1919.29 364.761 1920.14 368.148 L 1849.96 801.861 C 1848.33 811.934 1846.65 822.454 1842.69 831.919 C 1838.23 842.549 1829.33 851.632 1828.32 863.515 C 1826.3 887.319 1828.24 912.424 1828.48 936.398 L 1830.03 1085.77 L 1835.04 1609.66 L 1837.12 1738.34 C 1837.65 1764.79 1840.78 1794.35 1836.16 1820.38 C 1831.05 1849.14 1816.55 1874.73 1792.52 1891.81 C 1780.67 1900.24 1766.59 1906.29 1752.22 1908.68 C 1740.16 1910.69 1727.53 1909.97 1715.33 1909.98 L 1661.47 1910.02 L 1594.84 1910.07 C 1578.38 1910.08 1561.37 1911.1 1545.11 1908.18 C 1494.99 1899.18 1490.6 1855.75 1464.53 1846.66 C 1458.6 1844.59 1246.78 1844.68 1227.29 1845.79 C 1220.85 1846.16 1211.4 1846.78 1205.98 1850.43 C 1184.17 1865.1 1181.67 1887.12 1152.75 1901.07 C 1144.38 1905.11 1134.49 1908.61 1125.22 1909.49 C 1109.62 1910.97 1093.31 1910.05 1077.62 1910.05 L 993.114 1910 L 929.122 1910.04 C 915.368 1910.08 900.884 1911.18 887.301 1908.87 C 834.747 1899.92 830.941 1856.21 805.269 1847.62 C 800.591 1846.06 795.383 1845.66 790.468 1845.52 C 770.403 1844.97 750.129 1845.67 730.039 1845.68 L 600.542 1845.67 L 523.666 1845.58 C 509.851 1845.54 495.085 1844.5 481.367 1845.83 C 475.119 1846.44 469.254 1848.84 464.178 1852.52 C 444.352 1866.87 439.62 1887.6 413.16 1901.5 C 404.216 1906.21 394.738 1908.44 384.719 1909.43 C 371.615 1910.73 358.057 1910.09 344.885 1910.08 L 276 1910.01 L 219.365 1910.07 C 207.832 1910.08 195.86 1910.75 184.425 1909.18 C 159.429 1905.75 134.442 1889.27 119.467 1869.3 A 113.874 113.874 0 0 1 99.3029 1822.85 C 94.8026 1797.89 97.729 1770.25 98.1991 1744.88 L 100.889 1611.39 C 101.197 1594.38 103.27 1572.95 100.796 1556.41 C 99.1548 1545.45 78.3852 1529.38 71.2878 1519.87 A 105.765 105.765 0 0 1 56.2722 1491.29 C 50.834 1475.16 49.852 1457.79 51.2151 1440.94 C 51.6685 1435.33 53.1963 1428.27 52.3231 1422.74 C 55.3609 1415.29 58.2755 1407.82 62.1776 1400.77 C 66.0933 1392.24 72.7136 1382.25 79.4346 1375.68 L 81.2018 1376 L 84.8661 1373.82 C 84.1355 1374.96 83.4315 1376.1 82.7613 1377.28 L 83.5207 1378 C 89.3918 1371.22 96.4514 1365.56 102.751 1359.18 C 108.454 1353.41 113.507 1346.97 119.049 1341.03 C 127.34 1332.16 136.248 1323.76 144.67 1314.99 C 157.059 1302.07 175.721 1279.35 188.786 1269.25 L 190.2 1270.22 C 200.074 1262.16 221.761 1233.14 230.181 1231.1 L 228.892 1231.97 L 229.539 1232.58 C 228.791 1233.59 227.901 1234.6 227.195 1235.62 C 222.043 1243.13 219.19 1253.13 214.98 1261.29 C 208.222 1274.39 198.525 1285.59 191.872 1298.96 C 185.358 1312.05 182.008 1326.71 175.665 1339.85 C 172.238 1346.96 167.045 1359.85 167.156 1367.75 C 167.218 1372.19 168.699 1377.38 168.286 1381.71 C 167.886 1385.91 163.635 1383.81 165.525 1389.19 C 166.301 1391.4 167.04 1393.23 168.348 1395.18 L 170.508 1394.54 C 171.214 1396.82 169.789 1399.3 168.727 1401.39 C 166.684 1405.42 164.051 1409.16 162.274 1413.31 C 158.318 1422.57 157.717 1439.19 160.679 1448.72 C 161.054 1449.93 161.115 1449.98 161.651 1451.26 L 163.519 1451.99 L 164.006 1452.68 A 72.0486 72.0486 0 0 0 195.758 1497.43 C 211.798 1507.43 229.246 1510.19 247.575 1505.79 C 276.193 1498.91 288.283 1477.74 308.521 1459.2 L 309.992 1460.13 L 400.172 1364.18 C 411.693 1351.99 422.356 1338.32 434.618 1326.9 C 438.884 1322.93 445.671 1319.78 450.516 1316.2 C 462.518 1307.31 473.323 1295.62 486.905 1289.23 C 492.627 1286.53 498.818 1284.07 505.079 1283.01 C 508.527 1282.42 512.051 1282.87 515.376 1281.56 C 522.687 1278.69 529.986 1271.67 537.456 1269.88 C 545.121 1268.05 553.04 1269.97 560.614 1267.21 C 563.613 1262.65 562.633 1253.94 562.986 1248.51 C 563.451 1241.37 565.367 1235.39 570.938 1230.7 C 581.182 1222.08 629.661 1201.45 642.676 1201.32 C 648.706 1201.25 653.909 1206.04 659.785 1206.36 C 663.131 1206.54 664.092 1204.62 666.366 1202.47 C 676.199 1207.4 678.463 1202.12 688.516 1201.87 C 691.87 1201.79 695.213 1204.04 698.124 1205.55 C 721.592 1217.7 736.477 1236.84 755.538 1254.54 C 757.863 1256.7 758.897 1258.16 762.136 1258.03 C 774.873 1268.89 786.499 1281.21 798.575 1292.8 A 6423.26 6423.26 0 0 1 869.482 1361.38 C 884.308 1375.9 906.621 1401.61 924.126 1410.61 A 71.0439 71.0439 0 0 0 926.304 1411.9 C 943.949 1421.81 964.923 1418.89 983.537 1413.7 C 994.766 1410.57 1009.67 1405.7 1018.46 1397.74 C 1042.06 1376.38 1061.19 1347.11 1080.73 1322 L 1171.13 1206.86 L 1204.02 1164.73 C 1209.39 1157.83 1216.11 1150.63 1220.36 1143.02 C 1228.96 1134.74 1236.59 1122.87 1243.96 1113.36 C 1261.4 1090.87 1278.54 1068.16 1296.18 1045.82 L 1514.31 767.47 C 1528.18 750.81 1540.43 725.823 1560.24 715.931 C 1575.41 721.35 1586.31 732.808 1597.51 743.954 L 1637.03 783.636 C 1665.9 812.599 1692.61 838.325 1735.99 817.553 C 1745.81 812.85 1754.49 806.164 1760.83 797.245 C 1766.17 792.799 1770.54 782.464 1772.34 775.777 C 1775.66 763.381 1777.22 750.189 1779.48 737.553 L 1793.73 654.543 L 1837.09 403.502 L 1854.21 303.265 C 1857.85 281.469 1860.61 259.021 1866.05 237.611 C 1865.74 229.993 1868.16 220.698 1869.37 213.077 A 2184.29 2184.29 0 0 1 1880.15 149.88 z"/>
<path transform="translate(0,0)" fill="rgb(250,250,248)" d="M 482.161 1614.73 C 484.315 1614.84 486.258 1614.76 488.138 1615.99 C 490.083 1617.26 491.228 1619.33 491.32 1621.64 C 491.491 1625.91 489.432 1628.25 486.579 1631.01 C 484.462 1630.29 481.735 1629.25 479.987 1627.81 C 478.304 1626.43 477.16 1624.36 477.302 1622.14 C 477.501 1619.03 480.1 1616.78 482.161 1614.73 z"/>
<path transform="translate(0,0)" fill="rgb(18,5,20)" d="M 79.4346 1375.68 L 81.2018 1376 L 84.8661 1373.82 C 84.1355 1374.96 83.4315 1376.1 82.7613 1377.28 L 83.5207 1378 C 80.1789 1384.73 73.1767 1397.22 65.8939 1400.08 C 64.8156 1400.5 63.2919 1400.62 62.1776 1400.77 C 66.0933 1392.24 72.7136 1382.25 79.4346 1375.68 z"/>
<path transform="translate(0,0)" fill="rgb(250,250,248)" d="M 480.625 1651.85 C 482.936 1651.74 486.269 1651.24 488.173 1652.83 C 490.274 1654.57 491.058 1656.14 491.298 1658.84 C 491.562 1661.82 489.723 1664.45 488.072 1666.7 C 485.634 1666.65 482.426 1666.78 480.333 1665.37 C 478.523 1664.15 477.179 1662.46 477.13 1660.2 C 477.061 1656.99 478.878 1654.35 480.625 1651.85 z"/>
<path transform="translate(0,0)" fill="rgb(250,250,248)" d="M 480.401 1576.84 C 483.206 1576.99 486.644 1576.99 488.992 1578.74 C 490.881 1580.15 492.02 1581.9 491.867 1584.32 C 491.686 1587.18 489.549 1589.53 487.778 1591.59 C 485.156 1591.88 482.407 1592.34 480.086 1590.65 C 478.045 1589.16 477.091 1587.07 477.037 1584.57 C 476.97 1581.4 478.596 1579.24 480.401 1576.84 z"/>
<path transform="translate(0,0)" fill="rgb(250,250,248)" d="M 296.575 1696.91 C 299.448 1697.02 302.83 1696.82 304.913 1699.18 C 306.661 1701.16 307.128 1702.82 306.953 1705.42 C 306.74 1708.58 304.381 1710.92 302.193 1712.92 C 298.953 1712.64 296.551 1712.45 294.15 1709.93 C 292.401 1708.08 291.263 1705.58 291.811 1703 C 292.501 1699.76 294.219 1698.81 296.575 1696.91 z"/>
<path transform="translate(0,0)" fill="rgb(250,250,248)" d="M 241.551 1696.77 C 244.636 1696.73 248.222 1696.37 250.585 1698.8 C 252.257 1700.52 252.772 1702.03 252.806 1704.36 C 252.86 1708.02 250.809 1710.35 248.444 1712.84 C 245.483 1712.6 242.162 1712.39 239.739 1710.43 C 238.451 1709.39 237.572 1708.1 237.347 1706.48 C 236.781 1702.38 239.182 1699.75 241.551 1696.77 z"/>
<path transform="translate(0,0)" fill="rgb(250,250,248)" d="M 1486.48 1150.74 C 1489.6 1151.36 1493.52 1151.77 1495.75 1154.33 C 1497.52 1156.36 1498.07 1158.12 1497.74 1160.78 C 1497.34 1163.91 1494.56 1166.45 1492.34 1168.39 C 1489.28 1168.23 1486.29 1168.03 1483.87 1165.93 C 1481.98 1164.29 1480.75 1161.97 1480.92 1159.42 C 1481.18 1155.48 1483.69 1153.13 1486.48 1150.74 z"/>
<path transform="translate(0,0)" fill="rgb(87,6,19)" d="M 1837.09 403.502 L 1854.21 303.265 C 1857.85 281.469 1860.61 259.021 1866.05 237.611 C 1867.34 249.893 1859.58 288.499 1856.22 301.71 L 1858.12 303.227 L 1856.45 302.635 C 1858.89 309.696 1864.16 323.398 1860.65 330.612 L 1857.11 327.791 C 1854.55 328.206 1853.62 328.081 1852.06 330.403 C 1850.08 333.349 1850.21 339.251 1849.58 342.808 C 1847.7 353.461 1842.75 397.622 1837.09 403.502 z"/>
<path transform="translate(0,0)" fill="rgb(250,250,248)" d="M 1671.28 1493.02 C 1674.51 1492.83 1677.24 1492.66 1680.38 1493.5 C 1682.47 1503.27 1681.15 1516.13 1681.18 1526.26 C 1689.42 1526.32 1698.41 1525.77 1706.52 1527.25 C 1709.49 1527.79 1712.83 1528.39 1714.65 1531 L 1713.78 1532.5 C 1704.87 1536.91 1691.08 1535.86 1681.31 1535.43 C 1681.08 1547.1 1681.69 1559.14 1680.28 1570.72 C 1677.74 1570.55 1675.8 1570.64 1673.77 1568.88 C 1669.72 1559.75 1671.91 1545.2 1671.43 1535.2 C 1664.24 1535.67 1646.85 1537.19 1640.61 1535.16 C 1638.79 1534.58 1639.45 1535.03 1638.55 1533.15 C 1638.71 1530.51 1638.32 1529.35 1640.05 1527.21 C 1650.11 1525.39 1661.6 1526.55 1671.89 1526.5 C 1672.03 1515.34 1671.6 1504.18 1671.28 1493.02 z"/>
<path transform="translate(0,0)" fill="rgb(250,250,248)" d="M 1569.49 1021.95 C 1572.2 1021.93 1574.19 1021.73 1576.54 1023.34 C 1580.77 1031.62 1578.19 1047.2 1578.1 1056.81 C 1588.88 1056.85 1602.69 1055.27 1612.34 1060.36 L 1612.74 1062.43 C 1604.97 1067.87 1588.04 1066.05 1578.69 1066.02 C 1577.99 1076.71 1580.33 1092.52 1576.08 1102.24 L 1571.49 1100.83 C 1566.96 1094.37 1569.1 1074.58 1568.97 1066.2 C 1558.94 1066.24 1540.79 1068.3 1532.95 1061.59 C 1533.18 1061.3 1533.38 1060.98 1533.65 1060.72 C 1539.73 1054.77 1560.76 1056.67 1569.11 1056.64 C 1569.76 1045.11 1569.49 1033.5 1569.49 1021.95 z"/>
</svg>