<svg version="1.1" xmlns="http://www.w3.org/2000/svg" style="display: block;" viewBox="0 0 2048 2048" width="512" height="512">
<defs>
	<linearGradient id="Gradient1" gradientUnits="userSpaceOnUse" x1="782.311" y1="1665.57" x2="752.701" y2="1869.26">
		<stop class="stop0" offset="0" stop-opacity="1" stop-color="rgb(199,184,198)"/>
		<stop class="stop1" offset="1" stop-opacity="1" stop-color="rgb(182,190,201)"/>
	</linearGradient>
	<linearGradient id="Gradient2" gradientUnits="userSpaceOnUse" x1="677.756" y1="1850.41" x2="709.87" y2="1385.49">
		<stop class="stop0" offset="0" stop-opacity="1" stop-color="rgb(144,10,43)"/>
		<stop class="stop1" offset="1" stop-opacity="1" stop-color="rgb(194,30,59)"/>
	</linearGradient>
	<linearGradient id="Gradient3" gradientUnits="userSpaceOnUse" x1="1242.73" y1="1140.85" x2="399.341" y2="298.565">
		<stop class="stop0" offset="0" stop-opacity="1" stop-color="rgb(215,46,74)"/>
		<stop class="stop1" offset="1" stop-opacity="1" stop-color="rgb(254,93,90)"/>
	</linearGradient>
	<linearGradient id="Gradient4" gradientUnits="userSpaceOnUse" x1="1090.22" y1="725.316" x2="1194.77" y2="757.017">
		<stop class="stop0" offset="0" stop-opacity="1" stop-color="rgb(50,56,74)"/>
		<stop class="stop1" offset="1" stop-opacity="1" stop-color="rgb(85,76,84)"/>
	</linearGradient>
	<linearGradient id="Gradient5" gradientUnits="userSpaceOnUse" x1="1430.59" y1="996.784" x2="1626.79" y2="1381.16">
		<stop class="stop0" offset="0" stop-opacity="1" stop-color="rgb(30,37,54)"/>
		<stop class="stop1" offset="1" stop-opacity="1" stop-color="rgb(78,72,85)"/>
	</linearGradient>
	<linearGradient id="Gradient6" gradientUnits="userSpaceOnUse" x1="1508.85" y1="1450.24" x2="1403.69" y2="1246.12">
		<stop class="stop0" offset="0" stop-opacity="1" stop-color="rgb(226,216,227)"/>
		<stop class="stop1" offset="1" stop-opacity="1" stop-color="rgb(255,255,255)"/>
	</linearGradient>
	<linearGradient id="Gradient7" gradientUnits="userSpaceOnUse" x1="1142.11" y1="1291.56" x2="750.47" y2="862.094">
		<stop class="stop0" offset="0" stop-opacity="1" stop-color="rgb(30,34,53)"/>
		<stop class="stop1" offset="1" stop-opacity="1" stop-color="rgb(59,58,68)"/>
	</linearGradient>
	<linearGradient id="Gradient8" gradientUnits="userSpaceOnUse" x1="1723.43" y1="1807.17" x2="1308.06" y2="1327.94">
		<stop class="stop0" offset="0" stop-opacity="1" stop-color="rgb(29,34,52)"/>
		<stop class="stop1" offset="1" stop-opacity="1" stop-color="rgb(61,59,69)"/>
	</linearGradient>
</defs>
<path transform="translate(0,0)" fill="rgb(185,188,199)" d="M 1011.39 17.2569 C 1025.37 17.5949 1039.51 17.5346 1053.48 18.375 C 1103.89 21.4094 1198.75 35.3915 1243.43 56.3768 C 1227.48 56.2081 1205.3 48.5429 1189.56 44.7205 C 1170.95 40.2004 1151.73 36.3275 1132.87 32.9068 C 1111.1 28.957 1088.55 26.244 1066.52 24.1319 C 1048.83 22.4349 1028.5 21.8578 1011.39 17.2569 z"/>
<path transform="translate(0,0)" fill="rgb(254,254,254)" d="M 93.5033 612.785 C 98.9409 598.222 106.052 583.973 112.538 569.835 C 147.893 492.767 192.476 418.817 247.982 354.511 C 275.186 322.994 305.46 293.947 335.387 265.037 C 416.425 186.753 530.837 118.375 635.879 78.3397 A 966.984 966.984 0 0 1 804.864 31.4282 C 819.509 28.6914 834.252 25.1028 849.025 23.2211 C 902.704 16.3835 957.352 16.3415 1011.39 17.2569 C 1028.5 21.8578 1048.83 22.4349 1066.52 24.1319 C 1088.55 26.244 1111.1 28.957 1132.87 32.9068 C 1151.73 36.3275 1170.95 40.2004 1189.56 44.7205 C 1205.3 48.5429 1227.48 56.2081 1243.43 56.3768 C 1257.13 59.6331 1270.29 65.6433 1283.57 70.2909 C 1373.98 101.949 1469.55 151.148 1545.22 210.502 C 1561.01 222.89 1576.84 235.516 1591.85 248.84 C 1605.39 260.856 1619.3 276.161 1634.84 285.483 C 1635.22 285.279 1635.6 285.08 1635.98 284.872 C 1649.14 277.619 1660.69 266.898 1672.3 257.45 C 1703.18 232.31 1738.43 208.737 1779.97 220.408 C 1800.2 226.09 1816.52 239.012 1826.79 257.351 C 1833.99 270.187 1837.26 284.786 1838.54 299.342 C 1840.72 324.2 1837.93 350.117 1836.18 374.953 L 1826.33 498.644 C 1825.3 511.894 1822.29 526.933 1823.23 540.096 C 1824.72 561.111 1839.52 583.995 1848.14 603.164 C 1851.68 611.047 1854.53 619.271 1857.51 627.383 C 1872.44 668.087 1885.78 708.788 1895.73 751.019 C 1925.51 877.518 1927.46 1010.4 1908.96 1138.69 A 961.234 961.234 0 0 1 1896.66 1204.37 C 1893.08 1220.17 1887.21 1237.54 1886.4 1253.69 C 1894.86 1259.39 1903.84 1264.31 1912.02 1270.4 C 1941.85 1292.61 1959.27 1322.64 1966.29 1358.88 C 1973.59 1396.51 1970.38 1442.8 1970.29 1481.6 L 1970.17 1662.48 L 1970.58 1790.14 C 1970.63 1813.58 1972.11 1838.17 1969.34 1861.41 C 1966.83 1882.45 1960.34 1903.72 1948.34 1921.34 C 1928.33 1950.72 1898.19 1969.39 1863.48 1975.61 C 1834.73 1980.77 1797.64 1978.17 1768.13 1978.16 L 1599.64 1978.07 L 1390.59 1978.07 C 1353.47 1978.08 1311.35 1980.3 1274.81 1976.7 C 1249.4 1974.2 1222.89 1969.42 1201.57 1954.59 C 1190.07 1946.59 1180.79 1934.43 1168.76 1927.64 C 1168.4 1927.44 1168.04 1927.21 1167.67 1927 C 1151.62 1927.98 1135.61 1931.13 1119.62 1933 C 1081.63 1937.43 1043.08 1941.31 1004.81 1941.66 A 950.706 950.706 0 0 1 351.242 1694.16 A 987.146 987.146 0 0 1 55.9911 1203.69 C 45.9076 1164.63 39.4643 1133.94 34.4109 1093.75 C 33.3617 1085.41 31.7073 1076.85 31.0767 1068.5 C 31.0431 1068.05 31.0464 1067.6 31.0312 1067.16 C 29.1795 1060.49 29.1168 1052.31 28.3864 1045.37 C 26.9227 1031.45 25.4239 1017.6 23.2541 1003.77 C 19.6294 964.921 21.4458 922.843 29.0057 884.569 C 29.8935 872.507 31.993 860.298 33.561 848.296 A 1014.87 1014.87 0 0 1 93.5033 612.785 z M 725.681 843.846 C 704.577 843.4 686.088 844.813 670.066 860.425 C 662.52 867.777 656.686 879.056 654.872 889.519 C 652.416 903.682 653.919 920.352 653.923 934.801 L 653.991 1019.33 L 653.891 1319.56 C 653.981 1337.93 657.123 1351.32 670.621 1364.56 C 674.651 1368.52 679.312 1372.45 684.344 1375.04 C 684.213 1379.8 685.087 1381.51 688.282 1384.98 C 695.644 1392.96 707.304 1396.69 717.963 1396.96 C 753.734 1397.85 789.715 1396.94 825.509 1396.95 L 1044.83 1397.06 L 1148.31 1397.04 C 1163.89 1397.02 1182.05 1398.8 1197.28 1395.99 L 1197.67 1512.19 C 1197.71 1530.07 1199.3 1549.97 1197.39 1567.69 C 1198.32 1579.65 1197.86 1591.89 1197.91 1603.89 L 1197.83 1774.45 C 1198.49 1797.97 1194.59 1823.51 1198.33 1846.67 C 1199.11 1856.54 1200.15 1864.73 1203.78 1873.99 C 1210.65 1885.1 1219.39 1894.91 1230.43 1902.06 C 1244.58 1907.71 1258.3 1909.04 1273.46 1909.25 C 1401 1911.03 1528.77 1909 1656.34 1909.24 L 1785.7 1909.23 C 1807.96 1909.18 1831.98 1911.05 1853.93 1907.66 C 1866.85 1905.67 1878.24 1898.94 1887.46 1889.82 C 1896.67 1880.7 1904.69 1868.04 1906.84 1855.11 C 1909.44 1839.38 1907.88 1821.79 1907.91 1805.83 L 1908.02 1710 L 1908.01 1361.98 C 1905.51 1350.19 1900.41 1338.63 1892.53 1329.44 C 1879.21 1313.9 1861.61 1308.23 1841.79 1306.86 L 1838.5 1306.74 C 1834.53 1302.23 1836.81 1285.44 1837.02 1279.32 C 1835.5 1263.5 1835.53 1247.04 1835.17 1231.14 C 1834.67 1208.61 1832.53 1184.92 1837.76 1162.84 C 1832.29 1159.25 1833.25 1156.56 1832.42 1150.59 C 1827.58 1115.63 1816.54 1084.11 1800.68 1052.67 C 1800.83 1052.33 1801.02 1052 1801.15 1051.64 C 1804.87 1041.81 1808.77 953.979 1803.9 945.67 C 1801.88 942.218 1799.58 941.134 1795.84 940.174 C 1795.02 940.914 1794.32 941.819 1793.37 942.392 C 1787.52 945.938 1709.68 942.484 1694.44 945.078 C 1672.86 936.027 1657.38 925.878 1633.84 919.129 L 1602.29 911.589 C 1521.56 900.52 1448.19 914.962 1382.28 964.655 C 1356.34 984.212 1337.48 1007.6 1317.48 1032.76 C 1311.27 1019.81 1320.87 924.524 1312.14 896.516 C 1308.77 894.173 1306.95 892.558 1305.53 888.738 C 1302.15 878.784 1298.74 869.994 1291.51 862.044 C 1279.88 849.258 1265.1 844.497 1248.35 843.658 C 1246.96 842.898 1247.78 843.431 1246.08 841.823 C 1245.9 827.768 1242.9 815.485 1241.4 801.74 C 1240.22 790.923 1240.95 779.445 1241.02 768.555 L 1239.96 768.89 C 1239.86 751.209 1238.24 733.533 1237.91 715.842 C 1236.24 706.251 1235.43 696.212 1233.05 686.779 A 267.02 267.02 0 0 0 1128.81 534.013 A 256.604 256.604 0 0 0 935.445 491.656 A 260.053 260.053 0 0 0 769.679 599.394 C 714.972 679.134 726.649 754.072 725.681 843.846 z"/>
<path transform="translate(0,0)" fill="rgb(185,188,199)" d="M 382.734 1126.19 C 383.919 1133.89 384.877 1140.13 382.364 1147.73 A 1783.43 1783.43 0 0 0 377.18 1129.88 C 378.533 1128.09 380.774 1127.25 382.734 1126.19 z"/>
<path transform="translate(0,0)" fill="rgb(222,211,223)" d="M 306.684 1555.81 C 315.703 1565.59 328.968 1577.72 336.12 1588.36 C 336.299 1588.87 336.463 1589.39 336.656 1589.9 C 338.196 1593.98 341.918 1596.57 343.564 1600.65 L 341.959 1601.15 L 337.487 1597.09 L 336.503 1597.61 C 328.977 1592.64 306.447 1565.89 302.436 1557.73 L 306.684 1555.81 z"/>
<path transform="translate(0,0)" fill="rgb(185,188,199)" d="M 23.2541 1003.77 C 19.6294 964.921 21.4458 922.843 29.0057 884.569 C 28.986 895.318 29.778 906.024 29.7797 916.756 C 29.7842 945.311 29.089 973.769 29.6448 1002.34 C 30.0446 1022.9 32.3589 1047.03 31.0312 1067.16 C 29.1795 1060.49 29.1168 1052.31 28.3864 1045.37 C 26.9227 1031.45 25.4239 1017.6 23.2541 1003.77 z"/>
<path transform="translate(0,0)" fill="rgb(214,46,69)" d="M 1602.29 911.589 C 1604.2 903.36 1600.02 892.517 1607.37 885.887 C 1611.21 882.419 1619.48 881.917 1624.54 881.513 C 1636.36 880.571 1648.6 881.164 1660.46 881.16 L 1727.76 881.193 L 1788.68 881.272 C 1800.07 881.295 1811.75 880.724 1823.09 881.807 C 1818.24 889.934 1815.83 900.375 1810.78 907.899 C 1800.59 903.501 1675.65 904.656 1657.7 905.884 C 1654.34 906.114 1651.18 906.604 1648.07 907.928 C 1642.53 910.281 1637.51 914.399 1633.84 919.129 L 1602.29 911.589 z"/>
<path transform="translate(0,0)" fill="rgb(251,190,136)" d="M 1633.84 919.129 C 1637.51 914.399 1642.53 910.281 1648.07 907.928 C 1651.18 906.604 1654.34 906.114 1657.7 905.884 C 1675.65 904.656 1800.59 903.501 1810.78 907.899 C 1806.45 919.042 1800.22 929.226 1795.84 940.174 C 1795.02 940.914 1794.32 941.819 1793.37 942.392 C 1787.52 945.938 1709.68 942.484 1694.44 945.078 C 1672.86 936.027 1657.38 925.878 1633.84 919.129 z"/>
<path transform="translate(0,0)" fill="rgb(185,188,199)" d="M 1857.52 900.374 C 1857.93 903.584 1858.07 906.649 1858.18 909.876 C 1858.24 911.421 1858.18 910.853 1858.86 912.437 C 1862.58 911.719 1863.88 911.116 1867.5 912.473 C 1870.56 915.663 1872.43 919.086 1873.4 923.435 C 1877.56 941.994 1875.05 987.468 1874.61 1008.8 C 1873.65 1054.89 1870.33 1100.07 1862.81 1145.6 A 1122.32 1122.32 0 0 1 1853 1198.36 C 1848.44 1219.76 1841.53 1240.5 1842.81 1262.62 C 1842.75 1262.88 1842.68 1263.15 1842.62 1263.41 C 1841.06 1271.04 1842.04 1280.47 1841.68 1288.41 C 1837.77 1282.34 1840.7 1272.42 1838.66 1264.91 C 1836.83 1267.75 1837.33 1275.64 1837.02 1279.32 C 1835.5 1263.5 1835.53 1247.04 1835.17 1231.14 C 1834.67 1208.61 1832.53 1184.92 1837.76 1162.84 C 1848.44 1113.57 1857.12 1064.98 1857.91 1014.4 A 2520.48 2520.48 0 0 0 1857.65 945.75 C 1857.4 931.115 1856.52 916.116 1857.44 901.505 L 1857.52 900.374 z"/>
<path transform="translate(0,0)" fill="rgb(173,21,53)" d="M 1823.09 881.807 C 1832.21 881.262 1843.14 880.033 1850.51 886.715 C 1854.54 890.366 1856.34 895.208 1857.52 900.374 L 1857.44 901.505 C 1856.52 916.116 1857.4 931.115 1857.65 945.75 A 2520.48 2520.48 0 0 1 1857.91 1014.4 C 1857.12 1064.98 1848.44 1113.57 1837.76 1162.84 C 1832.29 1159.25 1833.25 1156.56 1832.42 1150.59 C 1827.58 1115.63 1816.54 1084.11 1800.68 1052.67 C 1800.83 1052.33 1801.02 1052 1801.15 1051.64 C 1804.87 1041.81 1808.77 953.979 1803.9 945.67 C 1801.88 942.218 1799.58 941.134 1795.84 940.174 C 1800.22 929.226 1806.45 919.042 1810.78 907.899 C 1815.83 900.375 1818.24 889.934 1823.09 881.807 z"/>
<path transform="translate(0,0)" fill="rgb(185,188,199)" d="M 1340.36 645.093 C 1370.53 653.955 1402.43 667.577 1432.34 678.376 L 1623.6 747.11 A 2900.73 2900.73 0 0 1 1672.6 765.21 C 1685.13 769.998 1698.68 776.56 1711.93 778.815 A 22.2359 22.2359 0 0 0 1729.3 774.634 C 1734.86 770.403 1736.21 764.023 1737.51 757.486 C 1740.27 743.597 1740.67 728.701 1742.12 714.578 A 6728.15 6728.15 0 0 0 1751.14 621.366 L 1769.11 434.649 C 1772.78 394.647 1775.14 354.341 1779.58 314.432 C 1783.59 314.612 1787.2 314.753 1790.25 317.777 C 1793.97 321.451 1794.35 327.973 1794.33 332.857 C 1794.3 348.282 1792.16 364.13 1790.87 379.519 L 1781.84 478.138 L 1756.22 764.835 C 1754.9 778.794 1755.07 789.32 1744.04 799.338 C 1734.91 802.27 1728.25 801.941 1719.1 799.488 C 1702.05 794.918 1685.44 788.018 1668.9 781.868 L 1603.03 757.718 C 1548.85 737.838 1494.35 719.105 1440.3 698.795 A 1121.41 1121.41 0 0 0 1388.16 680.545 C 1376.78 676.791 1364.09 673.582 1353.39 668.234 C 1347.62 665.344 1343.73 659.93 1341.68 653.89 C 1340.64 650.856 1340.31 648.276 1340.36 645.093 z"/>
<path transform="translate(0,0)" fill="url(#Gradient1)" d="M 336.12 1588.36 C 367.55 1620.29 399.21 1651.08 434.272 1679.1 A 876.863 876.863 0 0 0 979.056 1871.38 A 907.234 907.234 0 0 0 1148.77 1857.67 C 1165.26 1854.78 1182.4 1851.95 1198.33 1846.67 C 1199.11 1856.54 1200.15 1864.73 1203.78 1873.99 C 1189.04 1879.97 1169.49 1881.98 1153.75 1884.38 C 1089.55 1894.19 1024.03 1900.26 959.048 1896.45 C 904.755 1893.26 851.416 1887.11 798.264 1875.21 C 617.071 1834.65 459.348 1735.7 336.503 1597.61 L 337.487 1597.09 L 341.959 1601.15 L 343.564 1600.65 C 341.918 1596.57 338.196 1593.98 336.656 1589.9 C 336.463 1589.39 336.299 1588.87 336.12 1588.36 z"/>
<path transform="translate(0,0)" fill="rgb(185,188,199)" d="M 1908.01 1361.98 C 1912.97 1367.37 1918.27 1373.08 1919.37 1380.6 C 1921.88 1397.74 1920.12 1417.3 1920.09 1434.69 L 1920.05 1542.19 L 1919.91 1755.63 C 1919.83 1789.35 1921.08 1823.47 1919.63 1857.12 C 1918.65 1879.91 1914.91 1900.84 1897.37 1916.94 C 1889.28 1924.37 1875.97 1929.17 1865.15 1930.27 C 1836.8 1933.16 1802.57 1931.11 1773.5 1931.1 L 1599.72 1931.06 L 1385.32 1931.09 L 1317.48 1931.11 C 1303.7 1931.11 1289.65 1931.59 1275.91 1930.64 C 1259.44 1929.49 1245.68 1924.89 1234.71 1912.01 C 1231.81 1908.61 1230.69 1906.54 1230.43 1902.06 C 1244.58 1907.71 1258.3 1909.04 1273.46 1909.25 C 1401 1911.03 1528.77 1909 1656.34 1909.24 L 1785.7 1909.23 C 1807.96 1909.18 1831.98 1911.05 1853.93 1907.66 C 1866.85 1905.67 1878.24 1898.94 1887.46 1889.82 C 1896.67 1880.7 1904.69 1868.04 1906.84 1855.11 C 1909.44 1839.38 1907.88 1821.79 1907.91 1805.83 L 1908.02 1710 L 1908.01 1361.98 z"/>
<path transform="translate(0,0)" fill="rgb(252,83,93)" d="M 577.626 1456.3 A 554.273 554.273 0 0 0 657.167 1513.51 A 627.003 627.003 0 0 0 1025.77 1603.27 A 614.569 614.569 0 0 0 1138.96 1585.05 C 1158.59 1579.85 1177.77 1572.95 1197.39 1567.69 C 1198.32 1579.65 1197.86 1591.89 1197.91 1603.89 L 1197.11 1603.58 L 1196.95 1634.13 C 1135.07 1655.33 1070.67 1664.31 1005.62 1668.04 C 996.834 1667.17 987.456 1667.88 978.602 1667.86 A 709.688 709.688 0 0 1 941.131 1666.68 A 677.713 677.713 0 0 1 601.5 1550.95 C 582.038 1537.83 556.464 1520.45 541.017 1503.01 C 536.434 1497.84 535.268 1495.54 535.711 1488.6 C 535.867 1488.44 536.07 1488.32 536.18 1488.13 C 538.161 1484.65 540.074 1477.95 543.311 1475.48 C 546.7 1472.88 550.466 1472.96 554.531 1473.12 C 556.277 1473.08 558.212 1473.05 559.878 1472.47 C 566.823 1470.09 574.196 1462.6 577.626 1456.3 z"/>
<path transform="translate(0,0)" fill="rgb(214,46,69)" d="M 577.626 1456.3 A 554.273 554.273 0 0 0 657.167 1513.51 A 627.003 627.003 0 0 0 1025.77 1603.27 A 614.569 614.569 0 0 0 1138.96 1585.05 C 1158.59 1579.85 1177.77 1572.95 1197.39 1567.69 C 1198.32 1579.65 1197.86 1591.89 1197.91 1603.89 L 1197.11 1603.58 C 1196.96 1602.14 1196.64 1600.74 1196.36 1599.32 C 1188.87 1598.32 1146.66 1613.02 1135.88 1615.52 C 1089.48 1626.28 1043.93 1632.26 996.294 1632.92 C 870.621 1634.67 742.009 1602.2 636.249 1533.15 C 612.254 1517.48 589.401 1500.79 567.506 1482.3 C 564.268 1479.57 560.061 1475.09 556.118 1473.65 C 555.594 1473.46 555.06 1473.29 554.531 1473.12 C 556.277 1473.08 558.212 1473.05 559.878 1472.47 C 566.823 1470.09 574.196 1462.6 577.626 1456.3 z"/>
<path transform="translate(0,0)" fill="rgb(114,3,33)" d="M 1626.55 371.373 C 1627.41 371.94 1629.05 373.161 1630.32 372.732 C 1636.25 370.717 1645.18 361.537 1650.48 357.433 A 7342.92 7342.92 0 0 1 1710.68 311.839 C 1722.04 303.227 1733.83 292.455 1746.39 285.769 C 1750.75 283.447 1755.18 281.717 1760.19 282.436 C 1768.39 283.614 1774.21 289.452 1778.77 295.89 C 1779.51 302.195 1779.9 308.088 1779.58 314.432 C 1775.14 354.341 1772.78 394.647 1769.11 434.649 L 1751.14 621.366 A 6728.15 6728.15 0 0 1 1742.12 714.578 C 1740.67 728.701 1740.27 743.597 1737.51 757.486 C 1736.21 764.023 1734.86 770.403 1729.3 774.634 A 22.2359 22.2359 0 0 1 1711.93 778.815 C 1698.68 776.56 1685.13 769.998 1672.6 765.21 A 2900.73 2900.73 0 0 0 1623.6 747.11 L 1432.34 678.376 C 1402.43 667.577 1370.53 653.955 1340.36 645.093 C 1333.81 640.855 1325.42 641.209 1319.76 634.715 C 1315.94 630.33 1314.22 624.356 1314.63 618.594 C 1314.97 613.881 1316.69 609.682 1319.75 606.082 C 1326.94 597.606 1337.46 590.906 1346.27 584.15 L 1389.11 551.475 C 1398.44 544.463 1408.31 537.775 1417.12 530.146 L 1417.91 529.454 L 1418.43 528.4 C 1415.22 522.023 1406.52 515.388 1401.35 510.274 L 1403.21 509.691 C 1409.44 513.419 1426.89 531.978 1430.06 538.285 C 1430.83 539.82 1431.26 539.719 1432.76 540.494 C 1434.26 539.096 1435.82 537.415 1437.67 536.503 C 1440.27 535.231 1442.16 535.159 1443.46 532.348 C 1434.87 520.598 1423.17 511.466 1413.81 500.466 L 1414.3 498.428 A 546.435 546.435 0 0 1 1446.31 532.793 C 1432.39 543.215 1337.57 609.937 1333.43 617.609 C 1333.04 618.337 1333.16 619.242 1333.03 620.058 C 1334.97 622.364 1337.19 623.545 1340.3 623.782 C 1341.23 623.852 1342.54 623.806 1343.41 623.795 C 1347.06 620.225 1352.75 617.818 1357.1 615.096 C 1359.35 613.685 1367.02 608.978 1367.64 606.751 C 1367.92 605.741 1366.6 603.715 1367.02 601.853 C 1378.62 602.712 1424.99 621.523 1438.5 626.466 A 15433.8 15433.8 0 0 0 1584.34 678.901 C 1614.24 689.548 1643.37 701.685 1674.33 708.975 C 1681.82 705.115 1688.04 699.758 1691.76 692.083 C 1694.55 686.322 1695.32 679.731 1696.17 673.45 C 1698.01 659.806 1698.63 646 1699.93 632.295 L 1708.89 542.686 L 1718.79 443.415 C 1722.06 412.594 1726.19 381.536 1727.83 350.58 C 1728.01 347.126 1727.88 344.373 1726.73 341.105 C 1724.38 339.251 1723.55 338.18 1722.44 335.362 C 1721.44 332.81 1720.57 331.267 1718.81 329.173 C 1690.09 351.012 1661.78 374.54 1631.9 394.683 C 1626.06 387.681 1616.59 381.775 1609.84 375.333 C 1616.14 375.21 1621.44 375.61 1626.55 371.373 z"/>
<path transform="translate(0,0)" fill="rgb(214,46,69)" d="M 1718.81 329.173 C 1722.52 324.058 1743.86 309.196 1750 305.325 C 1752.51 303.742 1755.95 301.101 1758.86 301.754 C 1761.8 307.254 1759.52 316.333 1758.82 322.329 C 1751.46 330.852 1737.63 338.559 1726.73 341.105 C 1724.38 339.251 1723.55 338.18 1722.44 335.362 C 1721.44 332.81 1720.57 331.267 1718.81 329.173 z"/>
<path transform="translate(0,0)" fill="rgb(173,21,53)" d="M 1726.73 341.105 C 1737.63 338.559 1751.46 330.852 1758.82 322.329 C 1758.86 333.669 1757.04 345.188 1755.91 356.472 L 1750.5 413.625 L 1731.18 608.749 C 1727.85 640.606 1725.6 672.623 1722.44 704.516 C 1720.68 722.236 1719.51 741.01 1715.1 758.292 C 1692 752.034 1670.26 743.344 1647.83 735.09 L 1538.73 695.1 C 1486.98 676.62 1435.12 658.796 1383.96 638.719 C 1370.65 633.498 1356.29 629.893 1343.41 623.795 C 1347.06 620.225 1352.75 617.818 1357.1 615.096 C 1359.35 613.685 1367.02 608.978 1367.64 606.751 C 1367.92 605.741 1366.6 603.715 1367.02 601.853 C 1378.62 602.712 1424.99 621.523 1438.5 626.466 A 15433.8 15433.8 0 0 0 1584.34 678.901 C 1614.24 689.548 1643.37 701.685 1674.33 708.975 C 1681.82 705.115 1688.04 699.758 1691.76 692.083 C 1694.55 686.322 1695.32 679.731 1696.17 673.45 C 1698.01 659.806 1698.63 646 1699.93 632.295 L 1708.89 542.686 L 1718.79 443.415 C 1722.06 412.594 1726.19 381.536 1727.83 350.58 C 1728.01 347.126 1727.88 344.373 1726.73 341.105 z"/>
<path transform="translate(0,0)" fill="rgb(173,21,53)" d="M 454.124 1420.66 L 453.258 1419.77 C 448.282 1414.6 443.943 1408.06 439.535 1402.36 C 428.613 1388.24 417.963 1374.06 408.008 1359.24 C 392.936 1336.78 380.4 1313.59 368.172 1289.51 C 312.243 1179.37 290.332 1069.65 293.428 946.681 C 298.136 759.718 378.409 596.402 512.986 468.647 C 637.1 350.825 815.246 283.748 986.192 288.313 A 684.074 684.074 0 0 1 1366.43 412.775 C 1377.18 420.432 1404.88 437.478 1412.23 446.254 C 1414.89 449.445 1415.27 456.098 1414.77 460.076 C 1413.61 469.456 1405.93 475.64 1398.98 481.08 C 1404.08 486.821 1409.72 492.273 1414.3 498.428 L 1413.81 500.466 C 1423.17 511.466 1434.87 520.598 1443.46 532.348 C 1442.16 535.159 1440.27 535.231 1437.67 536.503 C 1435.82 537.415 1434.26 539.096 1432.76 540.494 C 1431.26 539.719 1430.83 539.82 1430.06 538.285 C 1426.89 531.978 1409.44 513.419 1403.21 509.691 L 1401.35 510.274 C 1406.52 515.388 1415.22 522.023 1418.43 528.4 L 1417.91 529.454 C 1415.4 527.962 1413.91 528.251 1411.1 528.446 C 1405.15 525.949 1380.48 501.235 1371.57 494.484 C 1349.86 478.042 1325.79 462.761 1301.89 449.741 C 1137.73 360.326 933.083 351.492 760.623 421.98 C 607.84 484.426 482.25 613.202 418.883 764.892 A 618.172 618.172 0 0 0 371.758 1031.95 C 372.421 1046.22 372.864 1060.71 374.63 1074.89 C 375.978 1085.72 378.934 1097.26 379.269 1108.12 C 380.986 1114.01 381.295 1120.22 382.734 1126.19 C 380.774 1127.25 378.533 1128.09 377.18 1129.88 A 1783.43 1783.43 0 0 1 382.364 1147.73 C 417.693 1272.2 480.226 1370.87 577.626 1456.3 C 574.196 1462.6 566.823 1470.09 559.878 1472.47 C 558.212 1473.05 556.277 1473.08 554.531 1473.12 C 550.466 1472.96 546.7 1472.88 543.311 1475.48 C 540.074 1477.95 538.161 1484.65 536.18 1488.13 C 536.07 1488.32 535.867 1488.44 535.711 1488.6 C 533.942 1490.99 532.624 1492.81 529.972 1494.32 C 521.237 1493.28 485.615 1455.38 478.87 1447.79 C 471.956 1440.01 462.087 1425.95 454.124 1420.66 z"/>
<path transform="translate(0,0)" fill="rgb(185,188,199)" d="M 373.375 1114.79 C 367.668 1098.04 365.252 1078.86 362.762 1061.39 A 618.838 618.838 0 0 1 480.082 598.605 A 625.941 625.941 0 0 1 894.709 352.502 A 627.151 627.151 0 0 1 1324.15 449.992 C 1339.32 459.92 1354.79 470.552 1368.76 482.11 C 1379.54 491.03 1389.46 501.392 1400.64 509.754 L 1401.35 510.274 C 1406.52 515.388 1415.22 522.023 1418.43 528.4 L 1417.91 529.454 C 1415.4 527.962 1413.91 528.251 1411.1 528.446 C 1405.15 525.949 1380.48 501.235 1371.57 494.484 C 1349.86 478.042 1325.79 462.761 1301.89 449.741 C 1137.73 360.326 933.083 351.492 760.623 421.98 C 607.84 484.426 482.25 613.202 418.883 764.892 A 618.172 618.172 0 0 0 371.758 1031.95 C 372.421 1046.22 372.864 1060.71 374.63 1074.89 C 375.978 1085.72 378.934 1097.26 379.269 1108.12 C 380.986 1114.01 381.295 1120.22 382.734 1126.19 C 380.774 1127.25 378.533 1128.09 377.18 1129.88 C 375.655 1124.86 374.422 1119.93 373.375 1114.79 z"/>
<path transform="translate(0,0)" fill="rgb(187,198,204)" d="M 373.375 1114.79 C 374.065 1113.69 373.575 1114.17 375 1113.52 C 375.459 1115.42 375.864 1117.25 376.099 1119.18 L 376.297 1120.87 C 376.572 1120.12 377.167 1119.03 377.014 1118.21 C 376.661 1116.34 376.199 1115.08 376.158 1113.06 L 377.422 1112.87 L 378.915 1116.35 C 379.627 1114.69 378.34 1111.44 377.929 1109.61 L 379.269 1108.12 C 380.986 1114.01 381.295 1120.22 382.734 1126.19 C 380.774 1127.25 378.533 1128.09 377.18 1129.88 C 375.655 1124.86 374.422 1119.93 373.375 1114.79 z"/>
<path transform="translate(0,0)" fill="url(#Gradient2)" d="M 189.762 1377.69 C 190.131 1377.2 190.508 1376.73 190.868 1376.24 C 192.012 1374.69 192.615 1373.27 193.308 1371.49 C 196.241 1363.96 202.855 1354.73 210.403 1351.53 C 215.382 1349.41 222.272 1349.21 227.281 1351.29 C 231.905 1353.2 235.225 1356.47 238.091 1360.47 C 249.506 1376.4 258.401 1394.85 268.48 1411.71 A 856.01 856.01 0 0 0 326.873 1495.92 C 334.006 1505.04 341.159 1514.75 349.259 1523.03 C 360.221 1511.32 372.738 1500.62 384.194 1489.33 C 407.519 1466.34 430.32 1443.16 454.124 1420.66 C 462.087 1425.95 471.956 1440.01 478.87 1447.79 C 485.615 1455.38 521.237 1493.28 529.972 1494.32 C 532.624 1492.81 533.942 1490.99 535.711 1488.6 C 535.268 1495.54 536.434 1497.84 541.017 1503.01 C 556.464 1520.45 582.038 1537.83 601.5 1550.95 A 677.713 677.713 0 0 0 941.131 1666.68 A 709.688 709.688 0 0 0 978.602 1667.86 C 987.456 1667.88 996.834 1667.17 1005.62 1668.04 C 1070.67 1664.31 1135.07 1655.33 1196.95 1634.13 L 1197.11 1603.58 L 1197.91 1603.89 L 1197.83 1774.45 C 1198.49 1797.97 1194.59 1823.51 1198.33 1846.67 C 1182.4 1851.95 1165.26 1854.78 1148.77 1857.67 A 907.234 907.234 0 0 1 979.056 1871.38 A 876.863 876.863 0 0 1 434.272 1679.1 C 399.21 1651.08 367.55 1620.29 336.12 1588.36 C 328.968 1577.72 315.703 1565.59 306.684 1555.81 C 295.686 1543.77 285.957 1530.33 276.1 1517.34 C 242.144 1472.61 214.108 1428.34 189.762 1377.69 z"/>
<path transform="translate(0,0)" fill="rgb(173,21,53)" d="M 1197.11 1603.58 L 1197.91 1603.89 L 1197.83 1774.45 C 1196.76 1780.25 1196.9 1786.04 1196.91 1791.91 C 1173.08 1794.79 1150.2 1801.17 1126.58 1805.01 C 1057.18 1816.3 988.345 1821.39 918.105 1815.66 C 897.886 1814.01 876.071 1813.65 856.482 1808.35 C 857.794 1808.18 859.355 1808.09 860.607 1807.67 C 873.62 1803.27 942.981 1730.29 957.623 1715.92 C 966.125 1707.57 1001.96 1676.44 1005.62 1668.04 C 1070.67 1664.31 1135.07 1655.33 1196.95 1634.13 L 1197.11 1603.58 z"/>
<path transform="translate(0,0)" fill="rgb(214,46,69)" d="M 454.124 1420.66 C 462.087 1425.95 471.956 1440.01 478.87 1447.79 C 485.615 1455.38 521.237 1493.28 529.972 1494.32 C 532.624 1492.81 533.942 1490.99 535.711 1488.6 C 535.268 1495.54 536.434 1497.84 541.017 1503.01 C 556.464 1520.45 582.038 1537.83 601.5 1550.95 A 677.713 677.713 0 0 0 941.131 1666.68 A 709.688 709.688 0 0 0 978.602 1667.86 C 987.456 1667.88 996.834 1667.17 1005.62 1668.04 C 1001.96 1676.44 966.125 1707.57 957.623 1715.92 C 942.981 1730.29 873.62 1803.27 860.607 1807.67 C 859.355 1808.09 857.794 1808.18 856.482 1808.35 C 850.14 1806.03 841.544 1805.84 834.803 1804.74 C 824.793 1803.12 814.864 1800.95 804.962 1798.77 A 825.9 825.9 0 0 1 510.897 1670.88 C 479.047 1648.43 449.063 1623.11 420.155 1597.02 C 407.01 1585.16 393.837 1573.22 381.768 1560.25 C 375.662 1553.69 370.258 1546.59 364.283 1539.95 C 359.307 1534.42 353.265 1529.3 349.259 1523.03 C 360.221 1511.32 372.738 1500.62 384.194 1489.33 C 407.519 1466.34 430.32 1443.16 454.124 1420.66 z"/>
<path transform="translate(0,0)" fill="url(#Gradient3)" d="M 189.762 1377.69 C 178.693 1361.32 170.415 1340.84 162.802 1322.66 A 877.046 877.046 0 0 1 100.305 1092.55 C 95.008 1051.37 93.6905 1010.52 93.814 969.059 C 93.902 939.527 94.4735 910.168 97.1725 880.733 A 860.411 860.411 0 0 1 272.508 433.444 A 884.189 884.189 0 0 1 865.539 92.4108 C 1106.16 61.9043 1335.04 129.302 1526.02 277.492 C 1539.69 288.323 1621.33 361.648 1626.55 371.373 C 1621.44 375.61 1616.14 375.21 1609.84 375.333 C 1616.59 381.775 1626.06 387.681 1631.9 394.683 C 1661.78 374.54 1690.09 351.012 1718.81 329.173 C 1720.57 331.267 1721.44 332.81 1722.44 335.362 C 1723.55 338.18 1724.38 339.251 1726.73 341.105 C 1727.88 344.373 1728.01 347.126 1727.83 350.58 C 1726.19 381.536 1722.06 412.594 1718.79 443.415 L 1708.89 542.686 L 1699.93 632.295 C 1698.63 646 1698.01 659.806 1696.17 673.45 C 1695.32 679.731 1694.55 686.322 1691.76 692.083 C 1688.04 699.758 1681.82 705.115 1674.33 708.975 C 1643.37 701.685 1614.24 689.548 1584.34 678.901 A 15433.8 15433.8 0 0 1 1438.5 626.466 C 1424.99 621.523 1378.62 602.712 1367.02 601.853 C 1366.6 603.715 1367.92 605.741 1367.64 606.751 C 1367.02 608.978 1359.35 613.685 1357.1 615.096 C 1352.75 617.818 1347.06 620.225 1343.41 623.795 C 1342.54 623.806 1341.23 623.852 1340.3 623.782 C 1337.19 623.545 1334.97 622.364 1333.03 620.058 C 1333.16 619.242 1333.04 618.337 1333.43 617.609 C 1337.57 609.937 1432.39 543.215 1446.31 532.793 A 546.435 546.435 0 0 0 1414.3 498.428 C 1409.72 492.273 1404.08 486.821 1398.98 481.08 C 1405.93 475.64 1413.61 469.456 1414.77 460.076 C 1415.27 456.098 1414.89 449.445 1412.23 446.254 C 1404.88 437.478 1377.18 420.432 1366.43 412.775 A 684.074 684.074 0 0 0 986.192 288.313 C 815.246 283.748 637.1 350.825 512.986 468.647 C 378.409 596.402 298.136 759.718 293.428 946.681 C 290.332 1069.65 312.243 1179.37 368.172 1289.51 C 380.4 1313.59 392.936 1336.78 408.008 1359.24 C 417.963 1374.06 428.613 1388.24 439.535 1402.36 C 443.943 1408.06 448.282 1414.6 453.258 1419.77 L 454.124 1420.66 C 430.32 1443.16 407.519 1466.34 384.194 1489.33 C 372.738 1500.62 360.221 1511.32 349.259 1523.03 C 341.159 1514.75 334.006 1505.04 326.873 1495.92 A 856.01 856.01 0 0 1 268.48 1411.71 C 258.401 1394.85 249.506 1376.4 238.091 1360.47 C 235.225 1356.47 231.905 1353.2 227.281 1351.29 C 222.272 1349.21 215.382 1349.41 210.403 1351.53 C 202.855 1354.73 196.241 1363.96 193.308 1371.49 C 192.615 1373.27 192.012 1374.69 190.868 1376.24 C 190.508 1376.73 190.131 1377.2 189.762 1377.69 z"/>
<path transform="translate(0,0)" fill="rgb(251,190,136)" d="M 1350.33 203.009 C 1352.69 202.874 1355.09 202.73 1357.44 203.12 C 1363.35 204.106 1368.78 207.388 1371.96 212.529 A 18.2131 18.2131 0 0 1 1373.96 227.461 C 1371.96 234.179 1367.16 238.081 1361.14 241.172 C 1357.78 241.981 1354.21 242.633 1350.78 241.943 C 1346.36 241.053 1342.5 238.502 1340.1 234.669 C 1337.14 229.923 1336.47 223.948 1337.69 218.543 C 1339.41 210.929 1343.94 207.009 1350.33 203.009 z"/>
<path transform="translate(0,0)" fill="rgb(173,21,53)" d="M 1526.02 277.492 C 1539.69 288.323 1621.33 361.648 1626.55 371.373 C 1621.44 375.61 1616.14 375.21 1609.84 375.333 C 1616.59 381.775 1626.06 387.681 1631.9 394.683 C 1625.32 399.836 1613.13 406.353 1604.85 406.952 C 1600.33 407.28 1597.41 404.557 1594.11 401.866 C 1580.42 390.716 1568.5 377.25 1555.57 365.22 C 1541.42 352.044 1522.83 338.42 1511.09 323.341 C 1507.64 318.911 1504.89 313.881 1504.48 308.188 C 1503.29 291.915 1516.68 288.315 1525.48 278.145 C 1525.66 277.931 1525.84 277.71 1526.02 277.492 z"/>
<path transform="translate(0,0)" fill="rgb(251,190,136)" d="M 973.745 97.4746 C 1012.1 96.4191 1063.31 100.512 1101.27 106.639 C 1125.19 110.499 1247.99 136.285 1259.56 153.667 C 1262.11 157.499 1262.78 162.102 1261.82 166.57 C 1259.96 175.251 1254.53 180.644 1247.25 185.139 C 1228.5 182.136 1210.27 174.527 1192.16 168.919 A 549.389 549.389 0 0 0 1132.77 154.54 A 832.207 832.207 0 0 0 676.608 196.764 A 834.534 834.534 0 0 0 216.49 640.248 A 802.102 802.102 0 0 0 164.836 806.075 C 162.519 818.041 160.207 830.145 158.785 842.252 C 157.542 852.834 157.356 863.901 155.249 874.335 C 154.706 877.026 153.911 881.502 151.971 883.595 C 150.276 885.423 146.693 886.045 144.317 886.256 C 139.641 886.671 134.939 886.397 131.295 883.13 C 128.043 880.215 126.303 876.61 126.084 872.251 C 125.161 853.871 134.04 810.565 137.808 790.989 A 871.908 871.908 0 0 1 364.333 356.573 C 408.099 310.557 459.332 270.483 512.801 236.357 C 656.266 144.793 803.531 101.643 973.745 97.4746 z"/>
<path transform="translate(0,0)" fill="rgb(20,24,43)" d="M 725.681 843.846 C 726.649 754.072 714.972 679.134 769.679 599.394 A 260.053 260.053 0 0 1 935.445 491.656 A 256.604 256.604 0 0 1 1128.81 534.013 A 267.02 267.02 0 0 1 1233.05 686.779 C 1235.43 696.212 1236.24 706.251 1237.91 715.842 C 1238.24 733.533 1239.86 751.209 1239.96 768.89 L 1241.02 768.555 C 1240.95 779.445 1240.22 790.923 1241.4 801.74 C 1242.9 815.485 1245.9 827.768 1246.08 841.823 C 1247.78 843.431 1246.96 842.898 1248.35 843.658 C 1265.1 844.497 1279.88 849.258 1291.51 862.044 C 1298.74 869.994 1302.15 878.784 1305.53 888.738 C 1306.95 892.558 1308.77 894.173 1312.14 896.516 C 1320.87 924.524 1311.27 1019.81 1317.48 1032.76 C 1337.48 1007.6 1356.34 984.212 1382.28 964.655 C 1448.19 914.962 1521.56 900.52 1602.29 911.589 L 1633.84 919.129 C 1657.38 925.878 1672.86 936.027 1694.44 945.078 C 1709.68 942.484 1787.52 945.938 1793.37 942.392 C 1794.32 941.819 1795.02 940.914 1795.84 940.174 C 1799.58 941.134 1801.88 942.218 1803.9 945.67 C 1808.77 953.979 1804.87 1041.81 1801.15 1051.64 C 1801.02 1052 1800.83 1052.33 1800.68 1052.67 C 1816.54 1084.11 1827.58 1115.63 1832.42 1150.59 C 1833.25 1156.56 1832.29 1159.25 1837.76 1162.84 C 1832.53 1184.92 1834.67 1208.61 1835.17 1231.14 C 1835.53 1247.04 1835.5 1263.5 1837.02 1279.32 C 1836.81 1285.44 1834.53 1302.23 1838.5 1306.74 L 1841.79 1306.86 C 1861.61 1308.23 1879.21 1313.9 1892.53 1329.44 C 1900.41 1338.63 1905.51 1350.19 1908.01 1361.98 L 1908.02 1710 L 1907.91 1805.83 C 1907.88 1821.79 1909.44 1839.38 1906.84 1855.11 C 1904.69 1868.04 1896.67 1880.7 1887.46 1889.82 C 1878.24 1898.94 1866.85 1905.67 1853.93 1907.66 C 1831.98 1911.05 1807.96 1909.18 1785.7 1909.23 L 1656.34 1909.24 C 1528.77 1909 1401 1911.03 1273.46 1909.25 C 1258.3 1909.04 1244.58 1907.71 1230.43 1902.06 C 1219.39 1894.91 1210.65 1885.1 1203.78 1873.99 C 1200.15 1864.73 1199.11 1856.54 1198.33 1846.67 C 1194.59 1823.51 1198.49 1797.97 1197.83 1774.45 L 1197.91 1603.89 C 1197.86 1591.89 1198.32 1579.65 1197.39 1567.69 C 1199.3 1549.97 1197.71 1530.07 1197.67 1512.19 L 1197.28 1395.99 C 1182.05 1398.8 1163.89 1397.02 1148.31 1397.04 L 1044.83 1397.06 L 825.509 1396.95 C 789.715 1396.94 753.734 1397.85 717.963 1396.96 C 707.304 1396.69 695.644 1392.96 688.282 1384.98 C 685.087 1381.51 684.213 1379.8 684.344 1375.04 C 679.312 1372.45 674.651 1368.52 670.621 1364.56 C 657.123 1351.32 653.981 1337.93 653.891 1319.56 L 653.991 1019.33 L 653.923 934.801 C 653.919 920.352 652.416 903.682 654.872 889.519 C 656.686 879.056 662.52 867.777 670.066 860.425 C 686.088 844.813 704.577 843.4 725.681 843.846 z M 838.315 843.144 L 934.048 843.186 C 948.095 843.279 963.279 842.267 977.205 843.847 L 1136.33 843.901 L 1134.38 812.535 C 1133.8 793.566 1133.28 773.97 1134.24 755.028 C 1135.09 748.547 1135.9 741.841 1135.62 735.297 C 1133.84 694.809 1110.92 658.901 1081.88 632.208 C 1080.62 632.403 1078.23 633.124 1077.06 632.956 C 1069.05 631.807 1058.11 623.657 1050.54 620.118 C 1045.7 617.857 1040.5 616.277 1035.41 614.715 C 975.21 596.268 904.48 619.578 867.358 670.522 C 835.902 713.69 838.887 757.55 839.071 808.04 C 839.114 819.66 839.65 831.583 838.315 843.144 z"/>
<path transform="translate(0,0)" fill="rgb(185,188,199)" d="M 1384.16 1260.37 L 1385.17 1260.11 C 1384.68 1276.69 1390.66 1294.11 1389.02 1307.55 C 1386.81 1307.49 1385.42 1307.24 1383.39 1306.37 C 1381.43 1291.99 1383.75 1274.98 1384.16 1260.37 z"/>
<path transform="translate(0,0)" fill="rgb(185,188,199)" d="M 1239.96 768.89 L 1241.02 768.555 C 1240.95 779.445 1240.22 790.923 1241.4 801.74 C 1242.9 815.485 1245.9 827.768 1246.08 841.823 C 1247.78 843.431 1246.96 842.898 1248.35 843.658 L 1238.19 843.804 C 1238.43 818.807 1240.19 793.932 1239.96 768.89 z"/>
<path transform="translate(0,0)" fill="rgb(185,188,199)" d="M 1305.53 888.738 C 1306.95 892.558 1308.77 894.173 1312.14 896.516 C 1320.87 924.524 1311.27 1019.81 1317.48 1032.76 C 1314.04 1039.92 1308.4 1047.01 1303.94 1053.65 C 1306.21 1035.49 1305.23 1016.54 1305.22 998.238 C 1305.18 961.815 1304.33 925.13 1305.53 888.738 z"/>
<path transform="translate(0,0)" fill="rgb(254,254,254)" d="M 745.482 699.934 C 747.146 689.282 750.033 678.605 753.322 668.35 A 238.044 238.044 0 0 1 871.406 529.791 C 929.945 499.802 996.935 497.075 1058.86 517.102 L 1058.08 518.839 C 1048.8 519.069 1037.96 515.047 1028.73 513.381 C 1020.18 511.838 1011.39 511.55 1002.73 511.141 A 246.789 246.789 0 0 0 810.129 588.8 C 776.407 624.278 764.336 653.765 751.153 699.666 C 750.054 700.837 750.542 700.235 749.458 701.837 L 748.62 703.094 L 745.482 699.934 z"/>
<path transform="translate(0,0)" fill="rgb(254,254,254)" d="M 1288.62 1159.18 C 1289.77 1150.2 1291.05 1141.18 1292.91 1132.31 A 259.115 259.115 0 0 1 1406.38 967.796 C 1468.67 927.198 1540.61 915.23 1613.09 930.603 L 1612.14 932.926 C 1602.75 934.102 1591.64 931.461 1582.1 930.922 C 1572.72 930.392 1563.13 930.997 1553.76 931.642 C 1468.99 937.481 1395.19 975.232 1342.81 1042.41 C 1324.75 1065.56 1309.17 1093.73 1300.74 1122.02 C 1298.17 1130.65 1293.93 1154.17 1289.8 1160.38 L 1288.62 1159.18 z"/>
<path transform="translate(0,0)" fill="url(#Gradient4)" d="M 1116.07 634.746 C 1122.15 635.407 1127.51 637.114 1132.63 640.522 C 1154.31 654.948 1163.85 687.953 1168.08 712.011 C 1170.72 727.096 1175.62 837.669 1171.07 844.222 C 1164.04 844.133 1157 844.296 1149.97 844.361 C 1149.47 819.784 1148.99 795.311 1149.11 770.717 C 1149.19 754.336 1150.58 737.047 1148.65 720.786 C 1146.25 700.393 1132.87 657.363 1118.77 642.651 C 1117.56 641.387 1116.84 640.718 1115.9 639.144 C 1114.9 637.475 1115.65 636.537 1116.07 634.746 z"/>
<path transform="translate(0,0)" fill="rgb(185,188,199)" d="M 1384.16 1260.37 C 1384.17 1248.56 1384.34 1236.73 1383.76 1224.93 C 1382.28 1194.87 1379.99 1169.47 1390.56 1140.61 A 175.293 175.293 0 0 1 1482.88 1040.45 C 1520.43 1023.31 1568.83 1020.27 1607.71 1034.8 C 1607.5 1038.38 1607.22 1041.97 1607.11 1045.55 C 1595.97 1044.51 1584.98 1042.56 1573.78 1041.97 C 1530.35 1039.68 1490.11 1051.31 1456.3 1079.25 C 1424.06 1105.91 1401.8 1139.68 1393.04 1181 C 1391.05 1190.37 1390.34 1199.87 1389.05 1209.34 C 1388.04 1216.71 1386.12 1223.99 1385.45 1231.39 C 1384.59 1240.82 1385.1 1250.64 1385.17 1260.11 L 1384.16 1260.37 z"/>
<path transform="translate(0,0)" fill="rgb(185,188,199)" d="M 829.835 843.985 C 829.662 842.424 829.499 840.85 829.434 839.281 C 828.684 821.183 829.728 802.78 829.638 784.642 C 829.549 766.851 828.353 748.43 830.154 730.737 C 833.295 699.901 848.835 668.233 869.589 645.456 A 151.716 151.716 0 0 1 976.561 595.329 C 1014.68 593.62 1053.56 606.435 1081.88 632.208 C 1080.62 632.403 1078.23 633.124 1077.06 632.956 C 1069.05 631.807 1058.11 623.657 1050.54 620.118 C 1045.7 617.857 1040.5 616.277 1035.41 614.715 C 975.21 596.268 904.48 619.578 867.358 670.522 C 835.902 713.69 838.887 757.55 839.071 808.04 C 839.114 819.66 839.65 831.583 838.315 843.144 L 934.048 843.186 C 948.095 843.279 963.279 842.267 977.205 843.847 C 928.246 845.39 878.841 844.046 829.835 843.985 z"/>
<path transform="translate(0,0)" fill="rgb(214,46,69)" d="M 1795.84 940.174 C 1799.58 941.134 1801.88 942.218 1803.9 945.67 C 1808.77 953.979 1804.87 1041.81 1801.15 1051.64 C 1801.02 1052 1800.83 1052.33 1800.68 1052.67 C 1780.75 1022.14 1758.92 993.725 1730.1 970.929 C 1718.93 962.093 1706.36 955.071 1695.43 945.928 L 1694.44 945.078 C 1709.68 942.484 1787.52 945.938 1793.37 942.392 C 1794.32 941.819 1795.02 940.914 1795.84 940.174 z"/>
<path transform="translate(0,0)" fill="rgb(185,188,199)" d="M 684.344 1375.04 C 693.094 1378.9 701.504 1380 710.975 1380.56 C 728.645 1381.61 746.657 1380.93 764.36 1380.91 L 862.268 1380.81 L 1197.19 1381.02 L 1197.28 1395.99 C 1182.05 1398.8 1163.89 1397.02 1148.31 1397.04 L 1044.83 1397.06 L 825.509 1396.95 C 789.715 1396.94 753.734 1397.85 717.963 1396.96 C 707.304 1396.69 695.644 1392.96 688.282 1384.98 C 685.087 1381.51 684.213 1379.8 684.344 1375.04 z"/>
<path transform="translate(0,0)" fill="rgb(85,77,87)" d="M 751.153 699.666 C 764.336 653.765 776.407 624.278 810.129 588.8 A 246.789 246.789 0 0 1 1002.73 511.141 C 1011.39 511.55 1020.18 511.838 1028.73 513.381 C 1037.96 515.047 1048.8 519.069 1058.08 518.839 L 1058.86 517.102 C 1080.92 520.908 1120.54 543.311 1135.66 559.32 C 1129.91 568.375 1124.95 577.34 1120.45 587.068 C 1095.37 563.622 1052.01 544.094 1018.51 538.171 C 1005.89 535.939 992.636 535.531 979.843 535.941 C 921.118 537.824 868.008 561.463 827.899 604.573 C 812.397 621.236 792.98 650.949 785.423 672.869 C 780.89 686.017 778.384 699.893 773.694 712.939 C 769.875 723.565 763.041 733.841 761.387 745.09 C 759.204 759.943 760.837 776.437 761.145 791.468 A 792.335 792.335 0 0 1 760.699 842.577 C 764.459 842.686 769.817 841.711 773.13 843.164 C 762.951 845.114 751.424 844.268 741.036 844.411 C 741.002 831.038 739.166 752.355 741.964 746.315 C 742.505 730.589 742.816 715.515 745.482 699.934 L 748.62 703.094 L 749.458 701.837 C 750.542 700.235 750.054 700.837 751.153 699.666 z"/>
<path transform="translate(0,0)" fill="rgb(222,211,223)" d="M 741.964 746.315 C 742.505 730.589 742.816 715.515 745.482 699.934 L 748.62 703.094 L 749.458 701.837 C 750.542 700.235 750.054 700.837 751.153 699.666 C 749.811 707.655 746.754 741.518 743.806 745.901 L 741.964 746.315 z"/>
<path transform="translate(0,0)" fill="rgb(214,46,69)" d="M 1667.92 1070.18 C 1696.16 1090.51 1714.93 1130.84 1720.35 1164.4 C 1723.44 1183.55 1722.34 1203.64 1722.39 1223 L 1722.78 1307.95 C 1710.15 1306.85 1697.15 1307.49 1684.46 1307.56 L 1611.48 1307.91 C 1599.56 1307.93 1587.35 1308.47 1575.46 1307.8 C 1580.91 1306.6 1587.36 1306.98 1592.98 1306.82 C 1599.99 1295.79 1604.99 1283.24 1610.38 1271.35 C 1631.81 1224.18 1646.75 1177.11 1657.69 1126.47 C 1660.95 1111.36 1662.72 1082.82 1667.92 1070.18 z"/>
<path transform="translate(0,0)" fill="rgb(85,77,87)" d="M 1613.09 930.603 C 1634.27 930.502 1680.57 951.864 1696.25 967.053 C 1691.48 978.823 1686.7 990.659 1683.15 1002.86 C 1682.82 1002.76 1682.49 1002.68 1682.17 1002.55 C 1675.49 999.797 1663.1 988.198 1653.08 983.543 C 1596.78 957.395 1535 953.785 1476.47 974.659 C 1414.76 996.663 1366.3 1041.28 1338.46 1100.51 C 1307.12 1167.18 1311.32 1235.52 1312.1 1307.07 L 1286.22 1307.76 C 1285.95 1287.17 1283.91 1168.24 1288.62 1159.18 L 1289.8 1160.38 C 1293.93 1154.17 1298.17 1130.65 1300.74 1122.02 C 1309.17 1093.73 1324.75 1065.56 1342.81 1042.41 C 1395.19 975.232 1468.99 937.481 1553.76 931.642 C 1563.13 930.997 1572.72 930.392 1582.1 930.922 C 1591.64 931.461 1602.75 934.102 1612.14 932.926 L 1613.09 930.603 z"/>
<path transform="translate(0,0)" fill="url(#Gradient5)" d="M 1312.1 1307.07 C 1311.32 1235.52 1307.12 1167.18 1338.46 1100.51 C 1366.3 1041.28 1414.76 996.663 1476.47 974.659 C 1535 953.785 1596.78 957.395 1653.08 983.543 C 1663.1 988.198 1675.49 999.797 1682.17 1002.55 C 1682.49 1002.68 1682.82 1002.76 1683.15 1002.86 C 1683.36 1003.11 1683.56 1003.37 1683.77 1003.62 C 1695.97 1017.95 1711.74 1028.54 1723.65 1043.6 C 1753.97 1081.94 1774.97 1126.6 1778.36 1175.93 C 1779.63 1194.51 1778.65 1213.47 1778.37 1232.08 L 1777.69 1307.53 C 1765.31 1305.54 1751.41 1308.12 1738.81 1308.23 C 1732.3 1236.32 1750.34 1169.41 1717.48 1100.63 C 1712.48 1090.17 1706.47 1080.02 1698.65 1071.4 C 1693.3 1065.48 1680.42 1056.28 1677.39 1049.78 C 1678.9 1048.44 1679.5 1047.66 1681.72 1047.96 C 1697.13 1050.09 1723.77 1084.83 1732.94 1097.53 C 1717.03 1058.46 1676.06 1015.52 1637.29 999.331 C 1608.92 987.486 1581.34 982.321 1550.69 984.708 C 1540.4 985.51 1530.02 987.458 1519.75 987.866 C 1515.12 988.05 1510.14 986.739 1505.58 985.968 C 1493.33 983.895 1483.41 988.803 1472.31 993.445 C 1461.09 998.133 1449.61 1002.88 1439.16 1009.13 C 1398.66 1033.35 1366.58 1073.64 1348.83 1116.91 C 1321.88 1182.63 1329.6 1240.77 1327.59 1309.14 C 1322.25 1307.85 1317.64 1307.01 1312.1 1307.07 z"/>
<path transform="translate(0,0)" fill="rgb(85,77,87)" d="M 1109.55 859.153 C 1123.83 858.266 1255.83 858.071 1258.63 859.575 C 1252.67 871.165 1246.6 882.843 1241.06 894.631 C 1240.62 894.665 1240.18 894.704 1239.73 894.733 C 1231.9 895.234 1222.74 893.163 1214.67 892.987 C 1192.58 892.505 1170.39 892.815 1148.29 892.931 L 843.468 892.875 L 763.793 892.885 C 750.895 892.891 736.733 891.736 723.981 893.473 C 717.164 894.402 710.039 896.341 705.245 901.599 C 701.065 906.183 700.602 913.583 700.131 919.564 C 697.207 956.768 699.871 997.815 699.896 1035.43 L 699.049 1248.07 C 699.027 1255.78 700.466 1302.57 699.582 1305.28 C 699.199 1306.45 696.593 1307.59 695.58 1308.08 C 687.903 1315.25 678.652 1321.85 669.105 1326.25 A 7192.05 7192.05 0 0 1 670.004 1076.93 C 670.55 1056.34 668.587 1035.45 670.156 1014.93 C 670.852 987.922 670.115 960.72 669.995 933.696 C 669.933 919.68 668.518 904.269 671.389 890.523 C 672.743 884.042 675.233 878.721 679.639 873.728 C 687.092 865.282 696.553 860.64 707.719 859.918 C 720.177 857.533 734.965 858.961 747.688 859.002 L 823.783 859.174 L 1109.55 859.153 z"/>
<path transform="translate(0,0)" fill="rgb(254,254,254)" d="M 707.719 859.918 C 720.177 857.533 734.965 858.961 747.688 859.002 L 823.783 859.174 L 1109.55 859.153 C 1126.16 860.184 1142.84 859.758 1159.47 860.666 C 1138.06 865.092 1113.18 863.214 1091.25 863.539 C 1073.58 863.801 1055.34 865.147 1037.74 864.005 L 816.455 866.776 C 783.759 867.126 736.865 864.546 706.043 868.993 C 698.785 870.04 692.666 872.441 687.375 877.665 C 682.401 882.576 680.397 889.592 679.443 896.331 C 676.826 914.8 678.636 935.848 678.474 954.575 A 2046.88 2046.88 0 0 1 675.696 1040.07 C 675.253 1050.15 676.359 1065.92 672.396 1075.18 C 668.587 1063.13 671.794 1030.35 670.156 1014.93 C 670.852 987.922 670.115 960.72 669.995 933.696 C 669.933 919.68 668.518 904.269 671.389 890.523 C 672.743 884.042 675.233 878.721 679.639 873.728 C 687.092 865.282 696.553 860.64 707.719 859.918 z"/>
<path transform="translate(0,0)" fill="rgb(185,188,199)" d="M 707.719 859.918 C 720.177 857.533 734.965 858.961 747.688 859.002 L 823.783 859.174 L 1109.55 859.153 C 1126.16 860.184 1142.84 859.758 1159.47 860.666 C 1138.06 865.092 1113.18 863.214 1091.25 863.539 C 1073.58 863.801 1055.34 865.147 1037.74 864.005 C 1043.44 863.036 1049.22 861.974 1055.02 861.882 C 1063.19 861.753 1073.87 863.435 1081.68 861.641 C 1065.84 861.668 1050.05 860.597 1034.23 860.437 L 910.31 860.17 C 842.88 860.153 775.107 861.588 707.719 859.918 z"/>
<path transform="translate(0,0)" fill="rgb(85,77,87)" d="M 1722.68 1324.15 C 1739.96 1323.03 1757.58 1323.75 1774.9 1323.75 C 1799.89 1323.76 1824.75 1323.43 1849.74 1324.05 C 1842.58 1335.66 1836.56 1348.11 1828.28 1358.97 C 1827.75 1359.08 1827.23 1359.19 1826.7 1359.29 C 1817.29 1361.1 1805.05 1359.81 1795.36 1359.85 L 1725.74 1360.01 L 1406.29 1359.92 L 1324.64 1359.9 C 1307.92 1359.9 1288.87 1358.32 1272.53 1361.64 C 1267.03 1362.75 1260.95 1365.97 1257.5 1370.47 C 1251.71 1378.01 1250.4 1390.55 1249.58 1399.79 C 1248.18 1415.74 1248.52 1432.14 1248.29 1448.17 A 4791.47 4791.47 0 0 0 1247.96 1543.75 L 1248.11 1767.92 C 1248.1 1778.13 1250.21 1830.79 1246.4 1837.27 C 1237.11 1846.44 1225.03 1853.5 1214.45 1861.13 C 1212.68 1822.72 1213.6 1372.42 1214.61 1370.24 C 1215.25 1357.45 1219.13 1346.32 1228.4 1337.06 C 1235.91 1329.54 1245.3 1326.15 1255.66 1324.83 C 1272.48 1322.67 1290.32 1323.96 1307.31 1324.02 L 1394.46 1324.1 L 1722.68 1324.15 z"/>
<path transform="translate(0,0)" fill="url(#Gradient6)" d="M 1214.61 1370.24 C 1215.25 1357.45 1219.13 1346.32 1228.4 1337.06 C 1235.91 1329.54 1245.3 1326.15 1255.66 1324.83 C 1272.48 1322.67 1290.32 1323.96 1307.31 1324.02 L 1394.46 1324.1 L 1722.68 1324.15 C 1742.06 1325.75 1761.92 1323.34 1781.16 1325.85 C 1729.58 1333.24 1675.94 1331.08 1623.97 1331.56 L 1372.08 1333.12 L 1295.64 1333.5 C 1281.99 1333.63 1266.27 1332.45 1252.98 1335.25 C 1244.42 1337.06 1235.17 1344.26 1229.99 1351.1 C 1225.98 1356.39 1224.64 1362.52 1223.69 1368.96 C 1221.05 1386.96 1221.41 1524.19 1216.56 1527.51 C 1212.5 1518.04 1215.39 1390.99 1214.61 1370.24 z"/>
<path transform="translate(0,0)" fill="rgb(254,254,254)" d="M 1607.71 1034.8 C 1618.3 1038.09 1629.06 1042.24 1638.41 1048.3 C 1648.88 1054.58 1659.02 1061.8 1667.92 1070.18 C 1662.72 1082.82 1660.95 1111.36 1657.69 1126.47 C 1646.75 1177.11 1631.81 1224.18 1610.38 1271.35 C 1604.99 1283.24 1599.99 1295.79 1592.98 1306.82 C 1587.36 1306.98 1580.91 1306.6 1575.46 1307.8 L 1556.88 1307.99 C 1544.6 1308.06 1532.42 1308.01 1520.16 1307.33 C 1497.43 1306.53 1474.44 1307.12 1451.68 1307.1 C 1430.9 1307.07 1409.75 1306.31 1389.02 1307.55 C 1390.66 1294.11 1384.68 1276.69 1385.17 1260.11 C 1385.1 1250.64 1384.59 1240.82 1385.45 1231.39 C 1386.12 1223.99 1388.04 1216.71 1389.05 1209.34 C 1390.34 1199.87 1391.05 1190.37 1393.04 1181 C 1401.8 1139.68 1424.06 1105.91 1456.3 1079.25 C 1490.11 1051.31 1530.35 1039.68 1573.78 1041.97 C 1584.98 1042.56 1595.97 1044.51 1607.11 1045.55 C 1607.22 1041.97 1607.5 1038.38 1607.71 1034.8 z"/>
<path transform="translate(0,0)" fill="rgb(214,46,69)" d="M 1607.71 1034.8 C 1618.3 1038.09 1629.06 1042.24 1638.41 1048.3 C 1637.3 1049.76 1636.45 1050.95 1636.04 1052.77 C 1634.43 1059.98 1634.1 1067.84 1633.05 1075.18 C 1630.79 1090.87 1628.27 1106.65 1625.14 1122.19 C 1620.3 1146.14 1614.35 1170.48 1606.61 1193.65 C 1599.67 1214.43 1590.87 1234.38 1581.37 1254.1 C 1574.9 1267.53 1558.3 1293.24 1556.12 1306.03 L 1556.88 1307.99 C 1544.6 1308.06 1532.42 1308.01 1520.16 1307.33 C 1522.68 1300.44 1527.8 1293.44 1531.56 1287.04 C 1538.75 1274.82 1545.96 1262.54 1552.22 1249.8 A 546.09 546.09 0 0 0 1607.11 1045.55 C 1607.22 1041.97 1607.5 1038.38 1607.71 1034.8 z"/>
<path transform="translate(0,0)" fill="rgb(252,83,93)" d="M 1638.41 1048.3 C 1648.88 1054.58 1659.02 1061.8 1667.92 1070.18 C 1662.72 1082.82 1660.95 1111.36 1657.69 1126.47 C 1646.75 1177.11 1631.81 1224.18 1610.38 1271.35 C 1604.99 1283.24 1599.99 1295.79 1592.98 1306.82 C 1587.36 1306.98 1580.91 1306.6 1575.46 1307.8 L 1556.88 1307.99 L 1556.12 1306.03 C 1558.3 1293.24 1574.9 1267.53 1581.37 1254.1 C 1590.87 1234.38 1599.67 1214.43 1606.61 1193.65 C 1614.35 1170.48 1620.3 1146.14 1625.14 1122.19 C 1628.27 1106.65 1630.79 1090.87 1633.05 1075.18 C 1634.1 1067.84 1634.43 1059.98 1636.04 1052.77 C 1636.45 1050.95 1637.3 1049.76 1638.41 1048.3 z"/>
<path transform="translate(0,0)" fill="rgb(254,254,254)" d="M 838.315 843.144 C 839.65 831.583 839.114 819.66 839.071 808.04 C 838.887 757.55 835.902 713.69 867.358 670.522 C 904.48 619.578 975.21 596.268 1035.41 614.715 C 1040.5 616.277 1045.7 617.857 1050.54 620.118 C 1058.11 623.657 1069.05 631.807 1077.06 632.956 C 1078.23 633.124 1080.62 632.403 1081.88 632.208 C 1110.92 658.901 1133.84 694.809 1135.62 735.297 C 1135.9 741.841 1135.09 748.547 1134.24 755.028 C 1133.28 773.97 1133.8 793.566 1134.38 812.535 L 1136.33 843.901 L 977.205 843.847 C 963.279 842.267 948.095 843.279 934.048 843.186 L 838.315 843.144 z M 994.696 618.418 C 982.832 619.536 975.711 621.972 965.42 627.863 C 962.289 629.655 959.063 631.729 955.611 632.826 C 946.587 635.694 935.316 633.819 928.775 642.037 C 927.288 643.904 925.939 645.879 924.564 647.829 C 909.389 669.35 886.44 680.91 891.273 712.498 C 893.662 728.107 910.667 731.876 919.19 742.891 C 929.783 756.581 928.9 775.958 940.302 789.914 C 959.362 797.436 981.864 797.074 1002.01 799.689 C 1019.83 801.756 1061.98 807.413 1076.88 796.307 C 1087.88 788.104 1100.55 740.601 1101.95 726.365 C 1103.02 715.514 1104.6 675.531 1098.54 668.143 C 1094.7 663.458 1087.66 660.356 1083.06 656.221 C 1076.48 650.31 1070.57 643.619 1063.83 637.885 C 1045.98 622.698 1022.92 618.556 1000.02 618.303 A 80.8715 80.8715 0 0 0 994.696 618.418 z M 1129.92 731.98 C 1128 751.687 1120.35 806.089 1132.07 821.077 C 1132.25 821.303 1132.47 821.486 1132.67 821.691 C 1134.48 819.358 1134.24 815.41 1134.38 812.535 C 1133.8 793.566 1133.28 773.97 1134.24 755.028 C 1133.15 747.233 1131.67 739.652 1129.92 731.98 z"/>
<path transform="translate(0,0)" fill="url(#Gradient7)" d="M 695.58 1308.08 C 696.593 1307.59 699.199 1306.45 699.582 1305.28 C 700.466 1302.57 699.027 1255.78 699.049 1248.07 L 699.896 1035.43 C 699.871 997.815 697.207 956.768 700.131 919.564 C 700.602 913.583 701.065 906.183 705.245 901.599 C 710.039 896.341 717.164 894.402 723.981 893.473 C 736.733 891.736 750.895 892.891 763.793 892.885 L 843.468 892.875 L 1148.29 892.931 C 1170.39 892.815 1192.58 892.505 1214.67 892.987 C 1222.74 893.163 1231.9 895.234 1239.73 894.733 C 1240.18 894.704 1240.62 894.665 1241.06 894.631 C 1247.51 896.497 1249.67 899.98 1253.14 905.397 C 1253.41 905.81 1253.71 906.201 1253.97 906.615 C 1255.63 909.209 1256.21 911.626 1256.4 914.637 C 1257.85 937.718 1257.18 961.323 1257.24 984.452 A 6176.37 6176.37 0 0 1 1256.2 1116.52 C 1255.69 1141.02 1258.18 1167.54 1254.73 1191.7 C 1243.51 1202.86 1228 1210.92 1215.17 1220.24 L 1116.73 1291.89 C 1102.85 1301.91 1073.89 1326.17 1058.48 1330.89 C 1039.74 1336.64 975.146 1333.92 951.503 1333.96 L 762.101 1334.05 C 746.863 1334.01 731.462 1333.92 716.339 1331.84 C 708.643 1324.87 701.478 1316.63 695.58 1308.08 z"/>
<path transform="translate(0,0)" fill="rgb(20,24,43)" d="M 751.618 935.837 C 753.016 937.829 753.317 940.079 752.869 942.552 C 752.374 945.279 748.886 948.754 746.702 950.351 C 739.56 955.573 735.068 956.037 726.572 954.496 L 724.768 953.39 C 728.561 951.107 731.473 951.315 735.674 950.475 C 743.941 948.823 747.166 942.256 751.618 935.837 z"/>
<path transform="translate(0,0)" fill="rgb(254,254,254)" d="M 1050.14 1113.81 C 1051.79 1114.24 1054.05 1114.52 1055.54 1115.27 A 86.3578 86.3578 0 0 1 1052.36 1119.61 C 1046.4 1127.31 1037.69 1136.15 1027.68 1137.46 L 1026.66 1136.41 C 1028.73 1132.99 1045.28 1119.38 1050.14 1113.81 z"/>
<path transform="translate(0,0)" fill="rgb(185,188,199)" d="M 1050.14 1113.81 C 1054.58 1107.15 1058.53 1100.91 1060.91 1093.18 C 1062.47 1088.1 1065.64 1064.08 1066.25 1063.17 C 1069.31 1066.63 1068.89 1072.55 1068.62 1076.85 C 1067.86 1089.32 1063.89 1105.62 1055.54 1115.27 C 1054.05 1114.52 1051.79 1114.24 1050.14 1113.81 z"/>
<path transform="translate(0,0)" fill="rgb(248,243,216)" d="M 724.078 909.067 C 726.806 908.915 729.675 908.659 732.353 909.321 C 736.719 910.4 740.833 913.369 743.113 917.259 C 745.055 920.571 745.47 924.618 744.484 928.303 C 742.896 934.236 738.519 937.552 733.392 940.403 C 730.274 940.822 727.093 941.335 723.985 940.583 A 14.8289 14.8289 0 0 1 714.821 933.788 C 712.439 929.778 712.094 925.015 713.36 920.575 C 715.094 914.496 718.756 911.999 724.078 909.067 z"/>
<path transform="translate(0,0)" fill="rgb(185,188,199)" d="M 953.623 1135.35 C 955.862 1138.84 959.621 1136.96 960.676 1140.6 C 963.815 1151.42 951.912 1236.67 950.021 1252.98 L 938.761 1252.93 C 941.342 1229.07 944.478 1205.24 947.284 1181.41 C 949.037 1166.52 949.784 1149.73 953.623 1135.35 z"/>
<path transform="translate(0,0)" fill="rgb(185,188,199)" d="M 918.768 1094.82 C 913.474 1085.84 911.135 1075.76 911.098 1065.39 A 70.9596 70.9596 0 0 1 931.773 1015.29 A 68.4545 68.4545 0 0 1 981.067 994.928 C 1000.26 995.013 1017.65 1002.19 1031.18 1015.77 C 1030.9 1015.8 1030.61 1015.85 1030.33 1015.87 C 1022.59 1016.6 1014.9 1011.71 1007.33 1010.37 A 76.2226 76.2226 0 0 0 935.974 1035.44 C 924.107 1049.22 920.679 1064.2 920.236 1082.08 C 920.126 1086.55 920.997 1090.75 918.768 1094.82 z"/>
<path transform="translate(0,0)" fill="rgb(254,254,254)" d="M 918.768 1094.82 C 920.997 1090.75 920.126 1086.55 920.236 1082.08 C 920.679 1064.2 924.107 1049.22 935.974 1035.44 A 76.2226 76.2226 0 0 1 1007.33 1010.37 C 1014.9 1011.71 1022.59 1016.6 1030.33 1015.87 C 1030.61 1015.85 1030.9 1015.8 1031.18 1015.77 C 1044.18 1028.49 1053.02 1043.89 1053.35 1062.5 A 65.4889 65.4889 0 0 1 1034.4 1110.34 C 1027.71 1117.22 1019.08 1123.81 1010.06 1127.22 L 1021.25 1210.49 C 1023.19 1224.51 1024.51 1238.99 1027.4 1252.84 A 6014.3 6014.3 0 0 1 950.021 1252.98 C 951.912 1236.67 963.815 1151.42 960.676 1140.6 C 959.621 1136.96 955.862 1138.84 953.623 1135.35 C 953.996 1132.39 954.567 1129.65 953.685 1126.73 C 938.017 1120.19 926.805 1109.67 918.768 1094.82 z"/>
<path transform="translate(0,0)" fill="url(#Gradient8)" d="M 1828.28 1358.97 C 1829.54 1360.4 1829.76 1361.07 1831.62 1361.64 C 1840.16 1364.29 1847.48 1368.74 1852.45 1376.34 C 1852.67 1376.68 1852.92 1377 1853.13 1377.34 C 1853.9 1378.6 1854.34 1379.74 1854.53 1381.21 C 1855.5 1388.43 1854.45 1396.9 1854.5 1404.24 A 6291.87 6291.87 0 0 1 1854.71 1472.11 L 1854.14 1692.89 C 1848.06 1702.71 1838.47 1710.22 1829.54 1717.37 C 1816.38 1727.92 1802.42 1737.11 1788.65 1746.82 L 1729.33 1789.1 C 1712.18 1801.35 1647.45 1852.22 1633.79 1856.16 C 1619.62 1860.24 1576.59 1857.95 1559.7 1857.91 L 1420.85 1857.49 C 1377.68 1857.38 1333.95 1859.5 1290.85 1857.41 C 1281.94 1856.98 1272.14 1857.09 1264.37 1852.18 C 1257.75 1847.99 1252.78 1841.69 1246.4 1837.27 C 1250.21 1830.79 1248.1 1778.13 1248.11 1767.92 L 1247.96 1543.75 A 4791.47 4791.47 0 0 1 1248.29 1448.17 C 1248.52 1432.14 1248.18 1415.74 1249.58 1399.79 C 1250.4 1390.55 1251.71 1378.01 1257.5 1370.47 C 1260.95 1365.97 1267.03 1362.75 1272.53 1361.64 C 1288.87 1358.32 1307.92 1359.9 1324.64 1359.9 L 1406.29 1359.92 L 1725.74 1360.01 L 1795.36 1359.85 C 1805.05 1359.81 1817.29 1361.1 1826.7 1359.29 C 1827.23 1359.19 1827.75 1359.08 1828.28 1358.97 z"/>
<path transform="translate(0,0)" fill="rgb(185,188,199)" d="M 1605.47 1773.95 C 1611.26 1774.51 1615.93 1775 1621.49 1776.97 C 1617.42 1777.91 1613.37 1778.65 1609.2 1778.89 C 1594.08 1779.76 1578.76 1778.9 1563.61 1778.99 C 1550.53 1779.08 1525.45 1781 1513.8 1778.71 C 1511.73 1778.3 1511.46 1778.25 1510.22 1776.49 L 1510.95 1774.33 A 2901.73 2901.73 0 0 1 1575.17 1774.08 C 1585.18 1774.09 1595.51 1774.62 1605.47 1773.95 z"/>
<path transform="translate(0,0)" fill="rgb(0,0,0)" d="M 1510.95 1774.33 L 1508.51 1774 L 1508.76 1772.99 C 1517.87 1769.81 1529.6 1775.45 1539.25 1771.8 L 1536.42 1767.89 C 1537.07 1765.7 1537 1765.99 1538.48 1764.6 L 1538.4 1764.71 L 1536.43 1761.99 L 1536.01 1763.35 C 1529.9 1763.32 1523.78 1763.4 1517.69 1762.84 L 1518.34 1762.16 L 1514.77 1762.36 C 1523.37 1761.13 1533.37 1762.07 1542.12 1762.08 C 1560.75 1762.1 1579.56 1761.58 1598.14 1762.91 C 1587.97 1764.33 1576.56 1763.51 1566.24 1763.61 C 1574.55 1766.52 1585.18 1772.59 1593.67 1772.85 C 1596.93 1772.95 1603.46 1771.73 1605.47 1773.95 C 1595.51 1774.62 1585.18 1774.09 1575.17 1774.08 A 2901.73 2901.73 0 0 0 1510.95 1774.33 z"/>
<path transform="translate(0,0)" fill="rgb(254,254,254)" d="M 1641.27 1538.81 L 1642.02 1539.49 C 1646.52 1551.68 1646.15 1568.53 1643.47 1581.18 C 1638.04 1606.77 1622.08 1621.32 1600.95 1635.09 C 1600.98 1646.11 1603.07 1656.89 1602.52 1667.99 C 1599.9 1665.42 1597.54 1637.89 1596.81 1631.83 C 1604.39 1625.93 1612.19 1621 1618.96 1614.08 C 1640.2 1592.34 1641.44 1567.5 1641.27 1538.81 z"/>
<path transform="translate(0,0)" fill="rgb(248,243,216)" d="M 1273.49 1376.18 C 1276.93 1376.13 1279.93 1376.38 1283.12 1377.82 C 1288.57 1380.3 1290.48 1385.9 1292.43 1391.09 C 1291.7 1394.22 1291.03 1397.6 1289.8 1400.56 C 1287.4 1406.31 1282.3 1408.15 1276.83 1410.1 C 1274.17 1409.88 1271.26 1409.58 1268.81 1408.45 C 1264.21 1406.32 1260.59 1401.99 1259.2 1397.13 A 16.384 16.384 0 0 1 1261.02 1383.98 C 1264.05 1379.12 1268.08 1377.32 1273.49 1376.18 z"/>
<path transform="translate(0,0)" fill="rgb(185,188,199)" d="M 1522.5 1642.32 C 1525.36 1642.3 1529.51 1641.65 1531.91 1643.09 C 1533.37 1661.58 1518.79 1754.28 1521.06 1759.8 L 1525.22 1761 L 1508.69 1760.66 C 1509.44 1741.99 1512.72 1722.82 1514.88 1704.23 C 1517.26 1683.74 1518.7 1662.56 1522.5 1642.32 z"/>
<path transform="translate(0,0)" fill="rgb(185,188,199)" d="M 1487.06 1588.42 A 67.1093 67.1093 0 0 1 1478.37 1545.24 C 1480.86 1525.71 1491.64 1506.69 1507.24 1494.66 C 1522.83 1482.64 1544 1477.3 1563.45 1479.92 C 1583.31 1482.59 1599.26 1492.92 1611.38 1508.63 C 1611.09 1508.61 1610.79 1508.61 1610.5 1508.58 C 1602.49 1507.92 1594.31 1503.33 1586.6 1500.93 A 75.2115 75.2115 0 0 0 1516.11 1514.19 C 1500.2 1527.31 1491.23 1545.03 1489.44 1565.48 C 1488.82 1572.54 1489.68 1582.08 1487.06 1588.42 z"/>
<path transform="translate(0,0)" fill="rgb(254,254,254)" d="M 1487.06 1588.42 C 1489.68 1582.08 1488.82 1572.54 1489.44 1565.48 C 1491.23 1545.03 1500.2 1527.31 1516.11 1514.19 A 75.2115 75.2115 0 0 1 1586.6 1500.93 C 1594.31 1503.33 1602.49 1507.92 1610.5 1508.58 C 1610.79 1508.61 1611.09 1508.61 1611.38 1508.63 C 1624.67 1526.74 1630.42 1543.36 1627 1565.92 C 1624 1585.75 1614.06 1602.1 1597.92 1613.98 C 1592.84 1617.72 1587.33 1620.88 1581.71 1623.71 A 7593.98 7593.98 0 0 1 1598.36 1760.88 L 1525.22 1761 L 1521.06 1759.8 C 1518.79 1754.28 1533.37 1661.58 1531.91 1643.09 C 1529.51 1641.65 1525.36 1642.3 1522.5 1642.32 C 1522.95 1637.7 1523.64 1633.39 1525.04 1628.94 L 1525.35 1627.97 C 1524.82 1625.52 1524.91 1624.56 1522.89 1622.95 C 1519.42 1620.19 1514.98 1618.04 1511.24 1615.6 C 1500.32 1608.46 1493.42 1599.71 1487.06 1588.42 z"/>
</svg>