<svg version="1.1" xmlns="http://www.w3.org/2000/svg" style="display: block;" viewBox="0 0 2048 2048" width="512" height="512">
<defs>
	<linearGradient id="Gradient1" gradientUnits="userSpaceOnUse" x1="1433.78" y1="1729.91" x2="1423" y2="1711.19">
		<stop class="stop0" offset="0" stop-opacity="1" stop-color="rgb(118,97,98)"/>
		<stop class="stop1" offset="1" stop-opacity="1" stop-color="rgb(83,79,80)"/>
	</linearGradient>
</defs>
<path transform="translate(0,0)" fill="rgb(114,100,100)" d="M 1576.05 720.388 C 1586.61 717.712 1597.47 716.54 1608.05 713.929 A 169.993 169.993 0 0 0 1688.77 667.962 C 1715.89 639.948 1733 604.1 1729.79 564.483 C 1728.92 553.803 1724.49 541.403 1724.58 531.304 C 1724.58 530.748 1724.6 530.193 1724.62 529.638 C 1736.18 555.557 1733.81 590.996 1727.28 617.9 C 1716.26 657.622 1694.58 688.453 1658.15 709.245 C 1642.99 717.896 1624.75 724.271 1607.74 728.017 C 1599.19 729.901 1589.77 730.785 1581.7 734.235 C 1581.35 734.385 1580.99 734.515 1580.64 734.676 C 1577.55 736.113 1575.23 739.474 1573.21 742.133 C 1558 762.104 1544.67 783.519 1529.69 803.687 C 1517.63 819.923 1505.61 835.971 1493.79 852.403 C 1489.33 858.616 1483.94 864.368 1480.05 870.944 C 1479.56 863.435 1481.89 857.078 1481.47 849.885 C 1489.42 835.885 1503.63 819.338 1513.47 805.701 L 1552.65 751.024 C 1559.89 740.902 1566.93 728.804 1576.05 720.388 z"/>
<path transform="translate(0,0)" fill="rgb(114,100,100)" d="M 1383.19 1761.35 C 1385.73 1763.32 1386.1 1763.42 1387.01 1766.47 C 1380.61 1784.43 1373.38 1801.73 1360.04 1815.78 C 1355.57 1820.49 1348.83 1824.8 1345.5 1830.23 C 1341.98 1834.95 1338.32 1842.41 1333.78 1845.99 C 1327.19 1851.16 1295.57 1856.71 1285.6 1858.18 C 1281.53 1858.78 1278.01 1858.64 1274.12 1857.33 C 1268.82 1861.06 1263.39 1882.18 1259.52 1889.16 C 1257.32 1893.61 1254.47 1897.37 1251.51 1901.31 L 1250.27 1902.72 C 1245.56 1908.14 1242.22 1914.72 1237.04 1919.74 C 1219.85 1936.38 1190.89 1950.6 1166.85 1952.52 C 1150.15 1953.85 1132.2 1949.6 1117.03 1942.76 L 1112.44 1940.83 L 1119.33 1934.97 C 1134.66 1939.31 1152.58 1940.03 1168.32 1937.74 C 1204.52 1932.47 1232.63 1911.38 1254.12 1882.73 C 1259.84 1872.25 1264.49 1862.46 1267.7 1850.95 C 1287.09 1849.79 1305.31 1846.25 1322.63 1837.14 C 1353.65 1820.83 1373.07 1794.46 1383.19 1761.35 z"/>
<path transform="translate(0,0)" fill="rgb(253,253,253)" d="M 874.404 280.451 A 169.078 169.078 0 0 1 874.229 152.435 C 888.938 116.734 918.61 84.7545 954.7 70.0326 C 994.612 53.7515 1039.97 52.1357 1079.86 69.3599 C 1118.96 86.2435 1146.49 117.633 1161.77 156.883 A 155.317 155.317 0 0 1 1166.67 251.861 C 1164.62 259.824 1156.61 275.239 1158.51 283.236 C 1159.61 287.876 1179.02 312.846 1183.39 318.107 C 1200.43 324.814 1218.63 328.86 1236.06 334.538 A 10092.2 10092.2 0 0 0 1346.67 370.947 C 1361.89 375.696 1386.24 379.311 1398.91 387.24 C 1400.69 380.21 1402.89 373.182 1404.4 366.105 C 1408.66 355.467 1412.36 344.852 1417.82 334.716 C 1434.01 304.665 1462.83 279.023 1494.2 265.603 C 1534.03 248.563 1577.03 250.482 1616.63 266.747 C 1655.56 282.737 1683.89 311.455 1699.87 350.329 C 1714.49 385.911 1714.8 426.156 1703.41 462.722 C 1701.59 469.029 1698.96 475.905 1698.9 482.465 C 1700.11 483.734 1701.28 484.967 1702.59 486.134 C 1709.78 492.541 1721.93 519.987 1724.62 529.638 C 1724.6 530.193 1724.58 530.748 1724.58 531.304 C 1724.49 541.403 1728.92 553.803 1729.79 564.483 C 1733 604.1 1715.89 639.948 1688.77 667.962 A 169.993 169.993 0 0 1 1608.05 713.929 C 1597.47 716.54 1586.61 717.712 1576.05 720.388 C 1566.93 728.804 1559.89 740.902 1552.65 751.024 L 1513.47 805.701 C 1503.63 819.338 1489.42 835.885 1481.47 849.885 C 1481.89 857.078 1479.56 863.435 1480.05 870.944 C 1479.79 878.381 1480.11 885.672 1480.77 893.081 C 1482.21 909.146 1485.13 925.001 1487.04 941.003 C 1488.49 953.173 1492.74 1012.77 1495.9 1019.51 C 1496.58 1019.18 1497.26 1018.86 1497.96 1018.56 C 1512.59 1012.22 1528.15 1007.55 1543.18 1002.21 C 1568.03 993.369 1592.95 984.186 1617.57 974.748 L 1710.98 939.231 C 1736.69 929.237 1763.63 916.758 1790.62 910.948 C 1803.16 908.248 1815.57 908.56 1827.55 913.491 C 1847.45 921.684 1859.52 937.488 1867.58 956.871 C 1881.64 986.02 1891.36 1018.64 1902.66 1049.02 A 10976.5 10976.5 0 0 1 1966.28 1220.3 L 1998.21 1304.97 C 2005.52 1323.99 2014.46 1343.59 2018.67 1363.57 C 2021.98 1379.27 2019.72 1396.18 2015.35 1411.43 C 2011.14 1425.31 2001.95 1438.58 1988.95 1445.64 C 1971.68 1455.02 1944.78 1463.25 1925.54 1470.87 L 1763.16 1533.45 L 1641.89 1580.34 C 1622.24 1587.73 1601.78 1596.54 1581.43 1601.42 C 1571.48 1603.81 1561.77 1602.73 1552.12 1599.68 C 1547.49 1598.22 1542.68 1595.49 1538.07 1594.4 A 1147.43 1147.43 0 0 0 1517.83 1580.1 C 1508.19 1577.36 1498.04 1583.63 1488.72 1586.07 C 1485.64 1586.87 1482.32 1586.65 1479.17 1587.06 C 1480.3 1608.14 1484.28 1624.05 1482.5 1646.23 C 1479.77 1667.75 1474.17 1683.78 1461.32 1701.38 C 1457.41 1706.73 1452.87 1711.77 1449.25 1717.31 C 1437.86 1731.39 1424.13 1739.24 1407.54 1746.14 C 1402.71 1748.14 1397.35 1749.57 1393.04 1752.57 C 1390 1757.09 1389.27 1761.74 1387.01 1766.47 C 1386.1 1763.42 1385.73 1763.32 1383.19 1761.35 C 1373.07 1794.46 1353.65 1820.83 1322.63 1837.14 C 1305.31 1846.25 1287.09 1849.79 1267.7 1850.95 C 1264.49 1862.46 1259.84 1872.25 1254.12 1882.73 C 1232.63 1911.38 1204.52 1932.47 1168.32 1937.74 C 1152.58 1940.03 1134.66 1939.31 1119.33 1934.97 L 1112.44 1940.83 C 1101.48 1936.07 1091.51 1929 1082.28 1921.51 C 1074.12 1915.62 1059.4 1899.12 1050.31 1897.28 C 1043.36 1896.75 1033.47 1896.67 1027.69 1901.16 C 1021.6 1905.9 1018.83 1914.92 1013.49 1920.51 C 1008.05 1926.2 1000.05 1930.02 993.654 1934.52 C 970.98 1950.49 957.686 1961.65 927.688 1959.72 C 910.744 1958.63 895.44 1951.98 880.105 1945.26 C 877.599 1942.78 872.216 1940.75 869.006 1939.01 C 859.954 1932.79 851.302 1926.1 843.486 1918.35 C 836.119 1911.05 828.206 1898.61 819.258 1893.69 C 813.609 1890.58 804.021 1889.94 797.573 1888.35 C 785.224 1885.32 773.575 1881.52 762.193 1875.84 C 746.987 1865.62 731.015 1853.52 722.268 1836.97 C 718.345 1831.86 714.932 1826.63 711.585 1821.12 C 708.63 1817.1 706.291 1812.53 703.807 1808.2 C 702.505 1806.04 701.194 1803.72 698.935 1802.44 C 693.711 1799.49 686.7 1797.73 680.993 1795.67 C 665.518 1790.09 650.277 1784.08 637.016 1774.16 C 621.624 1763.34 606.135 1745.7 599.334 1728.01 C 599.065 1727.69 598.762 1727.4 598.528 1727.06 C 585.204 1707.53 583.381 1671.77 586.291 1649.2 C 586.826 1646.81 587.472 1644.44 588.064 1642.07 C 588.081 1640.4 587.951 1638.73 587.856 1637.06 C 584.544 1632.53 576.613 1629.3 571.441 1627.12 C 551.425 1618.68 529.239 1613.5 507.75 1610.33 C 493.123 1608.18 478.201 1606.92 463.869 1603.17 C 441.712 1597.37 420.08 1587.05 398.473 1579.3 C 325.976 1553.32 254.779 1524.33 183.068 1496.38 C 149.534 1483.3 115.779 1470.78 82.3284 1457.44 C 69.2568 1452.23 55.3496 1448.22 43.2813 1440.85 C 31.1313 1433.42 15.633 1416.21 12.0902 1402.23 C 10.9618 1400.22 10.2745 1397.78 9.68184 1395.55 C 6.65584 1384.19 6.18689 1372.36 8.90104 1360.89 C 15.4983 1333 27.1574 1305.68 36.8951 1278.77 A 12771 12771 0 0 1 104.898 1098.26 L 143.04 996.046 C 150.162 977.381 156.702 957.021 166.844 939.754 C 175.098 925.7 190.381 914.508 206.238 910.765 C 217.025 908.218 227.362 909.468 237.896 912.285 C 257.724 917.589 277.141 925.693 296.42 932.788 C 342.712 949.823 388.424 968.395 434.547 985.885 C 458.949 995.138 504.014 1007.57 524.339 1020.22 C 528.075 991.914 532.289 963.786 535.576 935.402 C 537.381 919.821 538.181 904.125 540.186 888.585 C 528.789 865.859 515.288 843.471 502.029 821.772 C 491.883 805.169 449.768 740.294 446.757 727.074 C 445.367 725.267 444.181 723.367 442.952 721.449 C 439.076 715.283 421.448 712.986 414.386 710.307 C 408.109 707.927 401.95 704.648 395.973 701.591 C 379.272 693.048 362.293 680.365 349.915 666.238 C 327.555 640.721 311.612 603.743 314.331 569.295 C 315.372 556.107 319.491 543.313 320.309 530.077 L 320.388 528.655 C 324.29 519.547 321.725 488.384 321.93 476.517 C 322.219 459.823 325.862 444.304 328.346 427.937 C 330.026 416.866 330.186 405.6 331.636 394.493 C 334.859 369.791 345.018 344.133 358.737 323.402 C 383.716 285.656 422.097 264.113 465.685 255.677 C 505.516 247.969 547.57 258.585 580.84 281.262 C 604.841 297.622 622.329 319.391 635.43 345.141 C 639.38 352.903 643.25 360.487 644.866 369.106 L 656.289 366.72 C 694.751 358.534 732.433 347.612 770.497 337.771 C 790.283 332.656 832.462 323.885 849.131 315.289 C 855.634 311.936 860.69 306.104 864.594 300.021 A 111.229 111.229 0 0 0 874.404 280.451 z"/>
<path transform="translate(0,0)" fill="rgb(94,85,87)" d="M 1082.28 1921.51 L 1085.2 1920.58 C 1095.71 1927.22 1107.07 1932.45 1119.33 1934.97 L 1112.44 1940.83 C 1101.48 1936.07 1091.51 1929 1082.28 1921.51 z"/>
<path transform="translate(0,0)" fill="rgb(94,85,87)" d="M 1481.47 849.885 C 1481.89 857.078 1479.56 863.435 1480.05 870.944 C 1479.79 878.381 1480.11 885.672 1480.77 893.081 C 1482.21 909.146 1485.13 925.001 1487.04 941.003 C 1488.49 953.173 1492.74 1012.77 1495.9 1019.51 L 1495.41 1020.46 C 1490.31 1015.26 1478.38 882.258 1473 861.381 A 817.335 817.335 0 0 1 1481.47 849.885 z"/>
<path transform="translate(0,0)" fill="rgb(114,100,100)" d="M 599.334 1728.01 L 599.869 1728.66 C 605.22 1735.3 609.303 1742.91 614.752 1749.47 C 635.677 1774.66 665.408 1786.5 697.172 1790.08 L 701.609 1790.56 C 703.197 1801.81 709.653 1810.49 711.585 1821.12 C 708.63 1817.1 706.291 1812.53 703.807 1808.2 C 702.505 1806.04 701.194 1803.72 698.935 1802.44 C 693.711 1799.49 686.7 1797.73 680.993 1795.67 C 665.518 1790.09 650.277 1784.08 637.016 1774.16 C 621.624 1763.34 606.135 1745.7 599.334 1728.01 z"/>
<path transform="translate(0,0)" fill="rgb(114,100,100)" d="M 722.268 1836.97 C 756.047 1871.26 769.54 1879.01 818.696 1882.18 C 827.954 1904.89 851.72 1924.98 873.174 1935.8 C 871.664 1937.48 871.15 1938.14 869.006 1939.01 C 859.954 1932.79 851.302 1926.1 843.486 1918.35 C 836.119 1911.05 828.206 1898.61 819.258 1893.69 C 813.609 1890.58 804.021 1889.94 797.573 1888.35 C 785.224 1885.32 773.575 1881.52 762.193 1875.84 C 746.987 1865.62 731.015 1853.52 722.268 1836.97 z"/>
<path transform="translate(0,0)" fill="url(#Gradient1)" d="M 1478.94 1646.48 L 1481.41 1640.85 L 1482.5 1646.23 C 1479.77 1667.75 1474.17 1683.78 1461.32 1701.38 C 1457.41 1706.73 1452.87 1711.77 1449.25 1717.31 C 1437.86 1731.39 1424.13 1739.24 1407.54 1746.14 C 1402.71 1748.14 1397.35 1749.57 1393.04 1752.57 C 1390 1757.09 1389.27 1761.74 1387.01 1766.47 C 1386.1 1763.42 1385.73 1763.32 1383.19 1761.35 C 1384.67 1754.14 1385.89 1746.87 1387.2 1739.63 C 1404.22 1736.52 1419.48 1729.48 1433.35 1719.13 C 1456.22 1702.06 1474.87 1675.11 1478.94 1646.48 z"/>
<path transform="translate(0,0)" fill="rgb(114,100,100)" d="M 1025.14 1890.2 C 1033.93 1890.71 1042.71 1890.68 1051.5 1890.69 C 1062.18 1901.36 1073.19 1911.42 1085.2 1920.58 L 1082.28 1921.51 C 1074.12 1915.62 1059.4 1899.12 1050.31 1897.28 C 1043.36 1896.75 1033.47 1896.67 1027.69 1901.16 C 1021.6 1905.9 1018.83 1914.92 1013.49 1920.51 C 1008.05 1926.2 1000.05 1930.02 993.654 1934.52 C 970.98 1950.49 957.686 1961.65 927.688 1959.72 C 910.744 1958.63 895.44 1951.98 880.105 1945.26 C 877.599 1942.78 872.216 1940.75 869.006 1939.01 C 871.15 1938.14 871.664 1937.48 873.174 1935.8 C 894.662 1944.25 915.525 1948.41 938.657 1945.5 C 976.459 1940.74 1002.71 1919.46 1025.14 1890.2 z"/>
<path transform="translate(0,0)" fill="rgb(1,1,4)" d="M 1495.29 656.591 C 1503.71 664.698 1512.63 671.257 1522.64 677.277 C 1510.84 688.914 1501.22 705.112 1491.64 718.611 A 5002.59 5002.59 0 0 1 1434.5 798.494 C 1427.49 794.916 1416.91 783.387 1408.08 777.939 C 1419.15 764.684 1428.78 749.707 1438.81 735.644 L 1495.29 656.591 z"/>
<path transform="translate(0,0)" fill="rgb(114,100,100)" d="M 12.0902 1402.23 L 13.555 1402.96 C 20.5422 1415.57 28.5412 1426.35 41.3198 1433.59 C 58.7866 1443.48 88.3092 1452.45 107.67 1459.66 L 230.051 1505.68 A 14519.7 14519.7 0 0 0 386.518 1565.27 A 3326.58 3326.58 0 0 1 425.026 1579.67 C 432.982 1582.74 441.132 1586.52 449.349 1588.77 C 460.011 1591.7 470.982 1589.6 481.72 1591.43 C 521.887 1598.25 556.81 1613 591.712 1633.61 L 588.064 1642.07 C 588.081 1640.4 587.951 1638.73 587.856 1637.06 C 584.544 1632.53 576.613 1629.3 571.441 1627.12 C 551.425 1618.68 529.239 1613.5 507.75 1610.33 C 493.123 1608.18 478.201 1606.92 463.869 1603.17 C 441.712 1597.37 420.08 1587.05 398.473 1579.3 C 325.976 1553.32 254.779 1524.33 183.068 1496.38 C 149.534 1483.3 115.779 1470.78 82.3284 1457.44 C 69.2568 1452.23 55.3496 1448.22 43.2813 1440.85 C 31.1313 1433.42 15.633 1416.21 12.0902 1402.23 z"/>
<path transform="translate(0,0)" fill="rgb(1,1,4)" d="M 526.281 661.738 C 531.098 663.278 609.971 799.457 619.649 816.96 C 610.292 821.593 601.013 827.258 592.503 833.296 L 591.391 833.585 C 586.213 829.212 508.92 694.738 499.279 678.438 C 508.561 674.435 518.683 668.383 526.281 661.738 z"/>
<path transform="translate(0,0)" fill="rgb(1,1,4)" d="M 868.408 854.206 C 877.929 856.03 889.395 854.955 899.145 854.954 L 956.519 854.941 C 1026.61 854.953 1096.86 855.916 1166.94 854.778 A 663.719 663.719 0 0 0 1156.56 879 C 1155.6 882.269 1155.07 885.618 1154.47 888.967 L 881.711 889.091 C 880.29 875.545 871.315 866.718 868.408 854.206 z"/>
<path transform="translate(0,0)" fill="rgb(1,1,4)" d="M 884.866 380.191 L 886.541 380.288 C 890.072 384.414 893.929 405.187 895.727 411.361 C 867.006 420.634 837.017 427.314 807.786 434.927 L 616.242 484.298 C 612.356 479.159 608.117 459.897 605.422 452.692 L 884.866 380.191 z"/>
<path transform="translate(0,0)" fill="rgb(1,1,4)" d="M 1148 381.361 C 1158.95 387.263 1173.37 390.188 1185.25 393.817 L 1254.61 415.014 L 1369.43 450.272 C 1388.1 456.047 1406.7 462.885 1425.67 467.561 C 1421.45 477.849 1418.53 488.826 1415.22 499.44 C 1353.99 479.711 1292.07 461.882 1230.61 442.874 L 1170.71 424.241 C 1159.76 420.798 1148.26 416.239 1136.96 414.34 C 1141.28 403.702 1144.9 392.415 1148 381.361 z"/>
<path transform="translate(0,0)" fill="rgb(114,100,100)" d="M 1867.58 956.871 C 1881.64 986.02 1891.36 1018.64 1902.66 1049.02 A 10976.5 10976.5 0 0 1 1966.28 1220.3 L 1998.21 1304.97 C 2005.52 1323.99 2014.46 1343.59 2018.67 1363.57 C 2021.98 1379.27 2019.72 1396.18 2015.35 1411.43 C 2011.14 1425.31 2001.95 1438.58 1988.95 1445.64 C 1971.68 1455.02 1944.78 1463.25 1925.54 1470.87 L 1763.16 1533.45 L 1641.89 1580.34 C 1622.24 1587.73 1601.78 1596.54 1581.43 1601.42 C 1571.48 1603.81 1561.77 1602.73 1552.12 1599.68 C 1547.49 1598.22 1542.68 1595.49 1538.07 1594.4 A 1147.43 1147.43 0 0 0 1517.83 1580.1 C 1508.19 1577.36 1498.04 1583.63 1488.72 1586.07 C 1485.64 1586.87 1482.32 1586.65 1479.17 1587.06 C 1480.3 1608.14 1484.28 1624.05 1482.5 1646.23 L 1481.41 1640.85 L 1478.94 1646.48 C 1481.6 1623.02 1480.21 1601.94 1471.25 1580.05 C 1485.47 1575.3 1499.46 1570.01 1513.87 1565.81 C 1515.48 1569.03 1517.31 1571.58 1519.89 1574.11 C 1530.48 1584.5 1544.31 1588.54 1558.83 1588.44 C 1568.67 1588.38 1578.12 1586.11 1587.44 1583.1 C 1609.14 1576.09 1630.48 1567.09 1651.79 1558.93 L 1763.63 1516.46 L 1893.48 1467.41 C 1918.85 1457.85 1945.31 1449.18 1970.01 1438.09 C 1979.65 1433.76 1987.98 1428.78 1995.44 1421.25 C 2008.83 1407.74 2017.12 1391.35 2016.62 1372.01 C 2016.43 1364.54 2014.87 1357.06 2012.68 1349.93 C 2010.45 1342.7 2007 1335.84 2004.34 1328.74 L 1981.23 1266.97 L 1889.05 1017.86 C 1885.35 1008.03 1867.22 964.934 1867.47 958.372 C 1867.49 957.871 1867.54 957.371 1867.58 956.871 z"/>
<path transform="translate(0,0)" fill="rgb(248,49,56)" d="M 765.535 1564.28 A 54.1675 54.1675 0 0 1 793.175 1570.57 A 50.6202 50.6202 0 0 1 817.794 1601.9 C 821.231 1614.36 820.176 1629.15 813.369 1640.32 C 804.478 1654.91 744.187 1704.67 727.646 1714.83 C 721.537 1718.58 715.855 1720.73 708.936 1722.46 C 698.09 1723.33 686.814 1719.92 677.817 1713.93 C 666.126 1706.14 657.349 1693.46 654.641 1679.62 C 652.334 1667.83 654.559 1653.4 661.533 1643.44 C 669.764 1631.68 729.343 1581.84 743.203 1573.17 C 750.472 1568.62 757.112 1565.88 765.535 1564.28 z"/>
<path transform="translate(0,0)" fill="rgb(248,49,56)" d="M 967.51 1701.25 C 979.98 1699.95 990.951 1702.26 1001.27 1709.68 A 47.2796 47.2796 0 0 1 1020.7 1741.16 C 1021.58 1747.13 1021.4 1753.29 1019.65 1759.09 C 1014.36 1776.59 975.664 1841.77 963.508 1858.14 C 954.493 1870.29 943.005 1876.43 928.172 1878.51 A 55.693 55.693 0 0 1 895.893 1869.61 C 885.186 1862.66 877.168 1851.84 874.603 1839.24 C 873.15 1832.1 873.677 1824.97 875.723 1818.01 C 881.699 1797.7 914.233 1748.3 927.421 1729.08 C 938.073 1713.56 948.461 1704.74 967.51 1701.25 z"/>
<path transform="translate(0,0)" fill="rgb(1,1,4)" d="M 997.06 468.907 A 2996.53 2996.53 0 0 0 1030.79 469.089 C 1031.46 502.441 1030.9 535.9 1030.88 569.262 L 1030.71 753.772 C 1049.22 757.583 1068.01 760.412 1086.64 763.608 C 1100.03 765.906 1113.72 768.925 1127.25 770.073 L 1120.38 803.274 C 1087.37 797.018 1053.61 790.007 1020.25 786.135 C 1000.59 783.95 978.452 789.379 958.985 792.319 C 937.678 795.537 916.265 798.505 895.114 802.636 A 654.201 654.201 0 0 0 888.599 769.243 C 899.837 768.696 911.499 766.221 922.64 764.554 C 947.401 760.85 972.171 756.751 997.014 753.662 L 997.06 468.907 z"/>
<path transform="translate(0,0)" fill="rgb(248,49,56)" d="M 874.885 1626.31 C 886.236 1625.49 897.176 1628.42 906.392 1635.19 C 916.782 1642.83 923.358 1654.81 925.252 1667.48 C 926.347 1674.81 925.696 1682.78 923.179 1689.76 C 916.941 1707.08 872.292 1768.14 859.056 1785.78 C 847.596 1801.04 837.492 1809.52 817.981 1812.28 C 805.819 1812.23 795.907 1809.59 785.912 1802.4 C 774.433 1794.15 766.98 1782.38 765.041 1768.3 C 763.996 1760.7 764.507 1752.33 767.391 1745.17 C 774.728 1726.93 790.542 1709.92 802.16 1694.08 C 811.377 1681.51 820.177 1668.62 829.589 1656.2 C 841.733 1640.17 854.331 1629.15 874.885 1626.31 z"/>
<path transform="translate(0,0)" fill="rgb(248,49,56)" d="M 453.174 515.228 C 462.589 521.504 481.755 539.038 490.565 547.38 C 503.077 536.713 516.031 524.882 530.41 516.815 C 541.631 516.97 553.179 521.604 562.931 526.906 C 578.307 535.266 591.412 547.295 596.138 564.759 C 599.854 578.49 596.668 591.952 589.859 604.085 C 577.268 626.52 553.025 638.719 529.056 645.372 C 493.71 655.184 452.581 651.094 420.567 632.814 C 404.196 623.466 389.48 608.631 384.823 589.876 C 381.646 577.086 384.372 563.566 391.126 552.378 C 404.692 529.908 429.016 521.384 453.174 515.228 z"/>
<path transform="translate(0,0)" fill="rgb(248,49,56)" d="M 1246.64 850.531 C 1257.58 861.757 1269.53 872.161 1281.59 882.169 C 1290.56 873.192 1308.68 855.275 1320.14 851.223 C 1328.96 853.97 1337.82 856.736 1346.26 860.503 C 1362.49 867.746 1377.49 879.558 1383.62 896.817 A 52.3678 52.3678 0 0 1 1381.41 937.563 C 1371.02 958.812 1350.28 971.323 1328.51 978.451 C 1291.9 990.443 1250.33 989.184 1215.76 971.403 C 1197.57 962.044 1181.44 947.526 1175.5 927.378 A 48.8244 48.8244 0 0 1 1179.92 890.053 C 1193.65 865.187 1221.25 857.611 1246.64 850.531 z"/>
<path transform="translate(0,0)" fill="rgb(248,49,56)" d="M 986.03 297.185 C 968.21 290.222 951.603 275.008 942.142 258.5 C 930.046 237.395 927.284 213.786 933.86 190.451 C 940.089 168.349 954.006 148.752 974.241 137.516 C 994.746 126.131 1018.6 122.988 1041.19 129.547 A 83.9626 83.9626 0 0 1 1091.84 169.573 C 1103.43 190.772 1107.07 216.639 1100.09 239.907 C 1092.46 265.323 1073.92 283.946 1050.84 296.165 C 1027.72 304.312 1009.27 305.591 986.03 297.185 z"/>
<path transform="translate(0,0)" fill="rgb(250,171,167)" d="M 1063.83 179.945 L 1066.04 180.552 C 1071.62 186.207 1075.07 193.441 1076.88 201.134 C 1080.65 217.166 1077.56 237.509 1068.8 251.465 C 1060.04 265.425 1044.32 275.247 1028.36 278.721 C 1011.85 282.312 997.483 278.876 983.475 269.801 C 963.189 254.783 958.88 236.684 955.338 213.066 C 997.957 210.808 1028.22 204.7 1063.83 179.945 z"/>
<path transform="translate(0,0)" fill="rgb(248,49,56)" d="M 727.243 830.327 C 702.408 818.132 684.842 801.798 675.682 775.151 A 92.0743 92.0743 0 0 1 680.393 705.383 C 690.914 684.364 708.901 669.51 731.104 662.19 C 753.192 654.907 776.048 656.706 796.801 667.192 A 83.4851 83.4851 0 0 1 839.252 716.631 C 846.63 739.209 844.855 767.105 833.892 788.24 C 824.283 806.766 807.025 820.938 788.404 829.823 C 767.1 837.095 748.872 835.878 727.243 830.327 z"/>
<path transform="translate(0,0)" fill="rgb(250,171,167)" d="M 802.017 714.896 C 802.352 715.053 802.718 715.156 803.022 715.367 C 809.339 719.736 815.244 729.031 817.04 736.454 C 820.669 751.451 815.459 771.676 807.56 784.696 C 799.396 798.152 786.153 808.52 770.634 811.892 C 754.321 815.437 738.644 811.533 724.641 802.891 A 142.833 142.833 0 0 1 719.871 799.328 C 702.762 785.895 699.097 766.49 696.549 746.144 C 722.332 746.906 750.897 743.071 774.198 731.485 C 783.821 726.7 792.853 720.509 802.017 714.896 z"/>
<path transform="translate(0,0)" fill="rgb(248,49,56)" d="M 1524.66 495.079 A 91.163 91.163 0 0 1 1477.94 451.012 C 1467.88 430.099 1466.67 402.539 1474.53 380.725 C 1482.62 358.297 1499.24 340.816 1520.81 330.878 C 1542.44 320.914 1565.85 320.429 1588.07 328.919 A 83.881 83.881 0 0 1 1634.33 373.137 C 1644.06 395.23 1645.26 422.707 1636.35 445.233 C 1627.96 466.457 1610.18 484.421 1589.29 493.467 C 1565.13 500.713 1549.16 503.283 1524.66 495.079 z"/>
<path transform="translate(0,0)" fill="rgb(250,171,167)" d="M 1602.81 379.873 C 1609.65 384.952 1614.28 393.217 1615.88 401.489 C 1618.96 417.342 1614.71 437.079 1605.9 450.497 A 61.3388 61.3388 0 0 1 1566.49 476.795 C 1549.38 480.172 1536.27 476.607 1522 466.878 A 261.099 261.099 0 0 1 1519.67 464.969 C 1500.99 449.453 1496.83 433.308 1494.64 409.972 C 1543.14 409.362 1560.47 404.204 1602.81 379.873 z"/>
<path transform="translate(0,0)" fill="rgb(1,1,4)" d="M 727.243 830.327 C 748.872 835.878 767.1 837.095 788.404 829.823 C 790.041 836.439 791.053 844.241 794.887 849.897 C 820.116 859.095 847.066 864.307 859.62 891.363 A 50.719 50.719 0 0 1 861.183 931.07 C 853.24 951.8 833.884 966.222 814.016 974.547 C 778.74 989.328 736.177 989.499 700.826 974.817 C 681.319 966.716 661.682 952.894 653.392 932.725 A 50.0677 50.0677 0 0 1 653.921 893.176 C 661.031 876.871 675.233 865.113 691.694 859.018 C 700.625 855.711 711.62 854.505 719.888 850.058 C 725.031 843.257 727.373 838.862 727.243 830.327 z"/>
<path transform="translate(0,0)" fill="rgb(250,171,167)" d="M 727.243 830.327 C 748.872 835.878 767.1 837.095 788.404 829.823 C 790.041 836.439 791.053 844.241 794.887 849.897 C 786.964 862.062 769.546 872.535 757.925 881.212 C 746.552 871.471 728.931 861.366 719.888 850.058 C 725.031 843.257 727.373 838.862 727.243 830.327 z"/>
<path transform="translate(0,0)" fill="rgb(1,1,4)" d="M 1524.66 495.079 C 1549.16 503.283 1565.13 500.713 1589.29 493.467 C 1590.55 500.085 1591.21 509.029 1595.09 514.567 A 281.662 281.662 0 0 1 1607.66 518.124 C 1627.76 524.348 1647.13 533.883 1657.05 553.525 A 49.6695 49.6695 0 0 1 1659.87 592.637 C 1652.77 613.547 1632.73 629.016 1613.41 638.075 C 1580.54 653.485 1538.71 654.118 1504.76 641.799 C 1482.64 633.769 1461.05 619.477 1450.91 597.474 C 1445.37 585.44 1444.8 572.666 1449.61 560.28 C 1457.2 540.721 1474.85 527.668 1494.23 521.263 C 1501.41 518.893 1509.07 517.65 1516 514.664 C 1516.26 514.555 1516.51 514.439 1516.76 514.326 C 1519.9 508.213 1521.71 501.348 1524.66 495.079 z"/>
<path transform="translate(0,0)" fill="rgb(250,171,167)" d="M 1524.66 495.079 C 1549.16 503.283 1565.13 500.713 1589.29 493.467 C 1590.55 500.085 1591.21 509.029 1595.09 514.567 C 1584.19 526.449 1569.55 536.187 1556.8 546.112 C 1543.37 536.087 1528.61 526.175 1516.76 514.326 C 1519.9 508.213 1521.71 501.348 1524.66 495.079 z"/>
<path transform="translate(0,0)" fill="rgb(1,1,4)" d="M 986.03 297.185 C 1009.27 305.591 1027.72 304.312 1050.84 296.165 C 1053.34 303.467 1053.53 310.576 1055.42 317.886 C 1077.85 322.569 1103.59 331.151 1117.09 351.083 C 1124.78 362.436 1127.96 377.194 1125.2 390.625 C 1121.35 409.355 1106.95 423.669 1091.27 433.463 C 1059.19 453.488 1017.42 457.199 981.086 448.579 C 956.527 442.752 930.39 430.186 916.944 407.844 C 909.686 395.784 906.413 382.269 909.85 368.361 C 913.916 351.905 926.228 339.167 940.612 330.985 C 951.366 324.868 963.189 321.464 975.032 318.148 C 977.686 316.556 980.088 313.467 982.258 311.207 C 982.958 306.282 984.426 301.862 986.03 297.185 z"/>
<path transform="translate(0,0)" fill="rgb(250,171,167)" d="M 986.03 297.185 C 1009.27 305.591 1027.72 304.312 1050.84 296.165 C 1053.34 303.467 1053.53 310.576 1055.42 317.886 C 1044.86 329.683 1029.77 339.048 1017.05 348.449 C 1006.29 338.98 988.194 323.176 975.032 318.148 C 977.686 316.556 980.088 313.467 982.258 311.207 C 982.958 306.282 984.426 301.862 986.03 297.185 z"/>
<path transform="translate(0,0)" fill="rgb(1,1,4)" d="M 1176.76 822.075 C 1181.67 810.833 1187.51 799.327 1189.63 787.154 C 1192.31 771.711 1190.18 755.675 1191.3 740.081 A 89.3669 89.3669 0 0 1 1247.01 663.27 C 1269.19 654.519 1296.44 654.979 1318.31 664.515 A 89.2326 89.2326 0 0 1 1365.37 714.354 C 1374.33 737.532 1369.88 759.712 1372.95 783.511 C 1374.71 797.122 1379.63 809.531 1385.11 822.004 C 1375.32 821.147 1365.6 820.97 1355.78 820.851 C 1344.94 829.919 1334.12 842.546 1318.68 841.816 C 1316.59 843.704 1316.49 843.702 1316.01 846.465 C 1316.73 848.305 1317.25 850.071 1319.19 850.961 C 1319.49 851.097 1319.83 851.136 1320.14 851.223 C 1308.68 855.275 1290.56 873.192 1281.59 882.169 C 1269.53 872.161 1257.58 861.757 1246.64 850.531 C 1248.12 849.489 1248.78 848.978 1249.59 847.287 C 1250.38 845.639 1250 845.624 1249.47 844.04 L 1247.13 842.927 C 1229.79 838.611 1219.35 833.291 1206.65 820.936 C 1196.7 821.08 1186.66 820.947 1176.76 822.075 z"/>
<path transform="translate(0,0)" fill="rgb(250,171,167)" d="M 1219.78 753.207 C 1264.17 763.996 1302.46 751.913 1342.8 733.709 C 1343.06 761.893 1343.52 793.135 1322.3 814.559 C 1317.56 819.339 1310.43 823.444 1310.27 830.899 C 1310.2 834.217 1311.61 837.795 1314.29 839.897 C 1315.57 840.896 1317.17 841.335 1318.68 841.816 C 1316.59 843.704 1316.49 843.702 1316.01 846.465 C 1316.73 848.305 1317.25 850.071 1319.19 850.961 C 1319.49 851.097 1319.83 851.136 1320.14 851.223 C 1308.68 855.275 1290.56 873.192 1281.59 882.169 C 1269.53 872.161 1257.58 861.757 1246.64 850.531 C 1248.12 849.489 1248.78 848.978 1249.59 847.287 C 1250.38 845.639 1250 845.624 1249.47 844.04 L 1247.13 842.927 C 1250.97 839.321 1251.68 831.079 1252.83 825.837 C 1236.04 813.978 1225.78 798.835 1222.28 778.537 C 1220.86 770.287 1220.2 761.568 1219.78 753.207 z"/>
<path transform="translate(0,0)" fill="rgb(1,1,4)" d="M 384.845 487.073 C 408.484 446.674 392.401 419.337 404.981 382.319 A 90.4199 90.4199 0 0 1 450.683 330.832 C 472.104 320.523 497.687 318.54 520.155 326.651 C 555.624 339.456 576.576 370.758 579.681 407.652 C 580.874 421.835 579.352 436.147 581.693 450.265 C 583.842 463.225 588.726 474.969 594.249 486.802 C 584.388 486.217 574.477 486.556 564.618 486.998 C 559.783 492.791 553.95 500.084 547.6 504.206 C 540.888 508.563 536.745 508.961 528.975 507.437 C 527.767 511.246 528.689 513.364 530.41 516.815 C 516.031 524.882 503.077 536.713 490.565 547.38 C 481.755 539.038 462.589 521.504 453.174 515.228 C 453.365 515.157 453.57 515.117 453.745 515.014 C 455.814 513.794 456.047 513.108 456.956 510.974 L 456.063 509.439 C 448.918 507.168 440.701 506.928 433.264 505.582 C 426.677 500.286 421.108 493.383 415.415 487.146 A 348.565 348.565 0 0 0 384.845 487.073 z"/>
<path transform="translate(0,0)" fill="rgb(250,171,167)" d="M 428.954 419.565 C 477.456 425.97 507.221 420.551 550.661 398.663 C 551.974 409.95 551.803 421.09 550.748 432.399 C 548.077 461.009 540.368 474.097 518.435 492.27 C 519.065 495.493 519.548 501.219 521.354 503.908 C 523.306 506.815 525.857 506.754 528.975 507.437 C 527.767 511.246 528.689 513.364 530.41 516.815 C 516.031 524.882 503.077 536.713 490.565 547.38 C 481.755 539.038 462.589 521.504 453.174 515.228 C 453.365 515.157 453.57 515.117 453.745 515.014 C 455.814 513.794 456.047 513.108 456.956 510.974 L 456.063 509.439 L 457.914 508.363 C 459.954 503.743 461.456 498.143 461.3 493.067 C 461.154 488.336 452.956 484.773 449.603 481.63 C 432.456 465.557 429.78 441.764 428.954 419.565 z"/>
<path transform="translate(0,0)" fill="rgb(248,49,56)" d="M 1137.32 1152.41 C 1181.95 1149.97 1220.67 1167.52 1262.16 1180.47 C 1293 1190.09 1336.28 1183.92 1364.51 1169.09 C 1373.84 1191.74 1381.61 1214.88 1390.32 1237.76 C 1422.07 1321.21 1451.83 1405.49 1483.84 1488.82 C 1446.71 1501.56 1419.49 1511.49 1389.64 1538.45 C 1368.03 1520.51 1347.56 1500.93 1326.71 1482.09 L 1207.67 1373.43 C 1184 1353.79 1162.97 1330.39 1138.49 1311.78 C 1103 1284.79 1072.6 1301.22 1037.24 1317.69 C 1023.54 1324.07 1007.55 1329.92 995.728 1339.42 C 984.117 1348.75 975.306 1362.64 965.639 1374 C 958.189 1382.75 950.185 1391.44 940.982 1398.38 C 924.165 1411.07 889.024 1426.58 868.095 1428.91 C 854.618 1430.41 840.343 1425.89 829.929 1417.25 C 820.77 1409.66 815.32 1398.12 814.426 1386.32 C 813.422 1373.09 818.38 1362.87 826.871 1353.2 C 842.11 1335.85 859.742 1320.24 875.643 1303.42 L 912.873 1263.72 C 921.065 1254.97 929.194 1245.12 938.68 1237.76 C 953.809 1226.03 977.621 1218.24 995.203 1209.83 L 1056.98 1180.35 C 1072.78 1172.76 1088.75 1164.46 1105.27 1158.6 C 1115.74 1154.89 1126.28 1153.21 1137.32 1152.41 z"/>
<path transform="translate(0,0)" fill="rgb(1,1,4)" d="M 222.087 979.342 C 235.737 982.476 250.095 989.365 263.279 994.365 L 345.57 1025.69 L 606.86 1125.45 C 591.971 1160.95 579.541 1197.98 565.883 1234.03 L 459.063 1518.33 C 451.113 1517.58 392.375 1493.55 380.399 1489.06 L 74.2563 1373.06 C 88.1816 1342.29 98.9026 1308.97 110.728 1277.26 L 183.723 1081.79 C 196.375 1047.79 207.731 1012.61 222.087 979.342 z"/>
<path transform="translate(0,0)" fill="rgb(253,253,253)" d="M 412.822 1268.21 C 420.233 1267.49 427.405 1268.78 433.976 1272.36 A 35.2209 35.2209 0 0 1 451.048 1294.57 A 35.6733 35.6733 0 0 1 446.465 1322.76 C 440.39 1332.19 431.607 1336.74 420.934 1338.97 C 413.493 1339.28 406.579 1338.35 399.913 1334.83 C 391.522 1330.39 384.966 1322.62 382.484 1313.41 A 35.369 35.369 0 0 1 386.164 1285.76 C 392.189 1275.87 401.792 1270.65 412.822 1268.21 z"/>
<path transform="translate(0,0)" fill="rgb(1,1,4)" d="M 1800.25 979.013 L 1801.91 978.773 C 1803.21 979.683 1803.54 980.243 1804.16 981.725 C 1808.65 992.407 1812.12 1003.79 1816.03 1014.72 A 3847.5 3847.5 0 0 0 1835.64 1067.79 L 1915.88 1283.51 L 1936.06 1338.33 C 1940.3 1349.83 1944.18 1362.03 1949.98 1372.84 C 1822.02 1420.73 1694.81 1471.24 1566.24 1517.43 L 1564.32 1517.43 C 1559.26 1508.96 1556.27 1496.97 1552.78 1487.53 L 1527.91 1420.37 L 1455.67 1227.09 C 1443.01 1193.09 1431.43 1158.29 1417.48 1124.81 C 1434.07 1120.58 1450.97 1112.47 1466.94 1106.26 L 1550.4 1074.48 L 1699.76 1017.7 C 1733.3 1005.03 1767.17 992.873 1800.25 979.013 z"/>
<path transform="translate(0,0)" fill="rgb(253,253,253)" d="M 1603.19 1268.16 C 1610.56 1267.79 1617.71 1269.1 1624.26 1272.6 A 34.7715 34.7715 0 0 1 1641.5 1294.17 A 35.9321 35.9321 0 0 1 1637.35 1321.89 C 1631.37 1331.71 1622.78 1336.4 1611.99 1339.07 C 1603.79 1339.16 1597 1338.57 1589.63 1334.5 A 35.9881 35.9881 0 0 1 1572.53 1312.43 A 34.7712 34.7712 0 0 1 1576.73 1285.14 C 1583 1275.12 1592.19 1270.89 1603.19 1268.16 z"/>
<path transform="translate(0,0)" fill="rgb(1,1,4)" d="M 944.281 1105.43 C 999.612 1102.85 1034.98 1116.68 1081.75 1144.14 C 1066.86 1150.17 1052.42 1157.78 1037.93 1164.73 L 977.127 1193.47 C 961.886 1200.73 941.653 1207.53 928.102 1217.12 C 916.66 1225.21 907.229 1236.94 897.688 1247.16 A 2697.14 2697.14 0 0 1 863.821 1282.87 A 2480.32 2480.32 0 0 1 830 1317.46 C 821.318 1326.21 812.051 1334.72 804.778 1344.72 C 793.711 1359.93 790.574 1377.02 793.606 1395.46 C 796.547 1413.36 805.908 1429.17 820.85 1439.6 C 853.138 1462.13 887.512 1450.08 919.891 1435.25 C 935.754 1427.98 951.07 1420.51 963.997 1408.53 C 980.097 1393.62 994.83 1369.37 1009.94 1357.33 C 1021.47 1348.15 1075.06 1323.74 1089.69 1321.46 C 1100.74 1319.75 1111.98 1321.51 1121.18 1328.03 C 1135.46 1338.13 1148.55 1351.7 1161.53 1363.44 L 1244.5 1439.51 L 1337.95 1524.85 C 1356.21 1541.31 1383.07 1563.53 1398.62 1581.37 C 1406.47 1590.39 1412.05 1600.36 1413.83 1612.37 C 1415.99 1626.98 1412.61 1641.08 1403.54 1652.75 C 1394.48 1664.4 1381.32 1672.57 1366.51 1674.04 A 48.2343 48.2343 0 0 1 1339.9 1669.15 C 1325.92 1662.19 1314.86 1650.6 1303.47 1640.19 C 1280.96 1619.62 1259.07 1596.77 1235.22 1577.87 C 1228.27 1586.73 1220.57 1594.85 1212.9 1603.09 C 1231.19 1621.06 1250.38 1638.52 1269.36 1655.77 C 1282.59 1667.78 1303.84 1683.82 1313.17 1698.35 C 1320.86 1710.32 1322.69 1727.3 1319.21 1740.86 A 54.7053 54.7053 0 0 1 1293.98 1773.98 C 1279.76 1782.27 1265.83 1782.32 1250.42 1778.3 C 1245.32 1776.06 1240.68 1773.39 1236.22 1770.06 C 1222.76 1760.03 1210.53 1747.62 1198.01 1736.39 C 1177.1 1717.66 1155.87 1699.24 1135.55 1679.86 L 1113.01 1704.49 C 1131.15 1722.84 1150.77 1740.1 1169.75 1757.61 C 1178.89 1766.05 1190.24 1774.69 1197.49 1784.82 C 1202.21 1791.41 1204.78 1800.34 1205.73 1808.32 C 1207.51 1823.25 1204.1 1837.98 1194.5 1849.81 C 1185.41 1861.03 1171.87 1868.71 1157.42 1870.02 A 50.3543 50.3543 0 0 1 1129.13 1864.1 C 1117.1 1857.7 1107.03 1847.31 1097.03 1838.2 C 1076.39 1819.4 1056.52 1798.73 1035.02 1781 L 1034.22 1780.35 C 1043.28 1763.07 1045.81 1743.73 1040.02 1724.91 C 1034.65 1707.48 1022.13 1693.4 1006.04 1685.03 C 986.696 1674.96 967.26 1676.03 946.945 1682.49 C 947.043 1667.21 946.337 1653.06 939.203 1639.22 A 65.1169 65.1169 0 0 0 899.97 1606.49 C 879.888 1600.26 860.451 1604.74 842.194 1614.22 C 841.811 1597.73 837.039 1581.76 826.917 1568.56 C 815.579 1553.78 797.437 1544.12 779.019 1541.98 C 748.509 1538.43 728.01 1555.08 706.09 1573.72 C 694.537 1583.55 683.092 1593.48 671.178 1602.88 C 635.646 1562.41 582.028 1528.55 530.588 1513.35 C 540.993 1489.7 549.191 1464.77 558.308 1440.59 L 606.621 1313.66 L 642.665 1218.1 C 648.862 1201.55 656.677 1184.39 660.689 1167.22 C 682.442 1175.41 707.446 1179.81 730.558 1175.73 C 754.45 1171.51 777.691 1158.26 799.543 1148 C 845.358 1126.5 893.382 1108.77 944.281 1105.43 z"/>
</svg>